<svg xmlns="http://www.w3.org/2000/svg" viewBox="0 0 90 26">
  <path fill="none" stroke="#333" d="M8.3 2.3h.1l.2-.2h.2L9 2h.2v-.1h.2v-.1h.4v-.1h.3l.1-.1h.2l.1-.1h.4l.1-.1h.5l.1-.1h1.1l.1-.1h66.5v.2h1v.2h.7v.2h.5l.1.2h.4v.3a12 12 0 0 1 0 22h-.3v.2h-.8v.2h-.5v.2h-1v.2h-1.9v.2H11.4v-.1H11V25h-1v-.1h-.3v-.1h-.3v-.1h-.2v-.1h-.3v-.1h-.4v-.2h-.2a12 12 0 0 1 0-22m73 11a4.1 4.1 0 1 0-8.3 0 4.1 4.1 0 0 0 8.2 0m-64 0a4 4 0 1 0-8.2 0 4.2 4.2 0 0 0 8.3 0m16 0a4 4 0 1 0-8.2 0 4 4 0 0 0 8.2 0m16 0a4 4 0 1 0-8.2 0 4 4 0 0 0 8.2 0m16 0a4 4 0 1 0-8.2 0 4 4 0 0 0 8.2 0"/>
</svg>
