<svg xmlns="http://www.w3.org/2000/svg" viewBox="0 0 74 26">
  <path fill="none" stroke="#333" d="M8.5 24.3A12 12 0 0 1 1.3 14c.1-.5.1-1 0-1.6A12 12 0 0 1 8.5 2.3h.1l.1-.1h.4V2h.1l.1-.1h.2l.1-.1h.2l.1-.1h.3v-.1h.5v-.1h.4l.1-.1h.5l.1-.1h51.6l.1.2h.8l.1.2h.7V2h.4l.1.2h.4v.2a12 12 0 0 1 0 22h-.5v.2H65v.2h-.6l-.2.2h-.7l-.1.2h-1.8l-.1.2H11.8l-.1-.1h-.6L11 25h-.9v-.1h-.3v-.1h-.3v-.1h-.2v-.1h-.2l-.1-.1h-.2v-.2h-.2l-.1-.1m56.8-11a4 4 0 1 0-8.2 0 4 4 0 0 0 8.2 0m-16 0a4 4 0 1 0-8.2 0 4 4 0 0 0 8.2 0m-16 0a4 4 0 1 0-8.2 0 4 4 0 0 0 8.2 0m-16 0a4 4 0 1 0-8.2 0 4 4 0 0 0 8.2 0"/>
</svg>
