<svg xmlns="http://www.w3.org/2000/svg" viewBox="0 0 322 18">
  <path fill="none" stroke="#333" d="m5.7 17.3-4.4-4.4V5.7l4.4-4.4h7.2l4.4 4.4 4.4-4.4h7.2l4.4 4.4 4.4-4.4h7.2l4.4 4.4 4.4-4.4h7.2l4.4 4.4 4.4-4.4h7.2l4.4 4.4 4.4-4.4h7.2l4.4 4.4 4.4-4.4h7.2l4.4 4.4 4.4-4.4h7.2l4.4 4.4 4.4-4.4h7.2l4.4 4.4 4.4-4.4h7.2l4.4 4.4 4.4-4.4h7.2l4.4 4.4 4.4-4.4h7.2l4.4 4.4 4.4-4.4h7.2l4.4 4.4 4.4-4.4h7.2l4.4 4.4 4.4-4.4h7.2l4.4 4.4 4.4-4.4h7.2l4.4 4.4 4.4-4.4h7.2l4.4 4.4 4.4-4.4h7.2l4.4 4.4 4.4-4.4h7.2l4.4 4.4 4.4-4.4h7.2l4.4 4.4v7.2l-4.4 4.4h-7.2l-4.4-4.4-4.4 4.4h-7.2l-4.4-4.4-4.4 4.4h-7.2l-4.4-4.4-4.4 4.4h-7.2l-4.4-4.4-4.4 4.4h-7.2l-4.4-4.4-4.4 4.4h-7.2l-4.4-4.4-4.4 4.4h-7.2l-4.4-4.4-4.4 4.4h-7.2l-4.4-4.4-4.4 4.4h-7.2l-4.4-4.4-4.4 4.4h-7.2l-4.4-4.4-4.4 4.4h-7.2l-4.4-4.4-4.4 4.4h-7.2l-4.4-4.4-4.4 4.4h-7.2l-4.4-4.4-4.4 4.4h-7.2l-4.4-4.4-4.4 4.4h-7.2l-4.4-4.4-4.4 4.4h-7.2l-4.4-4.4-4.4 4.4h-7.2l-4.4-4.4-4.4 4.4h-7.2l-4.4-4.4-4.4 4.4h-7.2l-4.4-4.4-4.4 4.4H5.7m7.7-8a4.1 4.1 0 1 0-8.2 0 4.1 4.1 0 0 0 8.2 0m304 0a4.1 4.1 0 1 0-8.2 0 4.1 4.1 0 0 0 8.2 0m-16 0a4.1 4.1 0 1 0-8.2 0 4.1 4.1 0 0 0 8.2 0m-16 0a4.1 4.1 0 1 0-8.2 0 4.1 4.1 0 0 0 8.2 0m-16 0a4.1 4.1 0 1 0-8.2 0 4.1 4.1 0 0 0 8.2 0m-16 0a4.1 4.1 0 1 0-8.2 0 4.1 4.1 0 0 0 8.2 0m-16 0a4.1 4.1 0 1 0-8.2 0 4.1 4.1 0 0 0 8.2 0m-16 0a4.1 4.1 0 1 0-8.2 0 4.1 4.1 0 0 0 8.2 0m-16 0a4.1 4.1 0 1 0-8.2 0 4.1 4.1 0 0 0 8.2 0m-16 0a4.1 4.1 0 1 0-8.2 0 4.1 4.1 0 0 0 8.2 0m-16 0a4.1 4.1 0 1 0-8.2 0 4.1 4.1 0 0 0 8.2 0m-16 0a4.1 4.1 0 1 0-8.2 0 4.1 4.1 0 0 0 8.2 0m-16 0a4.1 4.1 0 1 0-8.2 0 4.1 4.1 0 0 0 8.2 0m-16 0a4.1 4.1 0 1 0-8.2 0 4.1 4.1 0 0 0 8.2 0m-16 0a4.1 4.1 0 1 0-8.2 0 4.1 4.1 0 0 0 8.2 0m-16 0a4 4 0 1 0-8.2 0 4 4 0 0 0 8.2 0m-16 0a4 4 0 1 0-8.2 0 4 4 0 0 0 8.2 0m-16 0a4 4 0 1 0-8.2 0 4 4 0 0 0 8.2 0m-16 0a4 4 0 1 0-8.2 0 4 4 0 0 0 8.2 0m-16 0a4 4 0 1 0-8.2 0 4 4 0 0 0 8.2 0"/>
</svg>
