<svg xmlns="http://www.w3.org/2000/svg" viewBox="0 0 146 146">
  <path fill="none" stroke="#333" d="M145 73A72 72 0 1 1 1 73a72 72 0 0 1 144 0M17.4 89a4.1 4.1 0 1 0-8.2 0 4.1 4.1 0 0 0 8.2 0m43.7 43.7a4 4 0 1 0-8.2 0 4 4 0 0 0 8.2 0m32 0a4 4 0 1 0-8.2 0 4 4 0 0 0 8.2 0M136.8 89a4.1 4.1 0 1 0-8.2 0 4.1 4.1 0 0 0 8.2 0m-16 27.7a4 4 0 1 0-8.2 0 4 4 0 0 0 8.2 0m16-59.7a4.1 4.1 0 1 0-8.2 0 4.1 4.1 0 0 0 8.2 0m-24-2.6a44 44 0 0 1 0 37.2 4 4 0 1 0 7.3 3.4 52 52 0 0 0 0-44 4 4 0 1 0-7.2 3.4m-18 65.7a4 4 0 1 0-3.3-7.2 44 44 0 0 1-37.2 0A4 4 0 0 0 51 120a52 52 0 0 0 44 0m12-16a3 3 0 1 0-6 0 3 3 0 0 0 6 0m-2.2-15a4.1 4.1 0 1 0-8.2 0 4.1 4.1 0 0 0 8.2 0m-27.7 16a4 4 0 1 0-8.2 0 4 4 0 0 0 8.2 0M91 97a4.1 4.1 0 1 0-8.2 0 4.1 4.1 0 0 0 8.2 0m13.8-24a4.1 4.1 0 1 0-8.2 0 4.1 4.1 0 0 0 8.2 0m0-16a4.1 4.1 0 1 0-8.2 0 4.1 4.1 0 0 0 8.2 0m16-27.8a4.1 4.1 0 1 0-8.2 0 4.1 4.1 0 0 0 8.2 0M63.3 97a4.2 4.2 0 1 0-8.3 0 4.2 4.2 0 0 0 8.3 0M107 42a3 3 0 1 0-6 0 3 3 0 0 0 6 0M77.1 89a4.1 4.1 0 1 0-8.2 0 4.1 4.1 0 0 0 8.2 0m16-16a3 3 0 1 0-6 0 3 3 0 0 0 6 0m-48 31a3 3 0 1 0-6 0 3 3 0 0 0 6 0M91 49a4.1 4.1 0 1 0-8.2 0 4.1 4.1 0 0 0 8.2 0M81 73a8 8 0 1 0-16 0 8 8 0 0 0 16 0M49.4 89a4.1 4.1 0 1 0-8.2 0 4.1 4.1 0 0 0 8.2 0m5-56a44 44 0 0 1 37.2 0c2 1 4.4.2 5.3-1.8 1-2 0-4.4-2-5.3a52 52 0 0 0-43.9 0 4 4 0 1 0 3.4 7.2m22.7 24a4.1 4.1 0 1 0-8.2 0 4.1 4.1 0 0 0 8.2 0m-18 16a3 3 0 1 0-6 0 3 3 0 0 0 6 0m-26 18.5a44 44 0 0 1 0-37.2 4 4 0 1 0-7.2-3.4 52 52 0 0 0 0 44 4 4 0 0 0 7.2-3.4m44-50.6a4.1 4.1 0 1 0-8.2 0 4.1 4.1 0 0 0 8.2 0M49.4 73a4.1 4.1 0 1 0-8.2 0 4.1 4.1 0 0 0 8.2 0m43.7-59.7a4.1 4.1 0 1 0-8.2 0 4.1 4.1 0 0 0 8.2 0M63.3 49a4.2 4.2 0 1 0-8.3 0 4.2 4.2 0 0 0 8.3 0m-13.9 8a4.1 4.1 0 1 0-8.2 0 4.1 4.1 0 0 0 8.2 0M45 42a3 3 0 1 0-6 0 3 3 0 0 0 6 0m16.1-28.7a4.1 4.1 0 1 0-8.2 0 4.1 4.1 0 0 0 8.2 0M17.4 57a4.1 4.1 0 1 0-8.2 0 4.1 4.1 0 0 0 8.2 0m16-27.7a4.1 4.1 0 1 0-8.2 0 4.1 4.1 0 0 0 8.2 0m0 87.4a4 4 0 1 0-8.2 0 4 4 0 0 0 8.2 0"/>
</svg>
