<svg xmlns="http://www.w3.org/2000/svg" viewBox="0 0 102 102">
  <path fill="none" stroke="#333" d="M62.9 94.8h-.5l-.1.2h-.1v.2h-.1v.2l-.1.2v1.8h-.1v.9h-.1v.6h-.1v.5h-.1v.4l-1.6.3-.1-.1v-.1h-.1v-.1l-.1-.1v-.1h-.1v-.3l-.1-.1-.1-.1V99h-.1v-.2h-.1v-.1l-.1-.1v-.1H59v-.2h-.1V98h-.1v-.2h-.1v-.2h-.1v-.2h-.1v-.2h-.2v-.4h-.1v-.3h-.1v-.2H58v-.1l-.1-.1V96h-.1l-.1-.1h-.1l-.1-.1h-1.2v.2l-.1.2-.1.2v.5H56v.6h-.1v.5h-.1v.4h-.1v.4h-.1v.4h-.1v.3h-.1v.5h-.1v.2h-.1v.3h-.1l-1.6.3v-.1l-.1-.1v-.1l-.1-.3v-.2h-.1v-.2h-.1v-.2H53v-.2h-.1v-.2l-.1-.1V99h-.1v-.2h-.1v-.3h-.1v-.2h-.2v-.7h-.1v-.3h-.1V97H52v-.1l-.1-.1v-.1l-.1-.1h-.1v-.1h-.2l-.2-.2h-1l-.1.2-.1.2H50v.2l-.1.2v.4h-.1v.4h-.1v.3h-.1v.3h-.1v.3h-.1v.2h-.1v.5h-.1v.2h-.1v.2H49v.3h-.1v.2h-.1l-.1.2-.1.2H47v-.2l-.1-.1v-.2h-.1v-.5l-.1-.1v-.2h-.1V99h-.1v-.3h-.2v-.9h-.1v-.6h-.1v-.6l-.1-.1v-.2h-.1v-.1h-.1l-.1-.1-.1-.1h-.1l-.1-.1h-1l-.1.2h-.1l-.1.2v.2H44l-.1.2v.2h-.1v.2h-.1v.3h-.1v.2h-.1v.2h-.2l-.1.2h-.1v.3H43v.2h-.1l-.1.2h-.1v.3h-.1l-.1.2h-.1v.2h-.1l-.1.2h-.1v.2H42l-1.5-.2v-.1l-.1-.1V99h-.1v-1.2h-.1v-1.3h-.1v-1.2H40l-.1-.1V95H39.6l-.4-.2h-.7v.1h-.2v.2h-.1v.2h-.1v.2H38v.1h-.1v.2h-.1v.1h-.1v.2h-.1v.1h-.1v.2h-.2v.3h-.1v.1h-.1v.1H37v.2h-.1v.1h-.1v.1h-.1v.1h-.1v.2h-.1v.1h-.2v.2l-.1.1h-.1v.1l-.1.1-.1.1v.1h-.1l-1.5-.5v-1h-.1v-2.5h.1v-1.1l-.1-.1V93H34v-.1h-.2l-.2-.2h-.9v.2h-.2v.3h-.3v.2H32v.2h-.1v.2h-.2v.2h-.2v.2h-.2v.2h-.1v.2H31v.2h-.2v.2h-.2v.2h-.3v.2h-.1v.2h-.3v.2h-.1l-1.5-.5V94h.1v-.8h.1v-.6h.1v-.5h.1v-.4h.1v-.4l.1-.2v-.6h-.1v-.2h-.1l-.1-.1h-.1l-.2-.2h-.4l-.1-.1h-.5v.2h-.2v.2h-.2v.2h-.2v.2h-.2v.2h-.4v.2h-.2v.2h-.2l-.1.2h-.2v.2h-.3v.2h-.2l-.1.2h-.2l-.1.2h-.2l-.1.2H24l-1.4-.8v-.3h.1V91h.1v-.4h.1v-.3h.1v-.4h.1v-.4h.1v-.2h.1v-.4h.1v-.2h.1v-.3l.1-.1.1-.1v-.4h.1v-.3l-.1-.1v-.1h-.1V87h-.1l-.2-.2-.1-.1h-1.1v.2h-.3v.2h-.2l-.1.2h-.2v.2H21v.2h-.3l-.1.2h-.3v.2h-.4v.2h-.3l-.1.2h-.2l-.1.2h-.4a59 59 0 0 1-1.2-1l.1-.1v-.4h.1V87l.1-.1v-.3h.1v-.2h.1v-.2h.1V86h.1v-.2h.1v-.2h.1v-.2h.1v-.1h.1V85h.1v-.2h.1v-.2h.1v-.1l.1-.1v-.2l.1-.1V84l.1-.2v-.6l-.1-.1-.1-.1-.2-.2-.2-.1-.1-.1h-1l-.1.2h-.2l-.1.2h-.3v.2h-.4l-.1.2H16v.2h-.5v.2H15l-.1.2h-.6l-.1.2h-.1a59 59 0 0 1-1.1-1.1V83h.1v-.2l.1-.1v-.1l.1-.1v-.1l.1-.1h.1V82h.1v-.2h.1v-.2h.1v-.1l.1-.1v-.2h.1V81h.2v-.2h.1v-.1h.1v-.2h.1v-.1h.1v-.1h.1v-.1h.1V80l.1-.1.1-.1.1-.1v-.2l.1-.1v-.7l-.1-.2-.2-.2-.1-.1h-.1l-.1-.1h-.2V78h-.8v.2H13v.2h-.6v.2h-.7v.2h-.8l-.1.2h-.4l-.1.2h-.2L9.2 78v-.1h.1v-.1l.1-.1v-.1h.1v-.1h.1v-.2l.1-.1V77h.1v-.2h.1v-.1h.1v-.1h.1v-.1l.1-.1v-.1h.1v-.1h.2V76h.2v-.1h.1v-.1h.1v-.1h.1v-.1h.1v-.1h.1v-.2h.2v-.1l.1-.1.1-.1.1-.1.1-.1v-.2h.1v-1l-.2-.1v-.1h-.1v-.1h-.3v-.1H9.9l-.1.2H8.6v.2H6.7l-.8-1.3H6v-.1h.3V72l.1-.1h.1v-.1l.1-.1.1-.1.1-.1v-.1h.1v-.2h.2v-.1h.1V71h.1v-.2h.1v-.1h.1v-.1h.1v-.1h.1v-.1h.1v-.2h.3v-.1h.2V70h.1v-.1h.1l.1-.1h.1v-.1h.1v-.1h.1v-.1H9v-.2h.1l.1-.1v-1h-.1V68h-.2v-.1h-.1l-.1-.1H4.1l-.6-1.5h.1v-.1h.1V66h.2v-.1H4l.1-.1.1-.1.1-.1h.1v-.1h.1v-.2h.3v-.1h.1V65h.4v-.1h.1v-.1h.1v-.1h.2v-.1h.1v-.1H6v-.2h.3v-.1h.1l.2-.1.2-.1v-.1H7v-.1h.1v-.2h.2v-1h-.1v-.3H7v-.1h-.2V62H4.6v-.1h-.8v-.1h-.5v-.1h-.7v-.1h-.3L1.9 60H2v-.1h.3l.1-.1h.1v-.1h.1l.1-.1h.1v-.1h.1l.1-.1h.1v-.1h.2V59h.4v-.1h.2v-.1H4l.1-.1h.2l.1-.1h.1l.1-.1h.1l.1-.1H5v-.1h.2v-.1h.1l.1-.1h.1l.1-.1h.1l.1-.1.1-.1v-.1H6v-.2l.1-.1v-.8H6v-.1l-.1-.1-.1-.1-.1-.1h-.1l-.1-.1h-.4L5 56h-.7v-.1h-.5v-.1h-.4l-.1-.1H3v-.1h-.4v-.1h-.3v-.2h-.6v-.1h-.2l-.1-.1h-.1v-1.6h.1l.1-.1h.1l.1-.1h.1l.1-.1H2l.1-.1h.2l.1-.1h.2v-.1h.2v-.1H3l.1-.1h.2v-.1h.3v-.1h.2l.1-.1h.2l.1-.1h.3v-.1h.4V52h.4v-.1h.1v-.1l.1-.1.1-.1v-.3l.1-.1v-.7l-.1-.2h-.3v-.1l-.1-.1H5V50h-.4v-.1h-.3v-.1h-.4l-.1-.1h-.2v-.1h-.3v-.1h-.2l-.1-.1h-.2v-.1h-.2v-.1h-.3V49h-.4v-.1h-.2v-.1h-.1l-.1-.1h-.2v-.1l.1-1.6h.2v-.1H2v-.1h.3v-.1h.3v-.1h.3l.1-.1h.3v-.2h.9v-.1h.6V46h.9v-.1h.1l.1-.1v-.1H6v-.1l.1-.1v-.2l.1-.1v-1H6l-.1-.1-.2-.1-.2-.1h-.2v-.1h-.2l-.1-.1h-.2v-.1h-.2v-.1h-.3v-.1h-.2v-.1h-.4v-.1h-.1V43H3.3v-.1h-.1v-.1H3v-.1h-.1l-.1-.1h-.1v-.1h-.1l-.1-.1h-.2v-.1l-.1-.1H2V42l.3-1.5h.1v-.1h.4l.1-.1h.5l.1-.1h.8l.1-.1h1.2l.1-.1H6.9l.1-.1.1-.1.1-.2h.1v-.9l-.1-.1-.1-.1-.1-.1-.1-.1-.1-.1h-.1l-.1-.1h-.1V38h-.2v-.1h-.2v-.1H6v-.1h-.2v-.1h-.1v-.3h-.4V37H5v-.1h-.1v-.1h-.2v-.1h-.1v-.1h-.1v-.1h-.2v-.2l-.1-.1-.1-.1L4 36h-.1v-.1h-.1v-.1h-.1v-.1c0-.5.3-1 .4-1.5h1.2V34h3.6l.2-.1v-.1l.1-.2.1-.2v-.7l-.1-.1-.1-.1-.1-.1-.1-.1h-.1v-.1h-.1v-.1h-.1l-.1-.1H8.2v-.1h-.1v-.1H8v-.1h-.1v-.1h-.1v-.1h-.1l-.1-.1-.1-.1h-.2V31h-.2v-.1H7v-.1l-.1-.1-.1-.1-.1-.1-.1-.1v-.1h-.1v-.1h-.2V30l-.1-.1h-.1v-.1l.6-1.5h2.2v.2h.9v.2h.9v.2h.6l.2-.1v-.1l.2-.1v-.1l.2-.2v-1l-.1-.1V27h-.2v-.1h-.3v-.3h-.1v-.1h-.1v-.1H11v-.1h-.2v-.1h-.1V26h-.1v-.1h-.1v-.1h-.2v-.3h-.1v-.2H10V25h-.1l-.1-.1v-.1h-.1v-.1h-.1v-.1l-.1-.1v-.2h-.2l-.1-.1V24h-.1l1-1.4h.7l.1.2h.8v.2h.9v.2h.5l.1.2h.5v.2h.6l.1.2h.3v-.1h.2v-.1h.1l.1-.1.2-.2v-.2l.1-.1v-.8h-.1V22h-.2v-.1l-.1-.1v-.1h-.1v-.1h-.1v-.1l-.1-.1v-.1h-.4v-.4h-.1v-.1h-.1v-.2H14v-.1l-.1-.1v-.1h-.1V20h-.1v-.2h-.1v-.2h-.1v-.2h-.2v-.2l-.1-.1V19l-.1-.1v-.1l1-1.2h.5l.1.2h.6v.2h.5v.2h.5v.2h.4v.2h.4v.2h.4v.2h.3l.1.2h1l.1-.1.2-.2.1-.2v-.1l.1-.1v-.6l-.1-.2-.1-.1v-.1h-.1v-.2H19V17h-.1v-.2h-.1v-.2h-.1v-.2h-.1v-.2h-.3v-.5h-.1v-.2h-.1v-.2H18v-.4h-.1v-.2l-.1-.1v-.3h-.1V14l1.1-1.1h.4v.2h.4v.2h.4v.2h.3l.1.2h.3v.2h.3v.2h.3v.2h.3v.2h.3v.2h.2l.1.2h.3v.2h.7l.2-.1.2-.2.1-.1v-.1l.1-.1v-.3h.1v-.5h-.1v-.2l-.1-.1v-.2h-.1V13h-.1v-.3h-.2v-.5h-.1v-.4h-.1v-.4H23V11h-.1v-.5h-.1V10L24 9h.1l.1.2h.2l.1.2h.2l.1.2h.2v.2h.3v.2h.1v.2h.4v.2h.2l.1.2h.2v.2h.2v.2h.2v.2h.2v.2h.2v.2h.3v.2h.9l.2-.2.2-.1v-.3h.1l.1-.1v-1h-.1v-.3h-.1v-.5h-.1v-.6h-.1V8h-.2V6.7l1.3-.8h.2v.4h.3v.2h.2l.1.2h.1l.1.2h.2v.2h.1v.2h.3v.2h.1v.2h.2V8h.2v.2h.1v.2h.2v.2h.1l.1.2h.1l.1.2h.1l.1.2h.1v.2h1l.1-.1h.1V9h.1l.1-.1v-.1h.1V6.4h-.1V4l1.7-.5h.1v.2h.1l.1.2v.3h.2v.2h.2v.2h.1V5h.2v.2h.1v.2h.3v.3h.2V6h.2v.4h.1v.2h.1v.2h.1l.1.2h.1v.2h.2l.1.2h.9l.1-.1h.1l.1-.1.1-.1h.1v-.2h.1v-.5l.1-.1v-2h.1v-.6h.1V3h.1v-.4l.1-.1v-.2l1.6-.4h.1v.4h.1v.2h.1v.2h.1l.1.2h.1v.2h.1v.2h.1v.2h.1v.2h.2V4h.1v.2h.2v.3h.1v.2h.1v.2h.1V5h.1v.3h.1v.2h.1l.1.2h.1l.1.2h1.2v-.1h.2v-.2l.1-.1v-.1l.1-.1v-.6h.1v-.6h.1v-.4l.1-.1v-.4l.1-.1v-.3h.1v-.4h.1v-.2h.1V2l.1-.2v-.2h.1v-.3l1.7-.1v.2h.1v.2h.1v.2h.1V2h.1v.3h.1v.2h.1v.3h.1V3h.1v.3h.1v.2h.1v.3h.1v.4h.1v.4h.1v.3h.1v.3h.2v.2h.2l.1.2h1.2v-.1h.1v-.2h.1V5h.1v-.4h.1v-.2h.1V4h.1v-.3h.1v-.3h.1v-.2h.1V3h.1v-.4h.1v-.2h.1v-.2l.1-.1V2h.1v-.1l.1-.1v-.1l.1-.1v-.1h.1v-.2l.1-.1H55v.3h.1v.6h.1v.2h.1v.4h.1V3h.1v.3h.1v.4h.1v.6h.1v.6h.1v.7h.1l.1.2h.1l.1.2h.3l.1.2h.9l.1-.1.1-.1.1-.1v-.2h.1v-.4h.1l.1-.1V5h.1v-.2h.1v-.2l.1-.1v-.2l.1-.1V4l.1-.1v-.1h.1v-.2h.1v-.2h.1v-.1l.1-.1h.1V3h.1l.1-.1v-.1h.1v-.1l.1-.1v-.1h.1v-.2l.1-.1V2h.1c.6 0 1.1 0 1.6.3v.2h.1v.8h.1v.5h.1v.8h.1v1.9h.1v.3h.1V7h.3v.2h.2l.3.2h.6v-.1h.1l.1-.1.1-.1.1-.1v-.1l.1-.1v-.1l.1-.1v-.3h.1l.1-.1V6h.1l.1-.1v-.1h.1v-.2h.1v-.1h.1v-.2h.1V5h.2v-.1h.1v-.2h.1v-.1h.1v-.1h.1v-.1h.1v-.1l.1-.1V4h.1l.1-.1v-.1h.1v-.1h.1v-.1h.1v-.1c.6 0 1 .3 1.6.4v4.8h.1l.1.2h.2l.3.2h.8V9h.2l.1-.1v-.1l.1-.1.1-.1v-.1h.1v-.2h.2v-.1h.1V8h.1v-.2h.1v-.1h.1v-.1h.1v-.1h.1v-.1h.1v-.2h.2v-.1h.1V7h.2v-.1h.1v-.1h.1l.1-.1v-.1h.1l.1-.1h.1v-.2l.1-.1h.1V6h.2l1.5.6v1h-.1v1h-.1v.7h-.1v.5h-.2v.8h-.1v1h.2v.2h.2l.2.2h.9v-.1h.1l.1-.1h.1v-.1h.1v-.4h.3v-.1h.1V11h.2v-.1h.1v-.1h.1v-.1h.1v-.1h.2v-.1h.1v-.2h.2v-.1h.2V10h.2l.1-.1h.1v-.1h.1l.1-.1h.1v-.1h.1l.1-.1h.1v-.2h.2l.1-.1 1.4.9v.2h-.1v.5h-.1v.5h-.1v.4H79v.4h-.1v.4h-.1v.3h-.1v.3h-.1v.2h-.1v.3h-.1v.2h-.1v.3h-.1v.6l.1.2h.1l.1.2.2.2h1.2l.1-.1h.1V15h.2v-.1h.2v-.1h.1v-.1h.2v-.1h.1v-.3h.3v-.1h.2V14h.1l.1-.1h.1v-.1h.2v-.1h.2v-.1h.2v-.1h.1l.1-.1h.1l.1-.1h.1l.1-.1h.1l.1-.1h.1l.1-.1 1.3 1-.1.2v.2h-.1v.3l-.1.2-.1.2v.2h-.1v.2H84v.4h-.1v.2h-.1v.2h-.1v.2h-.1v.3h-.3l-.1.2h-.1v.3H83l-.1.3h-.1v.2l-.1.2v.7h.1v.2l.3.2h.3l.1.2h.7v-.1h.2v-.1l.1-.1h.4v-.1h.1l.1-.1h.1l.1-.1h.2v-.1h.2v-.3h.4l.1-.1h.2V18h.7l.1-.1h.2l.1-.1h.2v-.1h.4l1 1v.2H89v.2h-.1v.2h-.1v.2h-.1v.2h-.1v.2h-.3v.4h-.1v.2H88v.3h-.1l-.1.2h-.1v.3h-.2v.2h-.2v.2h-.1v.2h-.1l-.1.2-.1.2-.1.2v.7l.1.2.2.2h.2v.2h1.1v-.1h.2v-.1h.4v-.1h.3v-.2h.6v-.1h.4V23h.3l.1-.1h.3l.1-.1h.4l.1-.1h.5L93 24h-.1v.2h-.1v.2h-.1l-.1.2h-.3v.2h-.1v.2H92v.3h-.2v.2h-.1l-.1.2h-.1v.2h-.2v.2l-.1.2h-.1v.2h-.2v.2h-.2v.2h-.2v.2h-.2l-.1.2h-.1v.5H90v.4l.1.2.1.2h.1v.2h.4l.1.2h1v-.1h.4v-.1h.5v-.1h.5l.1-.1h.7v-.3h1.3l.7 1.3-.1.2h-.1l-.1.2h-.1v.2h-.3v.2h-.1v.2H95v.2h-.2v.2h-.2v.2h-.3v.2h-.1v.2H94v.2h-.3v.2h-.2l-.1.2h-.2v.2H93v.2h-.1v.3h-.1v.8l.1.2h.1v.2h.3v.2H98l.5 1.7h-.4v.2h-.2v.2h-.2v.2h-.4v.2h-.1v.2h-.3v.2h-.3v.2h-.3v.2H96v.2h-.3v.2h-.4v.2H95v.2h-.2v.3h-.1v.9h.1v.2h.2v.2h.6v.2h2.9v.2h1v.2h.3l.3 1.6h-.2v.2h-.3l-.1.2h-.3v.2h-.3l-.1.2h-.3v.2h-.3l-.1.2h-.3v.2h-.5v.2h-.4l-.2.2h-.3l-.1.2h-.2v.2H96v.2h-.1v1h.1l.1.3h.4v.2h1.2v.2h.9v.2h.9l.1.2h.5l.1.2h.5l.2 1.8h-.6v.2h-.4l-.1.2h-.4v.2h-.3l-.1.2h-.6v.2h-.6v.2h-.5l-.1.2h-.4l-.1.2h-.1l-.1.2v.2h-.2v1h.1l.1.2h.2l.2.2h.8v.2h.6v.2h.5l.1.2h.4v.2h.5v.2h.4l.1.2h.3v.2h.2v1.7h-.8v.2h-.6v.2h-.7l-.1.2h-.8v.2h-1.1l-.2.2h-.2v.2h-.1l-.1.2-.1.2v.9h.1l.1.2h.2v.2h.4l.1.2h.4v.2h.4v.2h.4v.2h.4v.2h.3v.2h.3l.1.2h.2l.1.2h.2v.2h.3c0 .7-.2 1.2-.3 1.7H99l-.1.2h-1.4v.2h-2.2v.2h-.2l-.1.3h-.1v.2l-.1.3v.6h.1v.2h.2v.2h.4v.2h.3v.2h.3v.2h.3v.2h.3v.2h.3v.2h.2v.2h.3v.2h.2v.2h.2l.1.2h.1l.1.2h.2l-.5 1.7h-4.7v.2h-.1l-.1.2-.2.3v.6h.1l.1.3h.3v.2h.2v.2h.3v.2h.2v.2h.2v.2h.3v.2h.2v.2h.2v.2h.2v.2h.1l.1.2h.1l.1.2h.1v.2h.2v.2h.1l.1.2-.7 1.5h-1l-.1-.1h-.8v-.1h-.6l-.1-.1h-.4v-.2h-.8l-.1-.1h-1v.2h-.1v.2l-.2.2v.3l-.1.2v.2h.1v.2h.1l.1.2h.1v.2h.2v.2h.2v.2h.2v.2h.2v.2h.1v.2h.2v.2h.1l.1.2h.1v.2h.1l.1.2h.1v.2h.1l.1.2.1.2h.1v.2h.1l.1.2-.8 1.4h-.6l-.1-.1h-.4V79h-.9v-.1h-.3v-.1h-.3v-.1H89v-.1h-.3v-.1h-.2l-.1-.1h-.1v-.1H88v-.1h-.8l-.2.2-.2.3-.1.2v.9h.2v.2h.1l.1.2h.1v.2h.1v.2h.2v.3h.2v.3h.2v.3h.1v.2h.1l.1.2h.1v.3h.1v.2h.1v.2h.1v.2h.1v.2h.1v.2l-1 1.3h-.1v-.2h-.2l-.1-.1h-.2V84H87l-.2-.1h-.1v-.1h-.4v-.1h-.2v-.1h-.2l-.1-.1h-.2v-.1h-.2v-.1h-.1v-.1h-.4v-.1h-.1l-.1-.1h-.4v-.1h-.2v-.1h-1l-.2.4h-.1v.2h-.1v.9h.1v.2h.2v.3h.1v.2h.1v.2h.1v.2h.1v.2h.1v.2h.1v.3h.1v.2h.1v.4h.1v.2h.1v.3h.1v.3h.1v.3h.1v.3l-1.1 1h-.1L83 89h-.2v-.1h-.2v-.1h-.2v-.1h-.1v-.1h-.2v-.3H82l-.1-.1h-.1V88H81.5l-.1-.1h-.1v-.1h-.2v-.1H81v-.1h-.2v-.1h-.1v-.1h-.2v-.1h-.2l-.1-.1-.1-.1H80V87h-.1l-.1-.1h-.1l-.1-.1h-.9l-.2.3h-.1v.2h-.1v.2h-.1v.8h.1l.1.2v.2h.1v.4h.1v.2h.1v.4h.1v.3h.1v.4h.1v.4h.1v.4h.1v.5h.1v.4L78 93l-.1-.1h-.1v-.1h-.1l-.1-.1-.1-.1h-.2v-.3l-.1-.1h-.1V92H77l-.1-.1h-.1v-.1h-.1v-.1h-.1l-.1-.1h-.2v-.2h-.1v-.1h-.1l-.1-.1h-.2v-.1h-.1V91h-.2v-.1h-.2v-.2h-.1l-.1-.1-.1-.1-.1-.1-.1-.1-.2-.1h-.3l-.1-.1h-.5l-.2.2h-.1l-.2.3-.1.2v1h.1v.4h.1v.5h.1v.6h.1v.9h.1v1l-1.4.8-.1-.1H72v-.1h-.1v-.1h-.1v-.1h-.1l-.1-.1v-.2h-.1l-.1-.1-.1-.1V95h-.1v-.1h-.1v-.1H71v-.1h-.1v-.1h-.1v-.1h-.1v-.1l-.1-.1h-.1v-.1h-.2V94h-.1v-.1h-.1v-.1H70v-.2h-.1v-.1h-.1v-.2h-.1l-.1-.1-.1-.1-.1-.1-.1-.1h-.2l-.1-.1h-.8v.2H68l-.1.3h-.1V98l-1.6.5v-.2h-.1v-.1L66 98h-.1l-.1-.1v-.1h-.1v-.1h-.1v-.1h-.1v-.1h-.2v-.3h-.1V97h-.1l-.1-.1v-.1h-.1v-.1h-.1v-.2h-.1v-.2h-.1V96H64.3v-.3h-.1v-.2h-.1v-.2H64l-.1-.1V95h-.2l-.1-.1h-.1l-.1-.1h-.5m-15.4-14-.5.2h-1l-.4-.1a.6.6 0 0 1-.2-.5V69.6l.2-.4.4-.2h1c.2 0 .4 0 .5.3a4.2 4.2 0 1 0 0-4.5l-.5.2h-1a.6.6 0 0 1-.5-.3A12 12 0 0 0 35.3 59h-23a2 2 0 0 0-1.6.8 2 2 0 0 0-.3 1.7 42 42 0 0 0 32.7 30.7 2 2 0 0 0 2.3-2v-4.7c0-.3.3-.6.6-.6h1c.2 0 .4 0 .5.3a4.2 4.2 0 1 0 0-4.5m33.3-26.2.2.5v1c0 .3-.3.5-.6.5H69.6l-.4-.1a.6.6 0 0 1-.2-.5v-1l.3-.4a4.2 4.2 0 0 0-2.3-7.8 4.2 4.2 0 0 0-2.3 7.7l.3.6v1s0 .3-.3.5A12 12 0 0 0 59 66.8v23c0 .6.3 1.2.8 1.5a2 2 0 0 0 1.7.4A42 42 0 0 0 92.3 59a2 2 0 0 0-2-2.4h-4.7a.6.6 0 0 1-.6-.6v-1l.3-.4a4.2 4.2 0 0 0-2.3-7.8 4.2 4.2 0 0 0-2.3 7.7m-26-33.2c0-.2.3-.3.5-.3h1l.4.2.1.4v10.8c0 .3-.3.6-.6.6h-1c-.2 0-.3 0-.4-.2a4.2 4.2 0 1 0-.1 4.5l.6-.3h1l.5.3A12 12 0 0 0 66.9 43h23c.5 0 1-.3 1.4-.7a2 2 0 0 0 .4-1.8A42 42 0 0 0 59 9.8a2 2 0 0 0-2.4 2v4.5c0 .4-.2.6-.6.6h-1c-.2 0-.3 0-.4-.2a4.2 4.2 0 1 0-.1 4.5M59 50.9a8 8 0 1 0-16 0 8 8 0 0 0 16 0m-21.7-3.4a.6.6 0 0 1-.3-.5v-1c0-.2.1-.4.3-.5A12 12 0 0 0 43 35.3v-23a2 2 0 0 0-2.5-2A42 42 0 0 0 9.8 43.2a2 2 0 0 0 2 2.3h4.5c.4 0 .6.3.6.6v1c0 .2 0 .4-.2.5-1.6 1-2.3 3-1.8 4.7a4.2 4.2 0 0 0 8 0 4 4 0 0 0-1.7-4.7.6.6 0 0 1-.3-.5v-1l.2-.4.4-.2h10.8l.5.2.1.4v1c0 .2 0 .4-.2.5-1.6 1-2.3 3-1.8 4.7a4.2 4.2 0 0 0 8 0 4 4 0 0 0-1.7-4.7"/>
</svg>
