<svg xmlns="http://www.w3.org/2000/svg" viewBox="0 0 151 151">
  <path fill="none" stroke="#333" d="M26.1 124.6h-.2l-.2-.1h-.1l-.2-.1h-.7l-.1.2h-.5v.2h-.4v.2h-.4l-.1.2h-.4v.2h-.5v.2h-.5v.2h-.5v.2l-1.1-1.2v-.1l.1-.1v-.1l.1-.1v-.2h.1v-.2h.1v-.2h.1v-.2h.1v-.2h.1v-.2h.1v-.2h.1v-.1l.1-.1v-.1h.1v-.2h.1v-.2h.1v-.1h.1v-.2l.1-.1.1-.2.1-.1v-.1h.1v-.2l.1-.1v-1l-.2-.1h-.2v-.1h-.1l-.1-.1h-1.2l-.2.2h-.5v.2h-.5l-.1.2h-.6v.2h-.6l-.1.2H17a4 4 0 0 1-1-1.1v-.1h.1v-.2h.1v-.1l.1-.1v-.1h.1v-.2h.1v-.1l.1-.1v-.1h.1v-.1l.1-.1v-.1h.1v-.2h.1v-.1h.1v-.2h.1v-.1l.1-.1v-.1h.1v-.1h.1v-.2h.1v-.1h.1v-.2h.1v-.1h.1l.1-.1v-.1l.1-.1v-.2h.1v-.3l.1-.1v-.5l-.2-.2-.1-.1-.1-.1h-.2l-.1-.1h-1.3v.2h-.8l-.1.2h-.9v.2h-1v.2h-.2l-.9-1.3h.1v-.2h.1v-.1h.1v-.2h.1v-.1h.1v-.1h.1v-.2h.1v-.1h.1v-.1l.1-.1v-.1h.1v-.1h.1v-.1h.1v-.2h.1v-.1h.1v-.1h.1v-.1h.1v-.1l.1-.1v-.1h.1v-.1h.1v-.1h.1v-.1h.1v-.2h.2v-.1l.1-.1v-.1l.1-.1.1-.2v-1h-.1l-.2-.1v-.1h-.2l-.1-.1h-1.9l-.1.2h-1.6v.2h-.9l-.7-1.3v-.1h.1v-.1l.1-.1v-.1h.1v-.1h.1v-.1h.1v-.1h.1v-.1l.1-.1.1-.1v-.1h.3v-.2h.1v-.1h.1v-.1h.1v-.1h.1v-.1h.1v-.1h.1v-.1h.1v-.1h.1v-.1h.1v-.1h.1v-.1h.1v-.1h.1v-.1l.2-.1v-.1h.1l.1-.2.1-.1.1-.2v-.1l.1-.1v-.7l-.1-.1-.2-.2h-.1l-.1-.1h-.1v-.1H7.1l-.6-1.3.1-.1v-.1h.1v-.1h.1v-.1h.1v-.1H7v-.1h.3v-.2h.1v-.1h.1l.1-.1.1-.1h.1v-.1h.1v-.1H8v-.1h.1v-.1h.2v-.2h.1v-.1h.2v-.1h.1v-.1h.1v-.1h.1l.1-.1.1-.1.2-.1.1-.1v-.2h.1l.1-.1v-.1h.1v-.2l.1-.1v-.9l-.2-.1-.1-.1h-.2v-.1h-.2v-.1H6.3v-.1H5v-.1h-.1l-.6-1.4h.1v-.1h.1v-.1h.1l.1-.1h.1v-.1h.1v-.2h.4v-.1l.1-.1h.1V96h.1v-.1h.1l.1-.1h.1v-.1H6v-.1h.1v-.1h.2v-.2h.2l.1-.1h.1V95H7v-.1h.3v-.2h.2v-.1l.1-.1.1-.1.1-.1.1-.2V94l.1-.1v-.6l-.1-.1V93l-.1-.1h-.1v-.1h-.2v-.1h-.2l-.1-.1h-.6l-.1-.1h-1l-.1-.1h-.7v-.2H3.5l-.1-.1h-.2l-.3-1.6H3v-.1h.1v-.2h.3v-.1h.1l.1-.1h.2l.1-.1H4v-.1h.1l.1-.1h.1v-.1h.2v-.1h.1v-.2H5v-.1h.1V89h.4v-.1h.1l.1-.1h.1l.2-.1.1-.1h.2v-.3h.1l.1-.1.1-.2v-.2h.1V87h-.2v-.2l-.2-.1-.1-.1H6v-.1h-.2l-.1-.1h-.6v-.1h-.5l-.1-.1h-.9v-.1h-.4l-.1-.1h-.4l-.1-.1h-.3v-.1h-.4l-.1-1.6v-.1H2V84h.1l.1-.1h.1v-.1h.2v-.1h.2v-.1h.2v-.1H3l.1-.1h.2v-.2h.1l.1-.1h.1l.1-.1h.1l.1-.1H4l.1-.1h.2v-.1h.2v-.1h.2l.1-.1h.1l.2-.1.1-.1h.1v-.1h.3V82h.1l.1-.1v-.2l.1-.1v-.4l-.1-.1V81h-.1v-.2h-.2l-.1-.1-.2-.1h-.1l-.1-.1h-.2l-.2-.1h-.3v-.1h-.4v-.1h-.4V80h-.7v-.1h-.3v-.1h-.2v-.1h-.4v-.1h-.2l-.1-.1h-.2v-.2h-.1v-1.5h.1l.1-.1h.1l.1-.1h.2v-.1h.2v-.2h.4l.1-.1h.2V77h.5v-.1h.4v-.1h.2v-.1h.3v-.1h.3l.1-.1h.2l.1-.1h.2v-.1h.1v-.1h.1V76l.2-.1v-.2l.1-.2V75l-.1-.1-.1-.2h-.1l-.1-.2H5l-.1-.1h-.1v-.1h-.4l-.1-.1h-.2V74h-.6v-.1h-.2l-.1-.1H3v-.1h-.2v-.1h-.2l-.1-.1h-.2v-.2h-.4l-.1-.1h-.1l-.1-.1h-.2V73h-.1v-1.7h.4v-.1h.2L2 71h.6l.1-.1h.2l.1-.1h.3v-.1h.3v-.1h.3l.1-.1h.3v-.2h.4l.1-.1H5V70h.3l.1-.1.2-.1.1-.1v-.1h.1v-.2h.1v-.2l.1-.1v-.4l-.1-.2-.1-.1-.1-.1-.1-.1h-.5v-.1h-.2l-.1-.1-.2-.1h-.1v-.1h-.2l-.1-.1h-.1l-.1-.1h-.2v-.1h-.2v-.1h-.2v-.2h-.2l-.1-.1H3V67h-.4v-.1h-.3v-.1l-.1-.1H2v-.1h-.2v-.1h-.1l.2-1.6h.4v-.1h.4v-.1h.4v-.1h.4v-.1H4v-.2h1.1v-.1h.5l.2-.1H6l.1-.1h.2v-.1l.1-.1v-.1l.2-.1v-.3l.1-.2v-.5l-.1-.1-.1-.1-.2-.1-.1-.1L6 62l-.1-.1h-.2v-.1h-.1v-.1h-.3v-.1h-.2v-.1h-.2v-.1h-.1v-.2h-.3l-.1-.1h-.1V61H4v-.1h-.2v-.1h-.1v-.1h-.2v-.1h-.1v-.1h-.1v-.2h-.2l-.1-.1h-.1V60l.3-1.5h.2v-.1h.5l.1-.1h.6v-.1h.9v-.1h1.3V58h.5l.2-.1.1-.1h.1v-.1h.2v-.2H8v-.1l.1-.2v-.6l-.1-.1v-.1h-.1v-.2h-.1l-.2-.1V56h-.5v-.1H7l-.1-.1h-.1v-.1h-.1v-.1h-.2v-.1h-.1v-.2h-.2v-.1h-.1V55H6l-.1-.1h-.1v-.1h-.1v-.1h-.1l-.1-.1h-.2v-.2h-.1v-.2H5l-.1-.1h-.1V54h-.2v-.1h-.1l.4-1.6h1.6l.1-.1h2.6l.1-.1h.2V52l.2-.1.1-.2.2-.2v-.6l-.1-.1v-.1l-.1-.1-.1-.1v-.2h-.4v-.1l-.1-.1L9 50v-.1h-.1v-.1h-.1v-.1h-.2v-.1h-.1v-.1h-.2v-.2h-.1v-.1h-.1V49H8l-.1-.1-.1-.1-.1-.1h-.1v-.1h-.1v-.1h-.2v-.2h-.2v-.1H7V48h-.2v-.1h-.1v-.1h-.1l.6-1.5h4.7l.1-.1h.1l.1-.2.1-.1v-1h-.1l-.1-.1-.1-.1-.1-.2h-.2v-.2h-.4V44h-.1v-.1h-.1v-.1H11v-.1h-.1v-.1h-.1v-.1h-.1v-.2h-.2v-.1h-.2V43h-.1v-.1h-.1v-.1l-.1-.1-.1-.1v-.1h-.1v-.2h-.2v-.1h-.1V42l-.1-.1v-.1h-.1l.7-1.5h1.6v.2h1.3v.2h1.9l.1-.1h.1l.1-.2v-1l-.1-.2-.1-.1-.2-.1-.1-.2h-.3v-.2h-.1v-.1h-.1v-.2l-.1-.1V38h-.2v-.1h-.1v-.1l-.1-.1v-.1h-.1v-.1h-.2v-.2h-.1v-.1h-.1V37H13v-.2h-.1v-.1h-.1v-.1l-.1-.1v-.1h-.1v-.2l-.1-.1.8-1.4h1.1l.1.2h.8v.2h.8v.2h.7l.2.2h1.1v-.1l.2-.1v-.1l.1-.1V35l.1-.2v-.5h-.2v-.1h-.1V34l-.1-.1v-.1H18v-.2h-.1v-.1h-.1v-.1h-.1v-.2h-.1v-.1h-.1V33l-.1-.1v-.1h-.1v-.1h-.1v-.2h-.1v-.1l-.1-.1v-.1h-.1V32h-.2v-.2h-.1v-.2h-.1v-.1h-.2V31h-.1v-.2h-.1l1-1.3h.6l.1.2h.5l.1.2h.7v.2h.4l.1.2h.6l.1.2h.5v.2h.9l.2-.1v-.2h.1v-.2h.1v-1H22V29h-.1l-.1-.1-.1-.2-.1-.1v-.1h-.1v-.2h-.2V28h-.1v-.2h-.1v-.2H21v-.3h-.1V27h-.1v-.2h-.1v-.2h-.1v-.2h-.1v-.2h-.2v-.5h-.1l1-1.2h.5v.2h.6l.1.2h.4l.1.2h.4v.2h.5v.2h.4v.2h.3l.2.2h.4v.2h.9V26l.2-.1v-.2h.1v-.2l.1-.1v-.8h-.1v-.2l-.1-.1v-.1h-.1V24H26v-.2h-.1v-.2h-.1v-.2l-.1-.1v-.1h-.1V23h-.3v-.5h-.1v-.2h-.1V22H25v-.2l-.1-.1v-.2l-.1-.1v-.1l1-1.1h.5v.2h.4v.2h.4v.2h.4v.2h.3l.1.2h.3v.2h.2l.1.1.1.1h.1l.1.1h.1v.1h.2v.1h.1l.1.1h.2v.1h.9l.2-.2.1-.2h.1v-1.2h-.1v-.2l-.1-.2V20l-.1-.1v-.2h-.2V19h-.1v-.3h-.1v-.3H30V18h-.1v-.3h-.1v-.4h-.1V17c.3-.4.8-.7 1.2-1h.3v.2h.3v.2h.3l.1.2h.3v.2h.3v.2h.3v.2h.3v.2h.3v.2h.3v.2h.1l.2.2h.2l.2.2h.9l.1-.1.1-.1.1-.1v-.1l.1-.1v-1.1l-.1-.2v-.1l-.1-.1v-.4h-.2v-.9h-.1v-.4l-.1-.1V14l-.1-.1v-.5h-.1v-.1l1.3-1v.2h.3v.2h.3v.2h.3v.2h.3v.2h.2v.2h.3v.2h.2v.2h.3v.2h.2v.2h.2l.1.2.1.2h.3l.1.2h1.4v-.2h.1v-.2h.1V13l-.1-.1v-.6l-.1-.1v-.6l-.1-.1v-.8l-.1-.1v-.7l1.3-.7h.3v.2h.2v.2h.2v.2h.3v.2h.1v.3h.3v.2h.2v.2h.2v.2h.2v.2h.2l.1.2h.1v.2h.1l.1.2h.2v.2h.2l.2.2h1v-.2h.2v-.3h.1V9l-.1-.1V7l1.4-.5h.2v.2h.2V7h.2v.4h.3v.2h.1v.2l.2.1V8h.2v.3h.4v.2l.2.2V9h.2v.2l.2.2h.2v.2h.2v.2h1.2l.1-.1.2-.1v-.3h.1V6.7l.1-.1V5.3h.1v-.4l1.5-.6h.1v.2h.2v.2h.1l.1.2h.1v.4h.2l.1.2h.1v.2h.1l.1.2.2.2v.2h.1v.2h.2v.3h.2v.3h.1v.2h.2l.1.3h.1l.1.2h.1l.2.2h1l.1-.1v-.1h.1l.1-.2v-.3l.1-.1V7l.1-.2V5.6h.1v-1h.1V4h.1v-.6h.1V3l1.6-.3h.1V3h.1v.3h.1v.2h.2v.2h.1V4H61v.2h.1l.1.2h.1v.3h.1l.1.2h.1v.3h.1v.2h.1l.1.2h.1V6h.1l.1.2h.1v.2h.3v.2h.9v-.1h.2l.1-.2.1-.1.1-.2v-.1l.1-.1v-.6h.1v-.6h.1V4h.1v-.4l.1-.1v-.4h.1v-.4h.1v-.4l.1-.1V2h.1v-.1l1.6-.2.1.2h.1v.4h.1v.2h.1l.1.2.1.2h.1v.4h.1v.2h.1v.2h.1v.2h.1V4h.1v.2h.1v.2h.1v.2h.1V5h.1v.2h.2v.3h.2l.1.2h.4l.1.2h.4l.1-.1h.1l.1-.1.1-.2h.1v-.2l.1-.2.1-.1v-.2h.1v-.5l.1-.1v-.3h.1v-.4h.1v-.2h.1v-.4l.1-.1v-.2l.1-.1v-.2h.1V2h.1v-.3h.1v-.3h.1v-.1l1.6-.1h.1v.3h.1v.2h.1V2h.1v.3h.1v.2h.1v.4h.1V3h.1v.2h.1v.3h.1v.3h.1v.3h.1v.3h.1v.2h.1V5l.1.2h.1l.1.3h.1l.1.2h1.1v-.3h.2V5h.1v-.2h.1v-.2h.1v-.2l.1-.1V4h.1v-.2l.1-.1v-.2h.1v-.3h.1V3h.1v-.2h.1v-.2h.1v-.2l.1-.1V2h.1v-.2h.1v-.2h.1v-.2l.1-.1v-.1h1.7v.4h.1V2h.1v.3h.1v.3h.1v.3h.1v.3h.1v.3h.1v.4h.1v.3h.1v.5h.1V5h.1v.3h.1l.1.3h.2v.2h.4l.2.2h.4v-.1h.2v-.1l.1-.1.1-.1v-.3h.1V5h.1l.1-.1v-.1l.1-.2v-.1h.1v-.2h.1V4h.1v-.2h.1v-.2l.1-.1v-.1h.1v-.2h.1V3h.1v-.2h.1v-.2h.1v-.2h.1v-.1l.1-.1h.1V2h.1v-.2h.1v-.1l1.6.2v.4h.1v.4h.1v.4h.1v.4h.1V4h.1v.5h.1V5h.1v.6h.1V6h.1v.2h.2v.2h.1l.1.2h1.1v-.1l.1-.3h.1l.1-.1.1-.2.1-.1.1-.2v-.1h.1v-.3h.1l.1-.1V5h.1v-.2h.1v-.1l.1-.1v-.1h.1v-.3h.1l.1-.1V4h.1l.1-.1v-.1h.1v-.1l.1-.1v-.1h.1v-.2h.1v-.1h.1V3h.1v-.2h.1l1.6.3v.7h.1v.6h.1v.8h.1v1l.1.2v.8h.1v.2h.1v.2h.1l.1.2h.2l.2.2H94.2l.1-.1.1-.1h.1v-.2h.1v-.3h.1V7h.1l.1-.1.1-.1v-.1h.1v-.1l.1-.1v-.1h.1v-.1h.1V6h.2v-.1h.1v-.2h.1v-.1h.1v-.1h.1v-.1l.1-.1h.1v-.1h.1V5h.1l.1-.1.1-.1v-.1h.1v-.1h.1v-.1l1.6.4V6h.1v3l.1.2h.1l.1.3h.3l.1.3h.7v-.1h.1l.2-.2h.1v-.1l.2-.1v-.1l.1-.1.2-.2v-.1h.1v-.1h.1v-.1l.1-.1.1-.1v-.2h.2v-.1h.1V8h.2v-.1l.1-.1h.1v-.1l.1-.1.1-.1.1-.1v-.1h.1v-.1h.1V7h.2v-.1h.1v-.1h.1v-.1h.1v-.1l1.5.6v3.3h-.1v1.2l.1.2h.1l.1.2h.1l.1.2h.9l.1-.1h.1V12l.1-.1h.1v-.1h.1l.1-.2h.1l.1-.2h.1v-.2h.1v-.1h.1V11h.2v-.1h.1v-.1h.1v-.1h.1v-.1h.1v-.1h.1v-.2h.2l.1-.1V10H108.1v-.1h.1v-.1h.1v-.1h.1v-.1h.1l.1-.1h.1v-.2h.1l1.5.7v.7h-.1v1h-.1v.7h-.1v.6h-.1v.4l-.1.2v1l.2.2.1.2h1.4v-.1h.1v-.2h.2v-.1l.2-.1v-.2h.1v-.1h.1V14H112.5v-.1h.1v-.1h.1l.1-.1h.1v-.1h.1v-.1h.1v-.2h.1l.1-.1h.1V13h.2l.1-.1h.1v-.1h.1l.1-.1h.1v-.1h.1v-.1h.1l.1-.1h.1l1.3.8v.7h-.1v.5h-.1v.4h-.1v.5h-.1v.4h-.1v.4h-.1v.5h-.1v.3h-.1v1l.1.2.1.2h.5l.1.2h.5l.1-.1h.1v-.1h.2v-.1h.1l.1-.1.2-.1v-.1h.1v-.1h.2v-.1h.1v-.1h.2v-.3h.2l.1-.1h.1V17H118.4v-.1h.2v-.1h.1l.1-.1h.1v-.1h.2v-.1h.1l.1-.1h.1v-.1h.2v-.1h.2V16l1.3 1v.2h-.1v.4h-.1v.4h-.1v.4h-.1v.3h-.1v.3h-.1v.2h-.1v.4h-.1v.3h-.1v.2h-.1v.2l-.1.2v.2h-.1v.8h.1v.3h.4l.1.2h.9l.1-.1.2-.1.1-.1h.1v-.1h.1l.1-.1h.1v-.1h.2v-.2h.3l.1-.1h.1V21h.4v-.1h.2v-.1h.2v-.1h.2v-.1h.2v-.1h.2v-.2h.2l.1-.1h.2V20l1.2 1v.5h-.1v.2h-.1v.3h-.1v.2h-.1v.2h-.1v.4h-.1v.2h-.1v.2h-.1v.3h-.1v.2h-.1v.2h-.1v.2h-.1v.2h-.1l-.1.3-.1.2v.2l-.1.2v.5l.1.2.2.2h.4v.2h.7l.2-.1h.1l.1-.1h.1l.1-.1H126.7v-.1h.2v-.1h.2l.1-.1h.2v-.1h.2v-.3h.2l.1-.1h.2V25h.2l.1-.1h.2v-.1h.4v-.1h.2l.1-.1h.2l1.1 1v.5h-.1v.2h-.1v.2h-.1v.2h-.1v.2h-.1v.2h-.1v.2h-.1v.2h-.1v.2h-.1v.2h-.1v.2h-.2v.3h-.1v.2h-.1l-.1.2h-.1v.3h-.1v.2h-.1v.2h-.1v.8l.2.2h.2l.2.2h1l.1-.1h.2v-.1h.3v-.1h.2l.1-.1h.2v-.1h.3v-.1h.3V30h.3l.1-.1h.3v-.1h.3v-.1h.4v-.1h.3c.4.3.7.8 1 1.2l-.1.2h-.1v.3h-.1v.2h-.2v.3h-.1v.2h-.2v.3h-.2v.3h-.2v.3h-.2v.3h-.2v.2h-.1v.2h-.2v.3h-.1l-.1.2-.1.2v1h.2l.1.2h1.7v-.1h.4l.1-.1h.3l.1-.1h.4v-.1h.4l.1-.1h.4l.1-.1h.5v-.1h.2l.9 1.3h-.1v.2h-.1l-.1.2h-.1v.2h-.1v.2h-.2v.2h-.1v.2h-.2v.2h-.1v.2h-.2v.2h-.1l-.1.2h-.1v.2h-.2v.2h-.1l-.1.2h-.1l-.1.2h-.2v.3h-.1v.3h-.1v1h.1l.1.2h.2l.2.2h1.4l.1-.1h.5l.1-.1h.7v-.1h.9v-.1h.7l.8 1.3h-.1v.2h-.2v.2h-.2v.2h-.1l-.1.2h-.1v.2h-.2v.2h-.2v.2h-.1l-.1.2h-.1l-.1.2h-.1l-.1.2h-.1l-.1.2h-.1l-.1.2h-.2v.2h-.1l-.1.2-.2.2v.2h-.1v.2h-.1v.7h.1v.2h.2v.2h2.8v-.1h1.9l.6 1.4h-.1v.2h-.2v.2h-.2v.2h-.2v.2h-.2v.2h-.2v.2h-.3v.2h-.2v.2h-.2v.2h-.2v.2h-.3v.2h-.2l-.2.2-.2.2v.2h-.2v.3h-.1v.8h.1v.2h.2v.2h2.8v.2h1.7l.6 1.6h-.2v.2h-.2v.2h-.3v.2h-.2v.2h-.2l-.1.2h-.2v.2h-.3v.2h-.3v.2h-.2l-.1.2h-.2l-.2.2h-.1l-.1.2h-.2v.2h-.2v.2h-.1v.2h-.1v.2h-.1v.6h.1v.2h.2l.1.2h.2l.1.2h1.7v.2h1.5v.2h.9l.4 1.7h-.3v.2h-.3v.2h-.2l-.1.2h-.3v.2h-.3v.2h-.3v.2h-.3v.2h-.4v.2h-.3l-.1.2h-.3l-.1.2h-.2v.2h-.1l-.1.2-.1.3v.2h-.1v.4h.1l.1.3h.2l.1.2h.3l.1.2h1.1v.2h.9l.1.2h.8v.2h.8v.2h.1l.2 1.6h-.3v.2h-.4v.2h-.3v.2h-.4v.2h-.4v.2h-.4v.2h-.4v.2h-.4l-.2.2h-.3v.2h-.2v.2h-.2v.3h-.1v.3l-.1.2v.2h.1v.2h.2v.2h.3v.2h.5l.1.2h.7v.2h.7v.2h.6l.1.2h.5l.1.2h.5v.2h.1l.1 1.6h-.3v.2h-.4l-.1.2h-.4v.2h-.5v.2h-.7v.2h-.5l-.1.2h-.5l-.1.2h-.3l-.1.2h-.2v.2h-.1v.2h-.1v.2h-.1v.6h.1v.2h.1v.2h.3l.1.2h.5v.2h.8v.2h.5v.2h.5v.2h.5v.2h.4v.2h.4l.1.2h.2v1.8h-.8v.2h-.6v.2h-.6v.2h-.6v.2h-.9v.2h-.6l-.1.2h-.2v.2h-.2v.3h-.1v.2h-.1v.5h.1l.1.3h.1l.1.2h.2l.2.2h.3v.2h.4v.2h.4l.1.2h.3l.1.2h.3l.1.2h.3v.2h.4v.2h.3v.2h.3l-.2 1.7h-.6v.2h-.8v.2h-1v.2H145v.2h-.5l-.2.2h-.1v.2h-.1v.2h-.2v.7h.1v.2h.1l.1.2h.2v.2h.2l.1.2h.3v.2h.4v.2h.3v.2h.3l.1.2h.3v.2h.2l.1.2h.2l.1.2h.3v.2h.2l.1.2h.1l-.3 1.7h-1.3v.2h-1.8l-.2.2h-.9l-.1.2h-.1l-.2.2v.2h-.2v.9h.1l.1.2h.1l.1.2h.2l.1.2h.2l.1.2h.2v.2h.3v.2h.3v.2h.2l.1.2h.2v.2h.3v.2h.2v.2h.3v.2h.2v.2h.2c0 .7-.3 1-.4 1.7h-4.2l-.1.2h-.3v.2h-.2v.3h-.1v.9h.1l.1.3h.1l.1.2h.3v.3h.3v.2h.3v.2h.2v.2h.2v.2h.2l.1.2h.2v.2h.2v.2h.2v.2h.2v.2h.2v.2h.2l-.6 1.6h-3.1l-.1-.1h-1.3l-.1.2h-.1v.2h-.2v.9h.1v.2h.1l.1.2h.1l.1.2h.1l.1.2h.1v.2h.2v.2h.2v.2h.2v.2h.2v.2h.2v.2h.2v.2h.1l.1.2h.1v.2h.2v.2h.2v.2h.1v.2h.1l-.7 1.5h-.7v-.1h-1v-.1h-.7v-.1h-.6v-.1h-.4l-.2-.1H136l-.1.2h-.3v1.2h.1l.1.3h.1l.1.2h.2v.3h.2v.2h.1l.1.2h.1v.2h.2v.2h.1v.2h.2v.2h.1l.1.2h.1v.2h.1v.2h.2v.3h.2v.2h.1v.2l-.8 1.3h-.7v-.1h-.5v-.1h-.4l-.1-.1h-.4v-.1h-.4v-.1h-.4v-.1h-.3l-.1-.1h-.2l-.2-.1h-1l-.1.2h-.1l-.1.3v1h.1v.2h.1l.1.2.1.2h.2v.2h.1v.2h.2v.3h.2v.3h.1l.1.2h.1v.3h.2v.3h.1l.1.2h.1v.3h.1l.1.2h.1v.2l-1 1.3h-.2v-.1h-.4v-.1h-.3l-.1-.1h-.2v-.1h-.4v-.1h-.3v-.1h-.3v-.1h-.3v-.1h-.3v-.1h-.2l-.1-.1h-.2v-.1h-.2l-.1-.1h-1l-.1.2-.1.2-.1.2v.8h.1v.2l.1.2h.1v.2h.2v.3h.1v.2h.2v.3h.1v.2h.1v.2h.1v.2h.1v.2h.1v.2h.1v.2h.1v.2h.1v.2h.1v.2h.1v.2h.1l-1 1.3h-.2l-.1-.1h-.2v-.1h-.4v-.1h-.2l-.1-.1h-.2v-.1h-.2l-.1-.1h-.2v-.1h-.2v-.1h-.2l-.1-.1h-.2v-.1h-.2v-.1h-.2v-.1h-.2v-.1h-.2v-.1h-.2l-.1-.1h-.2l-.2-.1h-.7l-.1.2-.1.2-.1.2v.2h-.1v.6l.1.2h.1v.3h.1v.2h.1v.2h.1v.2h.1v.2h.1v.2h.1v.3h.1v.2h.1v.3h.1v.2h.1v.3h.1v.2h.1v.3h.1v.3h.1l-1.2 1h-.4v-.1h-.2v-.1h-.2v-.1h-.2v-.1h-.2v-.1h-.2v-.1h-.2v-.1h-.2v-.1h-.2v-.1h-.1l-.1-.1h-.1v-.1h-.2v-.1h-.2v-.1h-.1l-.1-.1-.2-.1-.1-.1h-.1l-.2-.1h-.1l-.1-.1h-.8l-.1.3-.1.2-.1.2v.9h.1v.3h.1v.2h.1v.3h.1v.2h.1v.4h.1v.2h.1v.4h.1v.3h.1v.4h.1v.3h.1v.4a4 4 0 0 1-1.2 1h-.1v-.1h-.2v-.1h-.2v-.1h-.1l-.1-.1h-.1v-.1h-.2v-.1h-.1l-.1-.1h-.1v-.1h-.2v-.1h-.1v-.1h-.1l-.1-.1h-.1v-.1h-.2v-.1h-.1v-.1h-.1l-.1-.1h-.1v-.1h-.1v-.1h-.2v-.1h-.1v-.1h-.1l-.1-.1h-.1v-.1h-.2v-.1h-1.1v.2h-.2v.3h-.1v1h.1v.5h.1v.4h.1v.4h.1v.4h.1v.5h.1v.5h.1v.5h.1v.3l-1.3.9-.1-.1h-.1v-.1h-.1l-.1-.1h-.1v-.1h-.1v-.1h-.1l-.1-.1h-.1v-.1h-.1v-.1h-.2v-.1h-.1v-.1h-.1v-.1h-.1l-.1-.1h-.1v-.1h-.1v-.1h-.1v-.1h-.1l-.1-.1h-.1v-.1h-.1v-.1h-.1v-.1h-.1l-.1-.1v-.1h-.2v-.1h-.1v-.2h-.2l-.1-.1h-.2v-.1h-1v.2h-.1l-.1.2v.2h-.1v1.4h.1v.6h.1v.6h.1v.9h.1v.9l-1.3.8v-.1h-.1l-.1-.1h-.1v-.1h-.1v-.1h-.1v-.1h-.1v-.1h-.1l-.1-.1h-.1v-.1h-.1v-.1h-.1v-.1h-.1v-.1h-.1v-.1h-.1v-.1h-.1v-.1h-.1v-.1h-.1v-.1h-.1v-.1h-.1v-.1h-.1v-.1h-.1v-.1h-.1v-.1h-.1v-.1h-.1l-.1-.2h-.1v-.1h-.1v-.1h-.2v-.2h-.3v-.1h-.2l-.1-.1h-.7l-.2.3-.1.2-.1.2v2h.1v2.3l-1.4.6h-.1v-.1h-.1v-.1h-.1v-.1h-.1v-.1h-.1v-.1h-.1v-.1h-.1v-.1h-.1v-.1h-.1v-.1h-.1v-.1h-.1v-.1l-.1-.1v-.1h-.1v-.1h-.1v-.1h-.1v-.1h-.1v-.1h-.1v-.1h-.1v-.1l-.1-.1v-.1h-.1v-.1h-.1v-.1l-.1-.1-.1-.1-.1-.2h-.1l-.1-.2h-.1l-.1-.1-.2-.1-.1-.1h-1v.3h-.1l-.1.2-.1.2v2.6h-.1v1.3h-.2l-1.5.7v-.1h-.1v-.1h-.1v-.1h-.1v-.1l-.1-.1-.1-.1v-.2h-.1v-.1h-.1v-.1l-.1-.1v-.1h-.1v-.1h-.1v-.1l-.1-.1v-.1h-.1v-.1h-.1v-.1l-.1-.1v-.1h-.1v-.1l-.1-.1v-.1h-.1v-.1H95v-.1l-.1-.2-.1-.1v-.1h-.1v-.2h-.2v-.2h-.2v-.1h-.2v-.1h-.2l-.1-.1h-.7l-.1.3h-.1l-.1.3h-.1v.7l-.1.2v1l-.1.2v.7h-.1v.7h-.1v.6h-.1v.2l-1.6.4v-.1l-.1-.1v-.1h-.2v-.1l-.1-.1v-.1h-.1v-.1H90v-.2h-.1v-.1h-.1v-.2h-.1v-.1l-.1-.1v-.1h-.1v-.1l-.1-.1v-.1h-.1v-.2l-.1-.1v-.1h-.1v-.2H89v-.2h-.1v-.1l-.1-.1v-.2h-.1v-.1l-.1-.1-.1-.2h-.2l-.1-.1-.1-.1h-.2v-.1h-.2l-.2-.1h-.4v.2h-.2v.2h-.1v.2l-.1.2-.1.2v.6h-.1v.6h-.2v.9h-.1v.4h-.1v.4H86v.3h-.1v.4l-1.6.2h-.1v-.2h-.1v-.1l-.1-.1v-.1h-.1v-.2h-.1v-.2h-.1v-.1l-.1-.1v-.1l-.1-.1v-.1h-.2v-.4l-.1-.1v-.1l-.1-.1v-.1H83v-.2l-.1-.1v-.2h-.1v-.2l-.1-.1v-.2h-.1v-.1l-.1-.1v-.1h-.2v-.2l-.2-.1v-.1h-.2l-.1-.1h-.2l-.1-.1H81v.3h-.2l-.1.2h-.1v.3h-.1v.4h-.1v.5h-.1v.4h-.1v.3h-.1v.4H80v.3h-.1v.3h-.1v.3h-.1v.3h-.1v.3h-.1v.2h-.2l-1.6.2v-.1h-.1v-.2l-.1-.1v-.1l-.1-.1v-.2h-.1v-.4h-.1v-.5h-.1v-.2H77v-.3h-.1v-.2l-.1-.1v-.2h-.1v-.3h-.1v-.2l-.1-.1v-.2h-.2v-.2l-.1-.1v-.1h-.1v-.2h-.2l-.1-.1-.2-.1-.2-.1h-.6l-.2.2v.2h-.2v.2h-.1v.2h-.1v.3l-.1.2-.1.2v.2h-.1v.4h-.1v.2h-.1v.3h-.1v.2h-.1v.3h-.1v.2h-.1v.4h-.1v.3h-.1v.2H73v.2h-1.7v-.4h-.1v-.2l-.1-.1v-.2H71v-.5h-.1v-.3h-.1v-.3l-.1-.1v-.3h-.1v-.3h-.1v-.4h-.2v-.8h-.1v-.2l-.1-.1-.1-.2h-.1l-.1-.2h-.2v-.1h-.3l-.1-.1h-.6v.2h-.2l-.1.2-.1.2-.1.2-.1.2h-.1v.3h-.1v.5h-.1v.2h-.1v.2h-.1v.2h-.1v.2h-.1v.4h-.1l-.1.2-.1.2h-.1v.3h-.1v.2h-.1l-.1.2h-.1v.2l-1.6-.2v-.5h-.1v-.4h-.1v-.4h-.1v-.4h-.1v-.4l-.1-.1v-.5h-.1v-.6h-.1v-.5l-.1-.2v-.2l-.1-.1-.1-.2-.1-.1h-.1l-.1-.1h-.1l-.1-.2h-.8v.2h-.2l-.1.3h-.1l-.1.2H62v.2l-.1.2h-.1v.2h-.1v.2h-.1v.2h-.1l-.1.2h-.1v.3h-.2v.3H61l-.1.2h-.1v.2h-.1v.2h-.1l-.1.2h-.2v.4h-.2l-1.5-.2v-.2h-.1v-.5l-.1-.1v-.6h-.1v-.7h-.1V144l-.1-.1v-.7H58v-.1l-.1-.1v-.1h-.1v-.2h-.2l-.1-.2h-1v.2h-.2v.2h-.2v.2H56l-.1.3h-.1v.2h-.2v.3h-.3v.2h-.1v.2h-.1l-.1.2h-.1v.2h-.2v.2h-.1v.2h-.2v.2h-.1l-.1.2h-.1v.2h-.2v.2h-.1c-.6 0-1-.2-1.6-.3v-1.4h-.1v-2.8l-.1-.1v-.1l-.1-.2h-.1v-.1l-.2-.1-.2-.1h-.9l-.1.2h-.1l-.1.2h-.1v.2h-.2v.2h-.2v.2h-.1v.2h-.2v.2h-.1v.2h-.1l-.1.2H49l-.1.2h-.1v.2h-.2v.2h-.3v.2h-.1v.2H48v.2h-.2v.2l-1.5-.6v-3h.1v-1.5h-.1v-.1l-.1-.1v-.1H46v-.2h-1.1v.2h-.2l-.2.2-.2.2h-.1v.2h-.1l-.1.2h-.1l-.1.2h-.1l-.1.2h-.3v.2h-.1v.2H43v.2h-.2v.2h-.2l-.1.2h-.2v.2h-.2v.2h-.2l-1.5-.6v-.5l.1-.1v-1h.1v-.6h.1v-.6h.1v-.5h.1V136l-.1-.1-.1-.1-.2-.2h-1.2v.2h-.2l-.1.2-.2.2h-.2v.2h-.3v.2H38v.2h-.2v.2h-.3v.2h-.2l-.1.2H37v.2h-.3v.2h-.3v.2h-.2l-1.4-.7v-.6h.1v-.5h.1v-.5h.1v-.4h.1v-.4h.1v-.4h.1v-.2l.1-.1v-.3h.1v-1.2h-.1l-.1-.1-.1-.1-.1-.1H34l-.1.2h-.3v.2h-.2v.2h-.3v.2h-.3v.2h-.3v.2h-.2v.2H32v.2h-.3l-.1.2h-.3v.2H31v.2h-.1l-1.3-1v-.1l.1-.1v-.4h.1v-.4h.1v-.3l.1-.1v-.2l.1-.1v-.3h.1v-.3h.1v-.2l.1-.1v-.2h.1v-.3l.1-.1v-.2h.1v-.2l.1-.1v-1h-.1l-.1-.1-.2-.1-.2-.1H29v.2h-.2l-.2.2h-.2v.2h-.3v.2h-.4v.2h-.4v.2h-.2l-.1.2h-.4v.2h-.5v.2h-.3l-1.2-1v-.1h.1v-.4h.1v-.3h.1v-.2h.1v-.3h.1v-.2h.1v-.3h.1v-.2h.1v-.2h.1v-.2l.1-.1v-.2h.1v-.2h.1v-.2h.1v-.2h.1v-.2l.1-.1v-.2h.1v-.8l-.1-.1-.1-.1m69.3-17.3a4 4 0 1 0-8 0 4 4 0 0 0 8 0m16-16a4 4 0 1 0-8 0 4 4 0 0 0 8 0m-32 16a4 4 0 1 0-8 0 4 4 0 0 0 8 0m16-16a4 4 0 1 0-8 0 4 4 0 0 0 8 0m16-16a4 4 0 1 0-8 0 4 4 0 0 0 8 0m-48 32a4 4 0 1 0-8 0 4 4 0 0 0 8 0m16-16a4 4 0 1 0-8 0 4 4 0 0 0 8 0m16-16a4 4 0 1 0-8 0 4 4 0 0 0 8 0m16-16a4 4 0 1 0-8 0 4 4 0 0 0 8 0m-28 16a8 8 0 1 0-16 0 8 8 0 0 0 16 0m-20 16a4 4 0 1 0-8 0 4 4 0 0 0 8 0m32-32a4 4 0 1 0-8 0 4 4 0 0 0 8 0m-48 32a4 4 0 1 0-8 0 4 4 0 0 0 8 0m16-16a4 4 0 1 0-8 0 4 4 0 0 0 8 0m16-16a4 4 0 1 0-8 0 4 4 0 0 0 8 0m16-16a4 4 0 1 0-8 0 4 4 0 0 0 8 0m-16 0a4 4 0 1 0-8 0 4 4 0 0 0 8 0m-16 16a4 4 0 1 0-8 0 4 4 0 0 0 8 0m-16 16a4 4 0 1 0-8 0 4 4 0 0 0 8 0m16-32a4 4 0 1 0-8 0 4 4 0 0 0 8 0m-16 16a4 4 0 1 0-8 0 4 4 0 0 0 8 0"/>
</svg>
