<svg xmlns="http://www.w3.org/2000/svg" viewBox="0 0 118 118">
  <path fill="none" stroke="#333" d="M25.9 101.3h-.2l-.2-.1h-1.1l-.1.2h-.2v.2h-.3v.2h-.3v.2h-.4v.2h-.3l-.1.2h-.3v.2h-.3v.2h-.4v.2h-.4a4 4 0 0 1-1.2-1v-.3l.1-.1v-.2h.1v-.3h.1v-.3h.1v-.2h.1v-.3h.1v-.2h.1v-.2l.1-.1v-.2h.1v-.2h.1v-.1h.1V99h.1v-.2h.1v-.1l.1-.2v-.1l.1-.1v-1h-.1l-.2-.1-.1-.1h-.1L21 97h-1.2v.2h-.3v.2h-.4v.2h-.5v.2H18v.2h-.5v.2h-.6v.2h-.4c-.4-.2-.8-.6-1-1V97h.1v-.2h.1v-.2h.1v-.2h.1v-.2h.1V96h.1v-.2h.1v-.1l.1-.1v-.1h.1v-.3h.1V95h.1l.1-.1v-.1h.1v-.2h.1v-.1h.1v-.1l.1-.1h.1V94h.1l.1-.2V93l-.1-.2-.1-.1-.1-.1h-.2v-.1h-1.3v.2H15v.2h-.6v.2h-.7v.2h-.8l-.1.2h-.4l-1-1.2.1-.1V92h.1v-.2h.1v-.1l.1-.1v-.1h.1v-.1l.1-.1v-.1h.1V91h.2v-.1l.1-.1v-.1h.1v-.1h.1v-.3h.2v-.1h.1V90h.1v-.1h.1v-.1h.1v-.1l.1-.1.1-.1.1-.1v-.1h.1v-.1l.1-.1.1-.1v-.2l.1-.2V88l-.1-.1h-.1l-.1-.2-.2-.1h-.1l-.1-.1h-1.4v.2h-1.1v.2H9.3l-.1.2h-.4L8 86.8v-.1h.3v-.2l.1-.1v-.1h.1v-.1h.1V86h.2v-.2h.1v-.1H9v-.1h.1v-.1h.2v-.2h.1v-.1l.1-.1.1-.1v-.1h.1v-.1h.1v-.1h.1v-.1h.1v-.1h.1v-.2h.2l.1-.1.1-.2h.1l.1-.1.1-.2.1-.1v-.1l.1-.1v-.8h-.1v-.3h-.3v-.1h-.3l-.1-.1H7.3v.2H5.9l-.6-1.4v-.1h.1v-.1h.1v-.1h.1v-.1h.1v-.2h.2v-.1H6V80h.3v-.2h.1v-.1h.1v-.1h.1v-.1h.1v-.1h.1v-.2H7l.1-.1h.2V79h.1v-.1h.1l.1-.1h.1v-.1h.1v-.1H8v-.1l.1-.1h.2v-.1l.1-.1V78h.1v-.2h.1v-.4h.1V77l-.1-.1v-.1l-.1-.1-.1-.1-.1-.1h-.1v-.1h-.4l-.1-.1H4.8v-.1h-.9v-.1h-.2l-.4-1.5h.1v-.1h.1v-.1h.1v-.2h.2l.1-.1H4V74H4.3v-.1l.1-.1h.1v-.1h.1v-.1h.2v-.1h.1v-.2H5l.1-.1h.2V73H5.6v-.1h.2v-.1h.1v-.1h.2v-.1h.1l.2-.1.1-.1.2-.1h.1v-.1l.1-.1.1-.2v-.2l.1-.2V71H7v-.1l-.1-.1-.2-.1v-.1h-.4v-.1h-.2v-.1h-1v-.1H3.8v-.1h-.5l-.1-.1h-.4V70h-.4v-.1h-.3c0-.6-.2-1-.3-1.6h.1l.1-.1h.3V68H2.6v-.1h.2v-.1h.1l.1-.1h.1v-.1h.2v-.1l.1-.1h.1v-.1h.2v-.1h.2V67h.4v-.1h.2v-.1h.2v-.1h.4v-.1h.2v-.1l.1-.1.2-.1v-.1h.1V66l.1-.1.1-.2v-1h-.1l-.1-.1-.1-.1-.2-.1-.1-.1h-.4l-.1-.1h-.9v-.1h-.3l-.1-.1H2.9l-.1-.1h-.3v-.1h-.2v-.1H2l-.1-.1h-.2v-.1h-.3v-.2h-.1v-1.5h.2v-.1h.2v-.1h.2v-.1h.2v-.2h.4l.1-.1h.2V61h.5v-.1h.2v-.1h.4v-.1h.3v-.1h.3v-.1h.2l.1-.1H5l.1-.1h.1v-.1h.1V60l.1-.1v-.1l.1-.1v-.1l.1-.1v-.7h-.1v-.2h-.2l-.1-.1-.1-.1H5l-.1-.1h-.1l-.2-.1h-.2v-.1h-.3V58h-.5l-.1-.1h-.2v-.1H3v-.1h-.2v-.1h-.2v-.1h-.2l-.1-.2h-.4v-.1h-.2V57h-.4v-1.7h.4v-.1H2V55h.6v-.1h.3v-.1h.3l.1-.1h.3v-.1H4v-.1h.3v-.2h1v-.1h.2l.1-.1.1-.1h.1v-.2h.1v-.1l.1-.1v-1h-.1l-.1-.1-.1-.1h-.1v-.1h-.3l-.1-.1H5V52h-.1l-.1-.1h-.2v-.1h-.3v-.1h-.2v-.1h-.2v-.1h-.1l-.1-.1h-.1v-.2h-.3v-.1h-.2V51H2.8v-.1h-.1l-.1-.1h-.1v-.1h-.2v-.1h-.2v-.1h-.2v-.2l.2-1.6h.5v-.1h.7v-.1h.5v-.1h.5v-.1H6l.1-.1h.4V48h.2l.1-.1.1-.2.1-.2.1-.1v-.6l-.1-.1v-.1h-.1v-.1h-.1v-.2h-.2l-.2-.1-.1-.1-.2-.1-.1-.1h-.1v-.1h-.2v-.1h-.1v-.1h-.3v-.1h-.1v-.2h-.3v-.1h-.1l-.1-.1h-.1V45h-.1v-.1h-.2l-.1-.1h-.1v-.1H4v-.1h-.1l-.1-.1h-.1v-.2h-.2v-.1h-.1V44h-.1c0-.6.2-1 .3-1.6h1.1v-.2h3.4l.1-.1h.1V42l.1-.1.1-.2.2-.2v-.7l-.1-.1v-.1l-.1-.1h-.2v-.2h-.2l-.1-.1h-.1V40h-.2l-.1-.1h-.1v-.1h-.2v-.2h-.1v-.1h-.1v-.2h-.3v-.1h-.1V39h-.2v-.1h-.2v-.2h-.1v-.1h-.1v-.1H6v-.2h-.2v-.1h-.1V38h-.2v-.1h-.2l.6-1.5h3.8v.2h.8l.1-.1.2-.1.1-.1v-.1l.2-.2v-1H11l-.1-.1-.1-.1-.1-.1-.1-.1-.1-.1h-.2v-.2h-.2v-.1H10V34h-.2v-.1l-.1-.1-.1-.1-.1-.1v-.1h-.2v-.2h-.1v-.1h-.1V33H9l-.1-.1v-.1h-.1v-.1h-.1v-.1h-.1v-.1h-.1v-.2h-.2V32h-.1l.7-1.4h1.9v.2h1v.2h.7l.1.2h.8l.1-.1h.1l.1-.1v-.1l.2-.1v-.2l.1-.2v-.5l-.1-.2v-.1h-.1v-.1l-.1-.1-.1-.1-.1-.1V29h-.2v-.2h-.1v-.1h-.1v-.2H13v-.1h-.1v-.2h-.1V28h-.2v-.1l-.1-.1v-.1h-.2v-.3h-.1v-.1l-.1-.1V27H12v-.2h-.1v-.1h-.1v-.2h-.1v-.1l-.1-.1v-.1l.8-1.3h.9v.2h.8v.2h.7v.2h.6l.1.2h.5v.2h1.2l.2-.1v-.1l.1-.2.1-.2v-.8h-.3v-.2l-.1-.1V24H17v-.2h-.1v-.1l-.1-.1v-.1h-.1v-.2h-.1V23h-.1l-.1-.1v-.1h-.1v-.2h-.1v-.2h-.1v-.1H16V22h-.1v-.2h-.1v-.2h-.1v-.2l-.1-.1v-.1a4 4 0 0 1 1-1.2h.7v.2h.6v.2h.4v.2h.4v.2h.6v.2h.4v.2h.3l.2.2h1.2v-.2l.2-.1V21l.1-.1V20l-.1-.1-.1-.2v-.1h-.2v-.2h-.1v-.2h-.1V19H21v-.2h-.1v-.4h-.1v-.2h-.1V18h-.1v-.2h-.1v-.3h-.2V17l-.1-.1v-.4h-.1v-.1l1.1-1h.7v.2h.4v.2h.4v.2h.3l.1.2h.3v.2h.3v.2h.4v.2h.3v.2h.2l.1.2h1.2l.1-.1V17l.1-.1v-.1h.1v-1h-.1v-.2l-.1-.1v-.2h-.1V15h-.1v-.3h-.1v-.4h-.1V14h-.1v-.4h-.2v-.8h-.1v-.5h-.1l1.3-1h.2v.2h.3l.1.2h.2l.1.2h.2l.1.2h.2l.1.2h.2v.2h.3v.2h.2l.1.2h.2v.2h.2l.1.2h.2v.2h.2l.1.2h1.1v-.1l.2-.1v-.2h.1v-.1l.1-.1v-1h-.1V12H31v-.6h-.1v-.5l-.1-.1V10h-.1v-.8l-.1-.1v-.4l1.3-.8h.1v.3h.3l.1.2h.2v.2h.3V9h.2v.2h.1v.2h.3v.2h.2l.1.2h.2v.2h.2v.2h.1v.2h.2l.1.2h.1l.1.2h.2v.2h1.3v-.2h.1v-.1h.1v-.3l.1-.1V9h-.1V7.6h-.2V5.9l1.4-.6h.2v.2h.2v.2h.2V6h.2v.4h.3v.2h.2v.2h.2V7h.1v.2h.1v.2h.3v.2h.1v.2h.2V8h.2v.3h.3v.2h.7l.2.2h.2l.1-.1h.1l.1-.1v-.2h.2V8h.1v-.4h.1v-3h.1v-.8h.1v-.2l1.5-.5h.1v.2h.2v.2h.1l.1.2h.1V4h.1v.3h.1v.2h.2v.2h.1V5h.2v.3h.2v.3h.2v.3h.2v.3h.1l.1.3h.1l.1.3h.2l.1.2h.4l.1.2h.4l.1-.1h.1l.1-.1.1-.2h.1v-.4h.1V6l.1-.2v-.7l.1-.1v-.8h.1v-.6h.1v-.4h.1v-.4h.1v-.4l.1-.1V2c.6 0 1-.2 1.6-.3V2h.1v.3h.1v.2h.2v.3h.1V3h.2v.3h.1v.2h.1l.1.2h.1V4h.1v.2h.2v.3h.1v.2h.1V5h.1v.2h.2v.3h.3l.1.2h1.2l.1-.1.1-.1.1-.2v-.1h.1v-.4l.1-.1v-.5h.1v-.4h.1v-.4h.1v-.2h.1v-.4h.1v-.4h.1v-.2h.1v-.4h.1v-.2l.1-.1v-.2h.1v-.1h1.7v.3h.1v.2h.1V2h.1v.3h.1v.4h.1v.2h.1V3h.1v.2h.1v.2h.1v.4h.1v.3h.1v.3h.1v.3h.1V5h.1v.2h.2l.1.2h.2l.2.2h.7v-.1h.2v-.2l.1-.1V5h.1l.1-.1v-.1l.1-.2v-.2h.1V4h.1v-.3h.1v-.3h.1v-.2h.1V3h.1v-.2h.1v-.2h.1V2h.1v-.2h.1v-.2h.1v-.2h.1v-.2h1.7v.4h.1V2h.1v.3h.1v.3h.1v.3h.1v.4h.1v.3h.1V4h.1v.3h.1v.5l.1.2v.3h.1v.2h.1l.1.2h.1l.1.2h1.2v-.1h.2v-.2l.1-.2.1-.1V5h.1v-.2h.1v-.2h.1v-.4h.1V4h.1v-.2h.1v-.2h.1v-.1l.1-.1v-.1h.1v-.1h.1V3h.1l.1-.1v-.1h.1v-.2h.1v-.1h.1v-.2h.1V2h.1v-.2h.1l1.5.2v.2h.1v.4h.1v.6h.1v.5h.1v.5h.1V5h.1v1h.1v.4h.1l.2.2.2.2h.2l.1.2h.6l.1-.1.2-.1v-.1h.1v-.2h.1l.1-.2.1-.1.1-.2v-.1h.1v-.1h.1v-.2h.1v-.1h.1v-.2h.1v-.1l.1-.1V5h.1v-.1h.1v-.2h.1v-.1h.1v-.1h.1v-.2h.1v-.1h.1V4h.1l.1-.1v-.1h.1v-.1h.1v-.1h.1v-.1h.1v-.2c.6 0 1 .2 1.6.3v1.2h.1v1.5h.1v1.9h.2l.1.2h.2l.2.3h.7v-.1h.2v-.1l.3-.2h.1V8h.1l.1-.1v-.1h.1v-.1h.1v-.2h.1v-.1h.1v-.2h.2v-.1h.1V7l.1-.1v-.1h.1v-.1h.1v-.1h.1v-.1h.1v-.1h.1v-.2h.2v-.1h.1V6h.2v-.1h.1v-.1h.1v-.1h.1v-.1h.1v-.1h.1v-.2l1.5.6v2.9h-.1v.8h-.1v1h.1v.2h.3l.2.3h.9V11h.1l.1-.1.1-.1v-.1h.2v-.1l.1-.3h.1v-.1h.1V10h.2v-.1h.1v-.1h.1v-.1h.1l.1-.1.1-.1h.1v-.2h.2v-.1h.1V9h.2l.1-.1h.1v-.1h.1v-.1h.1v-.1h.1v-.1h.2v-.2h.2v-.1h.1l1.4.7V10h-.1v.6H88v.6h-.1v.5h-.1v.4h-.1v.4h-.1v.9h.1v.2h.2l.1.3h1.1l.2-.1v-.1h.2v-.2h.2v-.3h.2v-.1h.1V13h.1l.1-.1h.1v-.1h.1v-.1h.2v-.1h.1v-.1h.1v-.1h.2v-.2h.3v-.1h.1V12H91.7l.1-.1h.1v-.1h.2v-.1h.1v-.1h.2l1.3.8v.4h-.1v.4h-.1v.5h-.1v.4h-.1v.4h-.1v.3h-.1v.3H93v.2h-.1v.4h-.1v.2h-.1v.3h-.1v.8l.1.2.1.2h.3l.2.2h.8v-.3h.4v-.1h.1V17H94.9v-.1h.1l.1-.1h.1v-.1h.2v-.1h.1l.1-.1h.1l.1-.1h.1v-.1h.2v-.1h.2V16h.4v-.1h.2v-.1h.2v-.1h.2v-.1h.2c.5.3.9.6 1.2 1v.4h-.1v.3h-.3v.5h-.1v.3h-.1v.2H98v.3h-.1v.2h-.1v.2h-.1v.3h-.1v.2h-.1v.2h-.2v.2l-.1.3-.1.2v.8l.1.2h.1l.1.2h1.3l.2-.1h.1v-.2h.2v-.1h.2V21h.4v-.1h.4v-.1h.2v-.1h.3v-.1h.2v-.1h.3v-.2h.5l.1-.1h.2l.1-.1h.1l1 1v.5h-.1v.3h-.1v.2h-.1v.2h-.1v.2h-.1v.2h-.1l-.1.2h-.1v.3h-.1v.2h-.1l-.1.2h-.1v.3h-.1l-.1.2h-.1v.3h-.2v.2h-.1v.3h-.1v.8l.1.2h.3l.1.2h1.2l.1-.1h.2v-.1h.3v-.1h.3v-.1h.3l.1-.1h.3v-.1h.4v-.2h.8v-.1h.5V25l1 1.3h-.1v.2h-.1v.2h-.2v.3h-.2v.3h-.2v.3h-.2v.3h-.2v.2h-.1v.2h-.2v.2h-.1v.2h-.2v.2h-.1l-.1.2h-.1v.2h-.1l-.1.2h-.1v.3h-.1v.7l.1.2h.1v.2h.4l.1.2h.8l.2-.1h.9v-.1h.5l.1-.1h.6v-.1h.7l.1-.1h.4l.8 1.3h-.1v.2h-.2v.2h-.1v.2h-.2v.2h-.1l-.1.2h-.1v.2h-.2v.2h-.2v.2h-.1l-.1.2h-.1v.2h-.2v.2h-.2v.2h-.2l-.1.2h-.2v.2h-.1l-.1.2h-.1v.3h-.1v.9h.1v.2h.3v.2h3v-.2h1.7l.6 1.4h-.1v.2h-.2v.2h-.2v.2h-.2v.2h-.2v.2h-.2v.2h-.2v.2h-.3v.2h-.2v.2h-.2v.2h-.3v.2h-.2l-.1.2h-.2v.2h-.2v.2h-.1l-.1.2v.2h-.1v.6h.1v.2h.1l.2.3h.5v.2h3.8v.2h.2l.5 1.5h-.2v.2h-.2v.2h-.3v.2h-.2l-.1.2h-.2v.2h-.3v.2h-.3v.2h-.3v.2h-.3v.2h-.3l-.1.2h-.3v.2h-.2v.2h-.2v.2l-.1.2-.1.2v.5h.1v.2h.1l.1.2h.3v.2h1.2v.2h1.3v.2h.9v.2h.6l.4 1.7h-.3v.2h-.3l-.1.2h-.3v.2h-.3v.2h-.4v.2h-.3v.2h-.4v.2h-.4v.2h-.6v.2h-.3l-.1.2h-.1l-.1.2-.1.3v1h.1v.2h.2l.2.2h.6l.1.2h.9v.2h.7v.2h.7v.2h.5l.1.2h.5v.2h.1V57h-.3v.2h-.4l-.1.2h-.4v.2h-.4v.2h-.7v.2h-.6v.2h-.5l-.1.2h-.3l-.1.2h-.1l-.1.2-.1.2-.1.2v.7h.1v.2h.3v.2h.3l.2.2h.6v.2h.5l.1.2h.5v.2h.4v.2h.5v.2h.4v.2h.4v1.8h-.7v.2h-.6v.2h-.7v.2h-.7v.2h-.9l-.2.2h-.4l-.1.2h-.2v.2h-.1v.2h-.1v.8l.1.2h.1v.2h.4v.2h.5v.2h.4v.2h.4v.2h.3l.1.2h.3v.2h.3l.1.2h.3v.2h.3v.2h.3v.2l-.2 1.5h-.6v.2h-.9v.2h-1.3l-.1.2h-1.2v.2h-.1l-.2.2-.1.2h-.1v.2h-.1v.7h.1l.1.3h.2l.1.2h.2l.1.2h.3v.2h.3v.2h.3v.2h.3v.2h.3v.2h.2v.2h.3v.2h.2v.2h.3v.2h.2v.2h.1c0 .6-.2 1-.3 1.6h-2.6v.2h-2.1v.2h-.1l-.1.3h-.1v.4h-.1v.6h.1v.2h.1v.2h.3l.1.2h.2v.2h.2l.1.2h.2v.2h.2v.2h.3v.2h.2v.2h.2v.2h.2v.2h.2v.2h.2v.2h.2v.2h.2v.2h.1l-.6 1.5h-2.7l-.1-.1h-.7l-.1-.1h-1v.3h-.1l-.2.3v.9h.1l.1.2h.1l.1.3h.3v.2h.2v.2h.2v.2h.1l.1.2h.1v.2h.2v.2h.2v.2h.2v.2h.1v.2h.2v.2h.2v.3h.2v.2h.1l-.7 1.5h-1.2V88h-1.2v-.1h-.5v-.1h-.4v-.1h-.4l-.1-.1h-.9l-.1.2-.2.2v.2l-.1.2v.7h.1l.1.2h.1v.2h.1l.1.2h.2v.2h.1l.1.2h.1v.2h.2v.3h.2v.2h.1v.2h.1l.1.2h.1v.2h.1v.2h.1l.1.2h.1v.3h.1v.2h.1l-.8 1.4h-.4v-.1h-.4l-.1-.1h-.4v-.2h-.4l-.1-.1h-.2V93h-.7l-.1-.1h-.2v-.1h-.3v-.1h-.2l-.1-.1h-.2v-.1h-1v.2h-.2v.3l-.1.2v.8h.1v.2h.1v.2h.2v.2h.1v.2h.1v.2h.2v.3h.1v.2h.1l.1.2h.1v.3h.1v.2h.1v.2h.1v.2h.1v.2h.1v.2h.1v.2h.1v.2a4 4 0 0 1-1 1.2h-.4v-.1h-.3v-.2h-.5l-.1-.1h-.2V98h-.2l-.1-.1h-.2v-.1h-.2v-.1h-.2l-.1-.1h-.2v-.1h-.1v-.1h-.2v-.2h-.3l-.2-.1h-.1l-.1-.1h-1l-.2.2-.1.2-.1.2v.9h.1v.3h.2v.3h.1v.2h.1v.2h.1v.2h.1v.3h.1v.2h.1v.4h.1v.2h.1v.3h.1v.3h.1v.3h.1v.3h.1l-1.1 1h-.6v-.1h-.2v-.1h-.2v-.1h-.1v-.1h-.2v-.1H96l-.1-.1h-.1v-.1h-.2v-.1h-.3v-.1h-.2v-.1H95v-.1h-.2v-.1h-.1l-.1-.1h-.1v-.1h-.1l-.1-.1v-.1h-.2v-.1H94l-.2-.1h-1v.2h-.1l-.1.2-.1.3v.8h.1v.3h.1v.2h.1v.3h.1v.3h.1v.4h.1v.3h.1v.4h.1v.4h.1v.4h.1v.5h.1l-1.3 1v-.1h-.2v-.1h-.2v-.1h-.1v-.1h-.2v-.1h-.1v-.1h-.2v-.1h-.1l-.1-.1H91v-.1h-.1v-.1h-.2v-.1h-.1v-.1h-.1l-.1-.1h-.1v-.1h-.1v-.1h-.1l-.1-.1h-.1v-.1h-.1v-.1h-.1v-.1h-.1l-.1-.1-.1-.1h-.1v-.1h-.1l-.1-.1-.1-.1h-.2v-.1h-.9v.2h-.2v.2h-.1v.2h-.1v1.2h.1v.4h.1v.4h.1v.6h.1v.6h.1v.9h.1v.4l-1.3.8h-.1v-.1h-.1v-.1h-.1v-.1h-.2v-.1h-.1v-.1h-.1v-.1H86v-.1h-.1l-.1-.1h-.1v-.1h-.1v-.1h-.1v-.1h-.2v-.2h-.1v-.1h-.1l-.1-.1h-.1v-.1h-.1v-.1h-.1v-.1h-.1v-.1h-.1v-.1h-.2v-.2l-.1-.1-.2-.2-.1-.1-.2-.1-.1-.1-.1-.1h-1.2v.3h-.1v.3h-.1v1.4h.1v1.5h.1v1.5l-1.4.6h-.1v-.1h-.1v-.1h-.1v-.1h-.1v-.1h-.2v-.2h-.1v-.1h-.1v-.1H80v-.1h-.1v-.1h-.1v-.1h-.1v-.1h-.1v-.1h-.1v-.1l-.1-.1-.1-.1v-.1h-.1v-.1h-.1v-.1H79v-.1h-.1v-.2h-.1v-.1h-.1v-.1h-.1v-.1l-.1-.1-.1-.2h-.1v-.2h-.2v-.1H78l-.1-.1h-.2l-.2-.1h-.6l-.1.2h-.1v.2h-.2v.4h-.1v3h-.1v.9h-.1v.2l-1.5.5v-.1h-.1v-.1h-.1v-.1h-.2v-.2l-.1-.1v-.1h-.1v-.1H74v-.1l-.1-.1v-.1h-.1v-.1h-.1v-.1h-.1v-.2h-.1v-.1h-.2v-.1l-.1-.1v-.1h-.1v-.2H73v-.1h-.1v-.2h-.1v-.1h-.1v-.2h-.1v-.2h-.1v-.2h-.1l-.1-.2v-.1l-.1-.1h-.1l-.2-.1h-.1l-.1-.1H71l-.1.2h-.1l-.1.2v.2h-.1l-.1.3v.9h-.2v1.4h-.1v.5h-.1v.5H70v.4h-.1v.2l-1.6.4v-.2h-.1v-.1h-.1v-.2H68v-.1l-.1-.1v-.1h-.1v-.1l-.1-.1v-.1h-.1v-.2h-.1v-.2h-.2v-.1l-.1-.1v-.1h-.1v-.2H67v-.2h-.1v-.2h-.1v-.2h-.1v-.2h-.1v-.5h-.1v-.2h-.1v-.2h-.1v-.2h-.1v-.1l-.1-.1H66l-.2-.1h-1.1v.3h-.1l-.1.2h-.1v.6h-.1v.9h-.1v.4h-.1v.4H64v.3h-.1v.4h-.1v.2h-.1v.3h-.1v.3h-.1v.3h-1.9v-.2h-.1v-.2h-.1v-.2h-.1v-.7h-.1v-.2h-.1v-.2H61v-.3h-.1v-.2h-.1v-.3h-.1v-.3h-.1v-.2h-.1v-.3h-.2v-.2l-.1-.2-.1-.1-.1-.1-.1-.1h-.1l-.1-.1h-.1l-.1-.1h-.9v.2h-.1l-.1.2-.1.2-.1.3v.2h-.1v.4H58v.3h-.1v.2h-.1v.2h-.1v.2h-.1v.3h-.1v.2h-.1v.2h-.1v.2h-.1v.3h-.1v.2H57v.2h-.1v.2h-1.6v-.2l-.1-.1v-.2h-.1v-.4H55v-.3h-.1v-.3h-.1v-.3l-.1-.1v-.3h-.1v-.4h-.1v-.4h-.2v-.9h-.1v-.2l-.1-.1-.1-.2h-.2v-.1h-.1l-.1-.1h-1l-.1.2h-.1v.2h-.1v.2h-.1v.2h-.1v.2H52v.3h-.1v.2h-.1v.2h-.1l-.1.2-.1.2h-.2v.5h-.1l-.1.2H51v.3h-.1l-.1.2h-.1v.3h-.2v.3h-.2l-1.6-.2v-.5l-.1-.1v-.4h-.1v-.5h-.1v-.6h-.1v-1.7h-.1v-.4h-.1v-.1H48v-.2h-.1l-.2-.1v-.1h-.2v-.1h-.9v.2h-.3v.2h-.1l-.1.2-.1.2h-.1v.2h-.1v.2h-.1v.2h-.2v.3h-.2v.3h-.1v.2h-.1v.2h-.2v.2h-.1v.2h-.2v.2h-.1v.2h-.2v.2h-.2v.2c-.6 0-1-.2-1.6-.3v-1h-.2v-3.3l-.1-.1v-.2h-.1l-.1-.1-.2-.1v-.1h-.4l-.2-.1h-.6l-.1.2h-.1v.2h-.1l-.1.2-.1.2h-.2v.2h-.1v.2h-.2v.2h-.2v.2h-.1l-.1.2h-.1v.2h-.2v.2h-.2v.2h-.2v.2h-.2v.2h-.1v.2H38v.2h-.1l-1.5-.5v-2.8h.1v-.8l.1-.1v-.6l-.1-.1-.1-.2-.1-.1h-.1l-.1-.2H35l-.1.2h-.2v.2h-.1l-.1.2h-.2v.2h-.1l-.1.2H34l-.1.2h-.1l-.1.2h-.2v.2h-.2v.2h-.2v.2h-.3v.2h-.2v.2h-.3v.2h-.2v.2H32l-1.4-.7v-1.2h.1v-.7h.1v-.5l.1-.1v-.4h.1v-.4l.1-.1v-.2l.1-.1v-1h-.1l-.1-.1h-.1l-.1-.2h-.2l-.2-.1h-.8v.2h-.2l-.1.2h-.2v.2h-.2v.2h-.3v.2h-.3l-.1.2H28v.2h-.3v.2h-.3v.2h-.2v.2h-.3v.2h-.4v.2h-.2l-1.3-.8v-.4l.1-.1v-.4h.1v-.4h.1v-.4h.1v-.3h.1v-.4l.1-.1v-.3h.1v-.2l.1-.1v-.2h.1v-.3l.1-.1v-.2h.1v-.7H26v-.2h-.1l-.1-.2m5.5-26a4 4 0 1 0-8 0 4 4 0 0 0 8 0m16 16a4 4 0 1 0-8 0 4 4 0 0 0 8 0m32 0a4 4 0 1 0-8 0 4 4 0 0 0 8 0m16-16a4 4 0 1 0-8 0 4 4 0 0 0 8 0m-16 0a4 4 0 1 0-8 0 4 4 0 0 0 8 0m-16 16a4 4 0 1 0-8 0 4 4 0 0 0 8 0m32-32a4 4 0 1 0-8 0 4 4 0 0 0 8 0m-16 0a4 4 0 1 0-8 0 4 4 0 0 0 8 0m-16 16a4 4 0 1 0-8 0 4 4 0 0 0 8 0m32-32a4 4 0 1 0-8 0 4 4 0 0 0 8 0m-28 16a8 8 0 1 0-16 0 8 8 0 0 0 16 0m-20 16a4 4 0 1 0-8 0 4 4 0 0 0 8 0m32-32a4 4 0 1 0-8 0 4 4 0 0 0 8 0m-16 0a4 4 0 1 0-8 0 4 4 0 0 0 8 0m-16 16a4 4 0 1 0-8 0 4 4 0 0 0 8 0m32-32a4 4 0 1 0-8 0 4 4 0 0 0 8 0m-48 32a4 4 0 1 0-8 0 4 4 0 0 0 8 0m16-16a4 4 0 1 0-8 0 4 4 0 0 0 8 0m16-16a4 4 0 1 0-8 0 4 4 0 0 0 8 0m-32 16a4 4 0 1 0-8 0 4 4 0 0 0 8 0m16-16a4 4 0 1 0-8 0 4 4 0 0 0 8 0"/>
</svg>
