<svg xmlns="http://www.w3.org/2000/svg" viewBox="0 0 118 118">
  <path fill="none" stroke="#333" d="m81 112.3-.8.3h-.3l-1-1.3h-.3c-.3 0-.7.2-1.1.4-.1 0-.2 0-.2.2v1.8l-1.2.2-1-1.3-.1-.1-1.2.3-.2.2v1.6c0 .2-.1.2-.2.3h-1.1l-1-1.3-.1-.1-1.2.2-.2.2-.1 1.6s-.1.2-.3.2l-.8.2-.3-.1-1-1.6-1.2.2H66l-.3 1.7-.2.2h-1.2l-.6-1.5-.2-.2h-1.3l-.1.3-.6 1.7h-1l-.2-.1-.5-1.5-.2-.2h-1.3l-.1.2-.5 1.5-.3.2h-1l-.1-.3-.4-1.5-.2-.2h-1.4l-.6 1.6h-1.3l-.1-.2-.3-1.6-.2-.2h-1.4l-.7 1.5h-1.2a.2.2 0 0 1-.2-.3l-.2-1.6-.1-.2-1.2-.2h-.3l-.8 1.5h-.2l-1-.1-.1-.3V113l-.2-.2-1.4-.2-1.2 1.4c-.3 0-.6-.2-.8-.3l-.2-.2v-1.7l-.1-.2c-.4 0-.8-.2-1.2-.4H39l-1.3 1.4c-.3 0-.5-.2-.8-.3l-.2-.2v-1.9l-1.3-.4-1.1 1.2H34c-.3 0-.5-.2-.8-.4l-.1-.2v-1.8l-1-.6H32l-1.2 1h-.3l-.7-.3c-.1 0-.2-.1-.1-.2l.3-1.7-.1-.2-1.3-.6-1.2 1H27l-.8-.7.4-1.6v-.2l-1-.7h-.4l-1.3 1h-.3l-.7-.6v-.3l.5-1.8-1-.8h-.2l-1.4.9h-.3l-.6-.6v-.3l.5-1.8-1-.8h-.1l-1.4.7h-.3l-.6-.6v-.3l.7-1.5v-.2l-.8-1h-.3l-1.4.7H15l-.6-.8v-.3l.9-1.4v-.2l-.8-1h-.2l-1.5.5h-.3l-.5-.8v-.2l1-1.5-.8-1-.2-.1-1.8.3-.5-.7V89l1-1.3v-.2l-.5-1-.2-.2-1.6.4-.2-.1-.4-1.1 1-1.2s.2-.2 0-.2L8.5 83l-.2-.1H6.4L6 82v-.2l1.3-1.1v-.5l-.2-1-.2-.1h-2l-.2-1V78l1.4-1v-.2l-.3-1.2-.2-.1H3.9c-.1 0-.2 0-.3-.2l-.2-.8v-.3L5 73l-.3-1.1-.2-.2H2.9l-.3-.3-.1-.8v-.3l1.5-.8v-.3l-.3-1.3-1.6-.2a.3.3 0 0 1-.2-.3l-.1-.8v-.3l1.6-.7v-.2L3.3 64l-1.5-.3a.3.3 0 0 1-.2-.3v-1.1l1.6-.6v-1.4L3 60l-1.5-.4a.2.2 0 0 1-.2-.4v-1l.2-.1 1.5-.5.2-.2v-1.2L3 56l-1.8-.8v-1l.3-.1 1.7-.6v-1.4l-1.5-.6-.1-.3v-1l.3-.1 1.8-.4.2-1.3v-.2l-1.5-.7c-.1 0-.2-.2-.1-.3 0-.3 0-.6.2-.8 0-.1 0-.2.2-.2l1.6-.2s.2 0 .2-.2l.3-1.2-.1-.2-1.4-.8v-1.1l.4-.2 1.8-.2L6 41v-.2l-1.5-1.2.3-1h1.9l.2-.1.5-1.1V37L6 35.8l.4-.8.2-.1h1.9l.5-1v-.3l-1.2-1.1v-.2c0-.3.2-.5.4-.8l.2-.1c.6 0 1 .2 1.6.3l.3-.1.6-1.1v-.2l-1.2-1.5.5-.8h.3l1.8.2.7-1V27l-1-1.3v-.3l.5-.7h.3c.5 0 1 .3 1.5.4h.3l.7-1v-.2l-1-1.4v-.2l.7-.6c0-.1.2-.2.3-.1l1.5.6h.2l.8-1V21l-.8-1.4v-.3l.7-.6h.3l1.5.7h.2l.9-1v-.2l-.7-1.4v-.5l.7-.6h.3l1.4.8h.3l1-.8v-.2L23 14v-.3l.7-.6h.3l1.4 1h.2l1-.8V13c0-.5-.3-1-.4-1.5v-.3l.8-.5h.3l1.5 1 1-.8-.2-1.6V9l.8-.4h.3l1.3 1h.2l1-.4.2-.2-.3-1.6v-.3l.9-.4h.3l1.2 1.5h.3l1-.5c.2 0 .2-.1.2-.2L36.8 6c0-.1 0-.2.2-.3.3 0 .5-.2.8-.3h.3l1 1.3h.3l1-.3.2-.2V4.5c0-.1 0-.2.2-.3l.8-.2h.3l1 1.4h.2c.4 0 .7-.2 1-.3.2 0 .3 0 .3-.2V3.3l.2-.2.9-.2h.2l1 1.6 1.3-.3.2-.1.4-2h1.1l.8 1.6h.2l1.2-.1v-.2l.4-1.6.2-.2h1.2l.8 1.7h1.3V3l.5-1.6s0-.2.3-.2l1 .2.8 1.7h1.3V3l.6-1.5.3-.2h.9l.2.2L62 3h.2l1.3.2.2-.1.5-1.5.3-.2h.9l.2.3.3 1.6.2.2 1.2.2.2-.1.7-1.5.3-.1h.9l.2.3.3 1.9 1.3.2h.2l1-1.6.9.2.2.2V5h.2l1.2.5h.2l1-1.4c0-.1 0-.2.2-.1l.9.2V6s0 .2.3.2l1 .4h.3l1-1.3h.3l.8.2.2.3-.1 1.6v.2l1.2.6h.2l1-1.2h.4c.3 0 .5.2.8.3v.3l-.1 1.6v.2l1 .6h.4l1.3-1.3h.3l.7.4s.2.2 0 .3L88 11v.2l1 .7h.4l1.2-1c0-.2.2-.2.3-.1l.7.5c0 .7-.2 1.3-.3 2l1 .8h.3l1.3-1h.3l.7.6v.3l-.5 1.5v.2l1 .8h.2l1.7-.8.6.6v.3l-.6 1.5v.2l1 .9h.2a99 99 0 0 0 1.7-.7l.6.6v.3l-.7 1.7.8 1h.3l1.7-.6.6 1-.9 1.3v.3l.8 1h.2l1.8-.5.5.7v.3l-1 1.4v.2l.8 1h.2c.5 0 1-.2 1.5-.4h.3l.5.9v.3l-1.1 1.5.6 1h.2l1.6-.2h.3c0 .4.2.6.4.9v.3l-1.2 1.2s-.1 0 0 .2l.5 1c0 .2 0 .2.2.2l1.6-.2h.2l.4.9v.3l-1.3 1v.3l.6 1.3h1.9l.3.9-.1.2-1.4 1.3.4 1 .2.3h1.6c.1 0 .2 0 .3.2l.2.8-.1.3-1.4.9v.2l.2 1.2.2.2h1.6l.3.3.1.8v.3l-1.5.8-.1.2.2 1.2 2 .6.1.9-.1.3-1.6.9.1 1.2.2.2 1.5.3c.2 0 .2 0 .2.2v.9c.1 0 0 .2 0 .2l-1.6.7h-.1v1.4l.2.2 1.7.6v1l-.2.2-1.5.5h-.2v1.4l.1.2 1.5.5.2.3v.8l-.3.3-1.6.4h-.1v1.6l1.5.6.1.3-.1.9-.2.2-1.6.3h-.2l-.2 1.3v.2l1.5.8c.1 0 .2 0 .1.3 0 .2 0 .5-.2.8 0 0 0 .2-.2.2l-1.6.2h-.2L113 73l.1.2 1.4.9v.3c0 .3 0 .5-.2.8 0 0 0 .2-.2.2h-1.6l-.2.2c0 .5-.2 1-.3 1.4l1.3 1s.1 0 0 .2l-.2.8-.3.2H111l-.5 1.2v.2l1.3 1v.3c0 .3-.1.6-.3.8 0 .2-.1.2-.2.2l-1.7-.2h-.2L109 84v.3l1.2 1c0 .2.1.3 0 .4l-.3.8h-.3l-1.7-.2h-.2l-.6 1v.4l1.2 1.5-.5.7s-.2.2-.3 0l-1.6-.3h-.2l-.7 1v.4l1 1.3-.8 1-1.5-.5h-.2l-.8 1v.3l1 1.3-.1.3-.6.7h-.3l-1.5-.5h-.2l-.8 1c-.1 0-.1 0 0 .2l.8 1.4v.3l-.7.6h-.3l-1.5-.7h-.2l-1 .9v.2l.8 1.5v.3l-.7.6H97l-1.4-.8h-.4l-1 1 .7 1.5-.1.3-.7.5h-.3l-1.4-1h-.2l-1 .8v.3l.3 1.8-.7.5h-.3l-1.3-1-1.4.9.5 1.5s0 .2-.2.2l-.7.5h-.3l-1.3-1.2h-.2l-1 .6-.2.2.3 1.6-.1.3-1 .3-1.2-1.2h-.3l-1.2.7.2 1.6s0 .2-.2.2M63 107a4.1 4.1 0 1 0-8.1 0 4.1 4.1 0 0 0 8.2 0m16-16a4 4 0 1 0-8.2 0 4 4 0 0 0 8.2 0m16-16a4 4 0 1 0-8.2 0 4 4 0 0 0 8.2 0m16-16a4.1 4.1 0 1 0-8.2 0 4.1 4.1 0 0 0 8.2 0m-48 32a4 4 0 1 0-8.2 0 4 4 0 0 0 8.2 0m16-16a4 4 0 1 0-8.2 0 4 4 0 0 0 8.2 0m16-16a4 4 0 1 0-8.2 0 4 4 0 0 0 8.2 0M47 91a4 4 0 1 0-8.2 0 4 4 0 0 0 8.2 0m16-16a4 4 0 1 0-8.2 0 4 4 0 0 0 8.2 0m16-16a4 4 0 1 0-8.2 0 4 4 0 0 0 8.2 0m16-16a4 4 0 1 0-8.2 0 4 4 0 0 0 8.2 0M47 75a4 4 0 1 0-8.2 0 4 4 0 0 0 8.2 0m8-12.4h8c1.9-2 1.9-5.2 0-7.2h-8a5.4 5.4 0 0 0 0 7.2M79 43a4 4 0 1 0-8.1 0 4 4 0 0 0 8.2 0M31 75a4 4 0 1 0-8.2 0 4 4 0 0 0 8.2 0m16-16a4 4 0 1 0-8.2 0 4 4 0 0 0 8.2 0m16-16a4 4 0 1 0-8.2 0 4 4 0 0 0 8.2 0m16-16a4 4 0 1 0-8.2 0 4 4 0 0 0 8.2 0M31 59a4 4 0 1 0-8.2 0 4 4 0 0 0 8.2 0m16-16a4 4 0 1 0-8.2 0 4 4 0 0 0 8.2 0m16-16a4 4 0 1 0-8.2 0 4 4 0 0 0 8.2 0M31 43a4 4 0 1 0-8.2 0 4 4 0 0 0 8.2 0M15 59a4 4 0 1 0-8.2 0 4 4 0 0 0 8.2 0m32-32a4 4 0 1 0-8.2 0 4 4 0 0 0 8.2 0m16-16a4 4 0 1 0-8.2 0 4 4 0 0 0 8.2 0"/>
</svg>
