<svg xmlns="http://www.w3.org/2000/svg" viewBox="0 0 81 81">
  <path fill="none" stroke="#333" d="m47.3 79.9-.8.2c-.2 0-.3 0-.3-.2l-.4-.8-.3-.2-1.5.2s-.2 0-.2.2l-.2.9-.3.2h-.8l-.3-.1-.3-1-.3-.1h-1.7l-.3 1-.3.2h-.8c-.2 0-.3-.1-.3-.2l-.2-1-.2-.1-1.5-.2c-.1 0-.3 0-.3.2l-.4.8-.3.2-.8-.2-.2-.2-.2-1-.2-.2-1.5-.3s-.2 0-.2.2l-.5.8h-.3l-.9-.1-.1-.3v-1l-.3-.1-1.7-.4-.6.8h-.3l-.8-.3-.1-.2v-1l-.1-.2-1.4-.6h-.3l-.7.7h-.3l-.7-.3a.3.3 0 0 1-.2-.3l.2-1-.1-.2-1.4-.7h-.3l-.7.7h-.3l-.7-.5c-.1 0-.2-.1-.1-.3l.2-1v-.2l-1.3-.8h-.3l-.8.5H17l-.7-.5v-.3l.3-1-.1-.2-1.1-1h-.3l-.9.5h-.3l-.6-.6V69c0-.3.2-.6.4-1v-.2l-1.1-1c0-.2-.2-.2-.3-.1l-.9.3h-.3l-.5-.7V66l.5-.8v-.3l-1-1.2h-.3l-.9.2h-.3l-.5-.8v-.3l.7-.7v-.3L8 60.5c0-.1-.2-.2-.3-.1l-1 .2-.2-.1-.4-.8v-.3l.7-.7v-.3L6.1 57l-.2-.2H4.7l-.4-.8.1-.3.7-.6c.1-.1.2-.2.1-.3l-.8-1.6h-1l-.2-.2-.2-.8V52l.9-.5v-.3l-.3-1.5-.2-.2H2.3v-.3l-.2-.8c0-.1 0-.2.2-.3l.8-.4.1-.3-.4-1.7-1-.2-.2-.2v-1l.1-.2.9-.4.2-.2-.1-1.6-.2-.2-1-.3-.2-.1v-1s0-.2.2-.2l.9-.3.2-.2V38l-.1-.3-.9-.4-.1-.2v-1l.3-.1.9-.2c.1 0 .2 0 .2-.2l.2-1.5-.1-.3-.8-.4a.2.2 0 0 1-.2-.3l.2-.8.2-.2 1-.1.2-.2.4-1.5-.1-.3-.8-.5c-.1 0-.2-.2-.1-.3l.2-.8.3-.2h1l.2-.1.4-1.7-.7-.7v-.3l.5-1 1 .2.3-.1.6-1.7-.7-.7v-.3l.4-.7c0-.1.1-.2.3-.1l.9.2c.1 0 .2 0 .3-.2l.8-1.5-.6-.8v-.3l.4-.7.3-.1 1 .3.2-.1 1-1.2v-.3l-.6-.8v-.3l.6-.7h.3l.9.4h.3l1-1.2v-.3c0-.3-.2-.6-.4-.8l.1-.3.6-.6h.3c.3 0 .6.3.9.4h.3l1.1-1v-.3l-.3-1 .1-.2.7-.5h.3l1 .5 1.3-.8.1-.3-.2-1v-.2l.8-.5h.3l.7.7h.3l1.4-.7V5.4l.8-.4h.3l.7.8h.3l1.4-.6.1-.2V4l.1-.2.8-.3h.3l.6.8h.3l1.4-.3.2-.3v-1l.3-.2.8-.2h.3l.7 1 1.5-.2.2-.2.2-1c0-.1 0-.2.2-.2l.8-.1h.3l.4 1h1.8l.2-.2.2-1s.1-.2.3-.2h.8c.1 0 .2 0 .3.2l.3.9h2l.3-1 .3-.1h.8l.3.2.2 1 .2.2h1.8l.4-1h1.1l.2.3.2 1s0 .2.2.2c.5 0 1 .2 1.4.3l.3-.1.8-1 .8.2.2.3v1l.2.2 1.8.3.5-.7.3-.1c.3 0 .6.2.8.3l.2.2v1l.1.2 1.4.6h.3l.6-.7h.3c.3 0 .6.2.8.3.1 0 .2.2.1.3l-.1 1 .1.2 1.6.7 1-.7.8.5.1.3-.2.9v.3l1.3.8h.3l.8-.5h.3l.7.5v.3l-.3 1v.2l1.2 1h.3l.9-.5h.3l.6.7v.3l-.4.8v.3l1.4 1.2.9-.4h.3l.5.7v.3l-.5.8v.3l1 1.2h.2l1-.2h.2l.5.8v.3l-.6.8v.3l.8 1.2.3.2 1-.3.2.2.4.7v.3l-.7.7v.3l.9 1.5 1-.1s.2 0 .2.2l.3 1-.8.7v.2l.5 1.5h1.2c.1 0 .2 0 .2.3l.3.8-.1.3-.8.6-.1.2.4 1.5.2.2h1l.2.3.2.8s0 .2-.2.3l-.8.5c0 .7.2 1.3.3 2h1l.1.3.1.9-.1.2-1 .4v1.8s0 .2.2.2l.9.3.2.2v.9s0 .2-.2.2l-1 .3-.1.2v1.8l1 .4.1.2v.9l-.3.2-1 .2-.1.2-.1 1.8.8.4.2.3-.2.9h-.2l-1 .2-.2.2-.4 1.5.1.3.8.5.1.3c0 .3-.2.5-.3.8 0 0 0 .2-.2.2h-1s-.2 0-.2.2l-.5 1.4v.3l.8.9-.3.8h-1.5l-.6 1.5v.3l.7.7v.3l-.4.8H75l-1-.1h-.2l-.8 1.4v.3l.6.7v.3l-.5.7s-.1.2-.2 0l-1-.2h-.2l-1 1.3v.3l.5.8v.3l-.6.7h-.2l-1-.3h-.1l-1 1c-.1 0-.2.3-.1.4l.4.9v.3l-.6.5h-.3c-.3 0-.6-.2-.9-.4h-.3l-1.2 1.3.3 1v.2l-.7.5h-.3l-.8-.5h-.3l-1.2.9c-.1 0-.2 0-.1.2l.2 1-.1.2-.7.5h-.3l-.8-.7h-.3l-1.3.7-.1.3.1 1v.2l-.9.4h-.3l-.6-.8h-.3l-1.5.6-.1.2v1s0 .2-.2.2l-.8.3h-.3l-.5-.8-.3-.1-1.6.7v1l-.3.2-.8.2-.3-.1-.5-.8c0-.1-.1-.2-.3-.1l-1.4.3c-.1 0-.2 0-.2.2l-.2 1h-.2m-2.3-7a4 4 0 1 0-8.2 0 4 4 0 0 0 8.2 0m16-16a4 4 0 1 0-8.2 0 4 4 0 0 0 8.2 0m16-16a4 4 0 1 0-8.2 0 4 4 0 0 0 8.2 0m-32 16a4 4 0 1 0-8.2 0 4 4 0 0 0 8.2 0m16-16a4 4 0 1 0-8.2 0 4 4 0 0 0 8.2 0m-12.1 0a8 8 0 1 0-16 0 8 8 0 0 0 16 0m-20 16a4 4 0 1 0-8.1 0 4 4 0 1 0 8.2 0m32-32a4.1 4.1 0 1 0-8.2 0 4.1 4.1 0 0 0 8.2 0m-32 16a4 4 0 1 0-8.2 0 4 4 0 0 0 8.2 0m16-16a4 4 0 1 0-8.2 0 4 4 0 0 0 8.2 0m-32 16a4 4 0 1 0-8.2 0 4 4 0 0 0 8.2 0m16-16a4 4 0 1 0-8.2 0 4 4 0 0 0 8.2 0m16-16a4 4 0 1 0-8.2 0 4 4 0 0 0 8.2 0"/>
</svg>
