<svg xmlns="http://www.w3.org/2000/svg" viewBox="0 0 129 99">
  <path fill="none" stroke="#333" d="M37.4 1.3a4 4 0 0 1 5.5 1.5l24.7 42.9a8 8 0 0 0 7 4H124a4 4 0 0 1 4 4v40a4 4 0 0 1-4 4H46.8a8 8 0 0 1-7-4L1.4 26.6a4 4 0 0 1 1.5-5.3l34.5-20M22.3 40a4.1 4.1 0 1 0-8.3 0 4.1 4.1 0 0 0 8.2 0m8 13.8a4 4 0 1 0-8.2 0 4 4 0 0 0 8.2 0m30 19.7a4 4 0 1 0-8.1 0 4 4 0 0 0 8.2 0m16 16a4 4 0 1 0-8.2 0 4 4 0 0 0 8.2 0m16 0a4 4 0 1 0-8.2 0 4 4 0 0 0 8.2 0m16 0a4.1 4.1 0 1 0-8.2 0 4.1 4.1 0 0 0 8.2 0m16 0a4.1 4.1 0 1 0-8.2 0 4.1 4.1 0 0 0 8.2 0m0-16a4.1 4.1 0 1 0-8.2 0 4.1 4.1 0 0 0 8.2 0m0-16a4.1 4.1 0 1 0-8.2 0 4.1 4.1 0 0 0 8.2 0m-12.1 16a8 8 0 1 0-16 0 8 8 0 0 0 16 0m-4-16a4 4 0 0 0-8.1 0 4 4 0 1 0 8.2 0m-16 16a4 4 0 1 0-8.2 0 4 4 0 0 0 8.2 0m-16 0a4 4 0 1 0-8.2 0 4 4 0 0 0 8.2 0m16-16a4 4 0 1 0-8.2 0 4 4 0 0 0 8.2 0m-20.1 4.2a4 4 0 0 0 3.5-6.2 4 4 0 0 0-3.5-2 7.6 7.6 0 0 1-6.6-3.8 4 4 0 1 0-7.1 4c2.8 5 8 8 13.7 8m-20-2a4 4 0 1 0-8.1 0 4.1 4.1 0 0 0 8.2 0m5.8-22a4.1 4.1 0 1 0-8.2 0 4.1 4.1 0 0 0 8.2 0m-13.8 8a4 4 0 1 0-8.2 0 4 4 0 0 0 8.2 0M50 24.2a4 4 0 1 0-8.2 0 4 4 0 0 0 8.2 0m-10 8a8 8 0 1 0-16 0 8 8 0 0 0 16 0m2-22a4 4 0 1 0-8.2 0 4 4 0 0 0 8.2 0m-13.8 8.2a4 4 0 1 0-8.2 0 4 4 0 0 0 8.2 0m-14 8a4.1 4.1 0 1 0-8.2 0 4.1 4.1 0 0 0 8.2 0M56 93.9a4 4 0 0 0 3.5-6.2 4 4 0 0 0-3.5-2c-4.3 0-8.2-2.3-10.3-6a4 4 0 0 0-7.1 4 20 20 0 0 0 17.4 10M38.3 68a4 4 0 1 0-8.2 0 4 4 0 0 0 8.2 0"/>
</svg>
