<svg xmlns="http://www.w3.org/2000/svg" viewBox="0 0 146 50">
  <path fill="none" stroke="#333" d="M5.3 49.3a4 4 0 0 1-4-4v-40a4 4 0 0 1 4-4h136a4 4 0 0 1 4 4v40a4 4 0 0 1-4 4H5.3m8.1-40a4 4 0 1 0-8.2 0 4 4 0 0 0 8.2 0m115.9 12h-112a4 4 0 1 0 0 8h112a4 4 0 1 0 0-8m-83.9 20a4 4 0 1 0-8.2 0 4 4 0 0 0 8.2 0m16 0a4 4 0 1 0-8.2 0 4 4 0 0 0 8.2 0m16 0a4 4 0 1 0-8.2 0 4 4 0 0 0 8.2 0m16 0a4 4 0 1 0-8.2 0 4 4 0 0 0 8.2 0m16 0a4.1 4.1 0 1 0-8.2 0 4.1 4.1 0 0 0 8.2 0m16 0a4.1 4.1 0 1 0-8.2 0 4.1 4.1 0 0 0 8.2 0m16 0a4.1 4.1 0 1 0-8.2 0 4.1 4.1 0 0 0 8.2 0m0-32a4.1 4.1 0 1 0-8.2 0 4.1 4.1 0 0 0 8.2 0m-16 0a4.1 4.1 0 1 0-8.2 0 4.1 4.1 0 0 0 8.2 0m-16 0a4.1 4.1 0 1 0-8.2 0 4.1 4.1 0 0 0 8.2 0m-16 0a4 4 0 1 0-8.2 0 4 4 0 0 0 8.2 0m-16 0a4 4 0 1 0-8.2 0 4 4 0 0 0 8.2 0m-16 0a4 4 0 1 0-8.2 0 4 4 0 0 0 8.2 0m-16 0a4 4 0 1 0-8.2 0 4 4 0 0 0 8.2 0m-16 0a4 4 0 1 0-8.2 0 4 4 0 0 0 8.2 0m0 32a4 4 0 1 0-8.2 0 4 4 0 0 0 8.2 0m-16 0a4 4 0 1 0-8.2 0 4 4 0 0 0 8.2 0"/>
</svg>
