<svg xmlns="http://www.w3.org/2000/svg" viewBox="0 0 370 50">
  <path fill="none" stroke="#333" d="M5.3 49.3a4 4 0 0 1-4-4v-40a4 4 0 0 1 4-4h360a4 4 0 0 1 4 4v40a4 4 0 0 1-4 4H5.3m8.1-40a4 4 0 1 0-8.2 0 4 4 0 0 0 8.2 0m18.7 20.2h18.4a8 8 0 0 0 13.6 0h18.4a8 8 0 0 0 13.6 0h18.4a8 8 0 0 0 13.6 0h18.4a8 8 0 0 0 13.6 0h18.4a8 8 0 0 0 13.6 0h18.4a8 8 0 0 0 13.6 0h18.4a8 8 0 0 0 13.6 0h18.4a8 8 0 0 0 13.6 0h18.4a8 8 0 0 0 13.6 0h18.4a8 8 0 1 0 0-8.4h-18.4a8 8 0 0 0-13.6 0h-18.4a8 8 0 0 0-13.6 0h-18.4a8 8 0 0 0-13.6 0h-18.4a8 8 0 0 0-13.6 0h-18.4a8 8 0 0 0-13.6 0h-18.4a8 8 0 0 0-13.6 0h-18.4a8 8 0 0 0-13.6 0H96.1a8 8 0 0 0-13.6 0H64.1a8 8 0 0 0-13.6 0H32.1a8 8 0 1 0 0 8.4m13.3 11.8a4 4 0 1 0-8.2 0 4 4 0 0 0 8.2 0m320-32a4.1 4.1 0 1 0-8.2 0 4.1 4.1 0 0 0 8.2 0m0 16a4.1 4.1 0 1 0-8.2 0 4.1 4.1 0 0 0 8.2 0m0 16a4.1 4.1 0 1 0-8.2 0 4.1 4.1 0 0 0 8.2 0m-32 0a4.1 4.1 0 1 0-8.2 0 4.1 4.1 0 0 0 8.2 0m-32 0a4.1 4.1 0 1 0-8.2 0 4.1 4.1 0 0 0 8.2 0m-32 0a4.1 4.1 0 1 0-8.2 0 4.1 4.1 0 0 0 8.2 0m-32 0a4.1 4.1 0 1 0-8.2 0 4.1 4.1 0 0 0 8.2 0m-32 0a4.1 4.1 0 1 0-8.2 0 4.1 4.1 0 0 0 8.2 0m-32 0a4.1 4.1 0 1 0-8.2 0 4.1 4.1 0 0 0 8.2 0m-32 0a4.1 4.1 0 1 0-8.2 0 4.1 4.1 0 0 0 8.2 0m-32 0a4.1 4.1 0 1 0-8.2 0 4.1 4.1 0 0 0 8.2 0m-32 0a4 4 0 1 0-8.2 0 4 4 0 0 0 8.2 0m256-32a4.1 4.1 0 1 0-8.2 0 4.1 4.1 0 0 0 8.2 0m-32 0a4.1 4.1 0 1 0-8.2 0 4.1 4.1 0 0 0 8.2 0m-32 0a4.1 4.1 0 1 0-8.2 0 4.1 4.1 0 0 0 8.2 0m-32 0a4.1 4.1 0 1 0-8.2 0 4.1 4.1 0 0 0 8.2 0m-32 0a4.1 4.1 0 1 0-8.2 0 4.1 4.1 0 0 0 8.2 0m-32 0a4.1 4.1 0 1 0-8.2 0 4.1 4.1 0 0 0 8.2 0m-32 0a4.1 4.1 0 1 0-8.2 0 4.1 4.1 0 0 0 8.2 0m-32 0a4 4 0 1 0-8.2 0 4 4 0 0 0 8.2 0m-32 0a4 4 0 1 0-8.2 0 4 4 0 0 0 8.2 0m-32 0a4 4 0 1 0-8.2 0 4 4 0 0 0 8.2 0m-32 32a4 4 0 1 0-8.2 0 4 4 0 0 0 8.2 0m0-16a4 4 0 1 0-8.2 0 4 4 0 0 0 8.2 0"/>
</svg>
