<svg xmlns="http://www.w3.org/2000/svg" viewBox="0 0 146 50">
  <path fill="none" stroke="#333" d="M5.3 49.3a4 4 0 0 1-4-4v-40a4 4 0 0 1 4-4h136a4 4 0 0 1 4 4v40a4 4 0 0 1-4 4H5.3m8.1-40a4 4 0 1 0-8.2 0 4 4 0 0 0 8.2 0m101 11.8H96.2a8 8 0 0 0-13.6 0H64.1a8 8 0 0 0-13.6 0H32.1a8 8 0 1 0 0 8.4h18.4a8 8 0 0 0 13.6 0h18.4a8 8 0 0 0 13.6 0h18.4a8 8 0 1 0 0-8.4M45.3 41.3a4 4 0 1 0-8.2 0 4 4 0 0 0 8.2 0m32 0a4.1 4.1 0 1 0-8.2 0 4.1 4.1 0 0 0 8.2 0m32 0a4.1 4.1 0 1 0-8.2 0 4.1 4.1 0 0 0 8.2 0m16 0a4.1 4.1 0 1 0-8.2 0 4.1 4.1 0 0 0 8.2 0m16 0a4.1 4.1 0 1 0-8.2 0 4.1 4.1 0 0 0 8.2 0m0-16a4.1 4.1 0 1 0-8.2 0 4.1 4.1 0 0 0 8.2 0m0-16a4.1 4.1 0 1 0-8.2 0 4.1 4.1 0 0 0 8.2 0m-16 0a4.1 4.1 0 1 0-8.2 0 4.1 4.1 0 0 0 8.2 0m-16 0a4.1 4.1 0 1 0-8.2 0 4.1 4.1 0 0 0 8.2 0m-32 0a4 4 0 1 0-8.2 0 4 4 0 0 0 8.2 0m-32 0a4 4 0 1 0-8.2 0 4 4 0 0 0 8.2 0m-16 0a4 4 0 1 0-8.2 0 4 4 0 0 0 8.2 0m0 32a4 4 0 1 0-8.2 0 4 4 0 0 0 8.2 0m-16 0a4 4 0 1 0-8.2 0 4 4 0 0 0 8.2 0m0-16a4 4 0 1 0-8.2 0 4 4 0 0 0 8.2 0"/>
</svg>
