<svg xmlns="http://www.w3.org/2000/svg" viewBox="0 0 127 63">
  <path fill="none" stroke="#333" d="M60.8 46.3h57.5a8 8 0 1 1 0 16h-64a8 8 0 0 1-5.6-2.4L3.3 14.6A8 8 0 1 1 14.6 3.3l40.7 40.6a8 8 0 0 0 5.6 2.3m61.5 8a4 4 0 1 0-8.2 0 4 4 0 0 0 8.2 0m-64 0a4 4 0 1 0-8.2 0 4 4 0 0 0 8.2 0m16 0a4.1 4.1 0 1 0-8.2 0 4.1 4.1 0 0 0 8.2 0m16 0a4 4 0 1 0-8.2 0 4 4 0 0 0 8.2 0m16 0a4 4 0 1 0-8.2 0 4 4 0 0 0 8.2 0M47 42.9a4 4 0 1 0-8.2 0 4 4 0 0 0 8.2 0M35.7 31.6a4 4 0 1 0-8.2 0 4 4 0 0 0 8.2 0M24.3 20.3a4 4 0 1 0-8.2 0 4 4 0 0 0 8.2 0M13.1 9A4 4 0 1 0 5 9a4 4 0 0 0 8.2 0"/>
</svg>
