<svg xmlns="http://www.w3.org/2000/svg" viewBox="0 0 82 82">
  <path fill="none" stroke="#333" d="M9.3 81.3a8 8 0 0 1-8-8v-64a8 8 0 1 1 16 0v52a4 4 0 0 0 4 4h52a8 8 0 1 1 0 16h-64m20.1-8a4 4 0 1 0-8.2 0 4 4 0 0 0 8.2 0m48 0a4 4 0 1 0-8.2 0 4 4 0 0 0 8.2 0m-16 0a4 4 0 1 0-8.2 0 4 4 0 0 0 8.2 0m-16 0a4 4 0 1 0-8.2 0 4 4 0 0 0 8.2 0m-32 0a4 4 0 1 0-8.2 0 4 4 0 0 0 8.2 0m0-16a4 4 0 1 0-8.2 0 4 4 0 0 0 8.2 0m0-16a4 4 0 1 0-8.2 0 4 4 0 0 0 8.2 0m0-16a4 4 0 1 0-8.2 0 4 4 0 0 0 8.2 0m0-16a4 4 0 1 0-8.2 0 4 4 0 0 0 8.1 0"/>
</svg>
