<svg xmlns="http://www.w3.org/2000/svg" viewBox="0 0 114 146">
  <path fill="none" stroke="#333" d="M113.3 5.3v136a4 4 0 0 1-4 4H5.3a4 4 0 0 1-4-4V5.3a4 4 0 0 1 4-4h104a4 4 0 0 1 4 4m-99.9 4a4 4 0 1 0-8.2 0 4 4 0 0 0 8.2 0m19.9 16a8 8 0 1 0-16 0 8 8 0 0 0 16 0m12.1 16a4 4 0 1 0-8.2 0 4 4 0 0 0 8.2 0m16 16a4 4 0 1 0-8.2 0 4 4 0 0 0 8.2 0m16 16a4 4 0 1 0-8.2 0 4 4 0 0 0 8.2 0m19.9 16a8 8 0 1 0-16 0 8 8 0 0 0 16 0m12.1 16a4.1 4.1 0 1 0-8.2 0 4.1 4.1 0 0 0 8.2 0m0 16a4.1 4.1 0 1 0-8.2 0 4.1 4.1 0 0 0 8.2 0m0 16a4.1 4.1 0 1 0-8.2 0 4.1 4.1 0 0 0 8.2 0m-16 0a4.1 4.1 0 1 0-8.2 0 4.1 4.1 0 0 0 8.2 0m-16 0a4.1 4.1 0 1 0-8.2 0 4.1 4.1 0 0 0 8.2 0m-16 0a4.1 4.1 0 1 0-8.2 0 4.1 4.1 0 0 0 8.2 0m-16 0a4.1 4.1 0 1 0-8.2 0 4.1 4.1 0 0 0 8.2 0m-16 0a4.1 4.1 0 1 0-8.2 0 4.1 4.1 0 0 0 8.2 0m-16 0a4.1 4.1 0 1 0-8.2 0 4.1 4.1 0 0 0 8.2 0m83.9-16a8 8 0 1 0-16 0 8 8 0 0 0 16 0m-32 0a8 8 0 1 0-16 0 8 8 0 0 0 16 0m-32 0a8 8 0 1 0-16 0 8 8 0 0 0 16 0m-19.9 0a4 4 0 1 0-8.2 0 4 4 0 0 0 8.2 0m32 0a4.1 4.1 0 1 0-8.2 0 4.1 4.1 0 0 0 8.2 0m32 0a4.1 4.1 0 1 0-8.2 0 4.1 4.1 0 0 0 8.2 0m16-16a4.1 4.1 0 1 0-8.2 0 4.1 4.1 0 0 0 8.2 0m-80 0a4.1 4.1 0 1 0-8.2 0 4.1 4.1 0 0 0 8.2 0m16 0a4.1 4.1 0 1 0-8.2 0 4.1 4.1 0 0 0 8.2 0m16 0a4.1 4.1 0 1 0-8.2 0 4.1 4.1 0 0 0 8.2 0m16 0a4.1 4.1 0 1 0-8.2 0 4.1 4.1 0 0 0 8.2 0m16 0a4.1 4.1 0 1 0-8.2 0 4.1 4.1 0 0 0 8.2 0m0-16a4 4 0 1 0-8.2 0 4 4 0 0 0 8.2 0m-44.1 0a8 8 0 1 0-16 0 8 8 0 0 0 16 0m-19.9 0a4.1 4.1 0 1 0-8.2 0 4.1 4.1 0 0 0 8.2 0m32 0a4 4 0 1 0-8.2 0 4 4 0 0 0 8.2 0m16 0a4 4 0 1 0-8.2 0 4 4 0 0 0 8.2 0m3.9-16a8 8 0 1 0-16 0 8 8 0 0 0 16 0m-51.9 0a4.1 4.1 0 1 0-8.2 0 4.1 4.1 0 0 0 8.2 0m16 0a4 4 0 1 0-8.2 0 4 4 0 0 0 8.2 0m16 0a4 4 0 1 0-8.2 0 4 4 0 0 0 8.2 0m-12.1-16a8 8 0 1 0-16 0 8 8 0 0 0 16 0m-19.9 0a4.1 4.1 0 1 0-8.2 0 4.1 4.1 0 0 0 8.2 0m32 0a4 4 0 1 0-8.2 0 4 4 0 0 0 8.2 0m-16-16a4 4 0 1 0-8.2 0 4 4 0 0 0 8.2 0m-16 0a4 4 0 1 0-8.2 0 4 4 0 0 0 8.2 0m0-16a4 4 0 1 0-8.2 0 4 4 0 0 0 8.2 0m96 64a4.1 4.1 0 1 0-8.2 0 4.1 4.1 0 0 0 8.2 0m0-16a4.1 4.1 0 1 0-8.2 0 4.1 4.1 0 0 0 8.2 0m0-16a4.1 4.1 0 1 0-8.2 0 4.1 4.1 0 0 0 8.2 0m0-16a4.1 4.1 0 1 0-8.2 0 4.1 4.1 0 0 0 8.2 0m0-16a4.1 4.1 0 1 0-8.2 0 4.1 4.1 0 0 0 8.2 0m0-16a4.1 4.1 0 1 0-8.2 0 4.1 4.1 0 0 0 8.2 0m-12.1 48a8 8 0 1 0-16 0 8 8 0 0 0 16 0m0-32a8 8 0 1 0-16 0 8 8 0 0 0 16 0m-3.9-16a4 4 0 1 0-8.2 0 4 4 0 0 0 8.2 0m0 32a4 4 0 1 0-8.2 0 4 4 0 0 0 8.2 0m0 32a4 4 0 1 0-8.2 0 4 4 0 0 0 8.2 0m-16-64a4 4 0 1 0-8.2 0 4 4 0 0 0 8.2 0m0 16a4 4 0 1 0-8.2 0 4 4 0 0 0 8.2 0m0 16a4 4 0 1 0-8.2 0 4 4 0 0 0 8.2 0m0 16a4 4 0 1 0-8.2 0 4 4 0 0 0 8.2 0m-12.1-32a8 8 0 1 0-16 0 8 8 0 0 0 16 0m-3.9-16a4 4 0 1 0-8.2 0 4 4 0 0 0 8.2 0m0 32a4 4 0 1 0-8.2 0 4 4 0 0 0 8.2 0m-16-32a4 4 0 1 0-8.2 0 4 4 0 0 0 8.2 0m0 16a4 4 0 1 0-8.2 0 4 4 0 0 0 8.2 0m-16-16a4 4 0 1 0-8.2 0 4 4 0 0 0 8.2 0"/>
</svg>
