<svg xmlns="http://www.w3.org/2000/svg" viewBox="0 0 98 50">
  <path fill="none" stroke="#333" d="M93.3 49.3h-88a4 4 0 0 1-4-4v-40a4 4 0 0 1 4-4h88a4 4 0 0 1 4 4v40a4 4 0 0 1-4 4m-79.9-40a4 4 0 1 0-8.2 0 4 4 0 0 0 8.2 0m16 16a4 4 0 1 0-8.2 0 4 4 0 0 0 8.2 0m16 16a4 4 0 1 0-8.2 0 4 4 0 0 0 8.2 0m48-32a4 4 0 1 0-8.2 0 4 4 0 0 0 8.2 0m0 16a4 4 0 1 0-8.2 0 4 4 0 0 0 8.2 0m0 16a4 4 0 1 0-8.2 0 4 4 0 0 0 8.2 0m-16 0a4 4 0 1 0-8.2 0 4 4 0 0 0 8.2 0m-16 0a4 4 0 1 0-8.2 0 4 4 0 0 0 8.2 0m16-16a4 4 0 1 0-8.2 0 4 4 0 0 0 8.2 0m-16 0a4 4 0 1 0-8.2 0 4 4 0 0 0 8.2 0m-16 0a4 4 0 1 0-8.2 0 4 4 0 0 0 8.2 0m32-16a4 4 0 1 0-8.2 0 4 4 0 0 0 8.2 0m-32 0a4 4 0 1 0-8.2 0 4 4 0 0 0 8.2 0m16 0a4 4 0 1 0-8.2 0 4 4 0 0 0 8.2 0m-32 0a4 4 0 1 0-8.2 0 4 4 0 0 0 8.2 0m-16 32a4 4 0 1 0-8.2 0 4 4 0 0 0 8.2 0m16 0a4 4 0 1 0-8.2 0 4 4 0 0 0 8.2 0m-16-16a4 4 0 1 0-8.2 0 4 4 0 0 0 8.2 0"/>
</svg>
