<svg xmlns="http://www.w3.org/2000/svg" viewBox="0 0 114 50">
  <path fill="none" stroke="#333" d="M89.3 1.3a24 24 0 1 1 0 48h-64a24 24 0 1 1 0-48h64M18.1 36.6a4 4 0 1 0-8.2 0 4 4 0 0 0 8.2 0m43.2 4.7a4 4 0 1 0-8.2 0 4 4 0 0 0 8.2 0m32 0a4 4 0 1 0-8.2 0 4 4 0 0 0 8.2 0m11.3-4.7a4.1 4.1 0 1 0-8.2 0 4.1 4.1 0 0 0 8.2 0m4-11.3a3.3 3.3 0 1 0-6.6 0 3.3 3.3 0 0 0 6.6 0m-80 16a3.3 3.3 0 1 0-6.6 0 3.3 3.3 0 0 0 6.6 0m12.1-4.7a4 4 0 1 0-8.2 0 4 4 0 0 0 8.2 0m41.4 0a4 4 0 1 0-8.2 0 4 4 0 0 0 8.2 0M104.7 14a4.1 4.1 0 1 0-8.2 0 4.1 4.1 0 0 0 8.2 0m-7.4 11.3a8 8 0 1 0-16 0 8 8 0 0 0 16 0m-32 0a8 8 0 1 0-16 0 8 8 0 0 0 16 0m-32 0a8 8 0 1 0-16 0 8 8 0 0 0 16 0m12.1 0a4 4 0 1 0-8.2 0 4 4 0 0 0 8.2 0m31.2 0a3.3 3.3 0 1 0-6.6 0 3.3 3.3 0 0 0 6.6 0m16.8-16a4 4 0 1 0-8.2 0 4 4 0 0 0 8.2 0m-80 16a4 4 0 1 0-8.2 0 4 4 0 0 0 8.2 0M40.7 14a4 4 0 1 0-8.2 0 4 4 0 0 0 8.2 0m41.4 0a4 4 0 1 0-8.2 0 4 4 0 0 0 8.2 0m-64 0a4 4 0 1 0-8.2 0 4 4 0 0 0 8.2 0m43.2-4.7a4 4 0 1 0-8.2 0 4 4 0 0 0 8.2 0m-32.7 0a3.3 3.3 0 1 0-6.6 0 3.3 3.3 0 0 0 6.6 0"/>
</svg>
