<svg xmlns="http://www.w3.org/2000/svg" viewBox="0 0 182 26">
  <path fill="none" stroke="#333" d="M20.5 22.5a12 12 0 1 1 0-19.2 8 8 0 0 0 4.8 1.6h104a8 8 0 0 0 4.8-1.6 12 12 0 0 1 14.4 0 8 8 0 0 0 4.8 1.6h20a8 8 0 0 1 0 16h-20a8 8 0 0 0-4.8 1.6 12 12 0 0 1-14.4 0 8 8 0 0 0-4.8-1.6h-104a8 8 0 0 0-4.8 1.6m156.9-9.6a4 4 0 1 0-8.2 0 4 4 0 0 0 8.2 0m-28.1 0a8 8 0 1 0-16 0 8 8 0 0 0 16 0m12.1 0a4.1 4.1 0 1 0-8.2 0 4.1 4.1 0 0 0 8.2 0m-140.1 0a8 8 0 1 0-16 0 8 8 0 0 0 16 0m12.1 0a4 4 0 1 0-8.2 0 4 4 0 0 0 8.2 0m16 0a4 4 0 1 0-8.2 0 4 4 0 0 0 8.2 0m16 0a4 4 0 1 0-8.2 0 4 4 0 0 0 8.2 0m16 0a4 4 0 1 0-8.2 0 4 4 0 0 0 8.2 0m16 0a4 4 0 1 0-8.2 0 4 4 0 0 0 8.2 0m16 0a4.1 4.1 0 1 0-8.2 0 4.1 4.1 0 0 0 8.2 0m16 0a4.1 4.1 0 1 0-8.2 0 4.1 4.1 0 0 0 8.2 0"/>
</svg>
