<svg xmlns="http://www.w3.org/2000/svg" viewBox="0 0 118 118">
  <path fill="none" stroke="#333" d="m2.7 71.4-.2-.8v-.3h.2v-.1h.1l.1-.1H3V70h.3v-.1l.1-.1h.1l.1-.1h.1v-.1h.1l.2-.1.1-.3-.4-1.3h-.4l-.1-.1h-.7v-.1H2v-.1h-.1v-.1l-.2-1v-.2H2v-.1h.3l.1-.1h.1l.1-.1h.1l.1-.1h.1l.1-.1h.1l.1-.1.2-.1.1-.2-.3-1.4h-.3l-.1-.1h-.5v-.1h-.5v-.1h-.3v-.1h-.1v-1.3l.1-.1h.2V62H2.3v-.1h.2l.1-.1h.2v-.1h.1l.2-.1.1-.2v-1.1c0-.1 0-.2-.2-.2h-.2l-.1-.1h-.4v-.1h-.4v-.1h-.3v-.1h-.3v-1.4h.5l.1-.1h.2l.1-.1h.1l.1-.1h.2l.1-.1h.1l.2-.1.2-.2v-1.2l-.1-.2h-.2V56H2.3v-.1H2v-.1h-.3v-.1h-.3v-1.4H2l.1-.1h.2l.1-.1h.4V54h.4l.2-.1.1-.2v-1.4h-.2v-.1h-.2L3 52h-.4v-.1h-.3l-.1-.1H2v-.1h-.2v-.2h-.1v-.2l.1-1h.7l.1-.1h.7V50h.6l.1-.2.2-1.3v-.2H4l-.1-.1h-.1l-.1-.1h-.1l-.1-.1h-.2l-.1-.1h-.1v-.1h-.2l-.1-.1h-.1v-.1h-.1l-.1-.1v-.1c0-.4 0-.7.2-1v-.2h.6l.1-.1h.9V46h.2c.1 0 .2 0 .2-.2l.3-1.2-.1-.2h-.1l-.1-.1h-.1v-.1h-.3l-.1-.1h-.1V44H4l-.1-.1h-.1v-.1h-.2v-.1h-.1v-.2h-.2v-.1c0-.3.2-.6.3-.8v-.2h2l.2-.2.4-1.2v-.2l-.2-.1h-.1v-.1h-.1v-.1h-.1l-.1-.1h-.3v-.2h-.2v-.1H5V40h-.1l-.1-.1h-.1v-.4l.2-1h2l.2-.1.5-1.1V37h-.4v-.1h-.1l-.1-.1h-.1v-.1l-.1-.1h-.1v-.1h-.1v-.1h-.1l-.2-.1h-.1v-.1l-.1-.1V36l.4-1h2.2l.5-1.1v-.2l-.1-.1H9v-.1h-.1v-.2h-.2v-.1h-.1V33h-.3v-.2h-.1v-.1h-.1v-.1H8v-.1h-.1v-.3c0-.3.2-.5.4-.8v-.2h1.5v.2h.7l.6-1.1v-.1l-.1-.1-.1-.1-.1-.1v-.1h-.1v-.1h-.1v-.1h-.3v-.2h-.1v-.2H10v-.1h-.1V29h-.1v-.2l.5-.8h1.4v.2h.8l.7-1V27l-.1-.1v-.1H13v-.1h-.1v-.1h-.1v-.1l-.1-.1v-.1h-.1v-.1h-.3V26l-.1-.1v-.1h-.1v-.1H12v-.4l.5-.8h1l.1.2h.5l.2.2h.3l.7-1v-.5h-.1v-.1l-.1-.1H15v-.1l-.1-.1h-.1v-.1l-.1-.1v-.1h-.1v-.1h-.1v-.3l.6-.7v-.1h.7l.1.2h.4l.1.2h.3l.2.2h.2l.8-1c.1 0 .1-.1 0-.2v-.2l-.1-.1v-.1h-.1v-.2h-.1v-.1h-.1V20h-.2v-.3l-.1-.1v-.3l.6-.7h.8v.2h.4v.2h.4l.2.3h.2l.9-1V18l-.1-.1v-.1l-.1-.1v-.2h-.2v-.4l-.1-.1v-.2h-.1v-.2H20v-.4l.7-.6h.6l.1.2h.3v.2h.3l.1.2h.2l.1.2h.3l1-.8v-.4h-.1V15h-.1v-.2l-.1-.1v-.1l-.1-.1v-.2h-.1v-.1l-.1-.1v-.4l.7-.6h.5v.2h.3v.2h.3v.2h.3v.2h.1l.2.2h.2l1-.8s.1-.1 0-.2v-.5h-.1v-.4h-.1V12h-.2v-.7l.8-.5h.6v.2h.2v.2h.3v.2h.2l.1.2h.1l.2.2h.2l1.1-.8v-.6H30V10h-.1v-.3l-.1-.1v-.3l.8-.5h.5V9h.2v.3h.3l.1.2h.1l.1.2h.1l.1.2h.3l1-.5.2-.2v-.3l-.1-.1v-.5h-.2v-.5h-.1v-.5h.1l.8-.5h.4V7h.1l.1.2h.1l.1.2h.1v.2h.2l.1.2h.1l.1.3h.3l1-.5c.2 0 .2-.1.2-.2v-.7l-.1-.1v-1l.9-.4h.3v.2h.2v.2h.1l.1.2h.1l.1.2v.3h.2l.1.2h.1l.3.2 1.1-.4.1-.2V4.3h.1l.9-.3h.3v.3h.2v.2h.2v.2h.1V5h.2v.2h.1l.1.3h.3c.4 0 .7-.2 1.1-.3.1 0 .2 0 .2-.2V3.3h.2v-.1l.9-.2h.2l.1.2h.1l.1.2h.1v.3h.2V4h.1l.1.2.1.2h.2c.4 0 .8 0 1.2-.2l.2-.1V3h.1v-.7h.2l1-.2h.1v.2h.1v.2h.1v.2h.1v.2h.1l.1.2.1.2h.1v.2l.1.2h.3l1.2-.1.1-.2v-.1h.1v-.6h.1v-.8h.1v-.3h.2l1-.2h.1v.2h.1v.2h.1v.5h.1v.2h.1v.2h.1v.2h.1v.2l.1.2h1.5l.1-.1V3h.1v-.4h.1V2h.1v-.4h.1v-.3h.2l1-.1h.1v.2h.1v.2h.1V2h.1v.4h.1v.4h.1V3l.1.2.2.2h1.3l.1-.2V3h.1v-.5l.1-.1v-.1h.1v-.4l.1-.1v-.2l.1-.1v-.2h1.3v.2h.1v.4h.1v.4h.1v.3h.1V3h.1v.2h.2l1.3.2.2-.1v-.4h.1v-.4h.1v-.2h.1V2h.1v-.2h.1v-.2h.1v-.1h1.3v.2h.1v.6h.1v.4h.1v.6h.1v.2l.2.2 1.2.2.2-.1v-.2h.1v-.3l.1-.1V3h.1v-.1l.1-.1v-.2h.1v-.2h.1v-.1h.1V2H69.6v.3h.1v.4h.1v.8h.1v.7l.2.2 1.3.2h.2V4h.1l.1-.1v-.1l.1-.1v-.1h.1v-.2h.1v-.1l.1-.1V3h.1v-.2h.1v-.1h.2l.9.2h.1v.4h.1V5h.2l1.2.5h.2v-.2h.1V5l.1-.1v-.1h.1v-.1h.1v-.2h.1v-.1l.1-.1v-.1h.1v-.1h.1V4h.4l.9.2h.1v2s0 .2.2.2l1.1.4h.2l.1-.1v-.1h.1v-.3h.1l.1-.1.1-.1V6h.1v-.1l.1-.1.1-.1v-.1h.1v-.1h.1v-.2h.3l.8.3h.1v2.2l1.1.5h.2l.1-.1.1-.1.1-.1.1-.1v-.1h.1v-.1h.1v-.1h.1v-.3h.1l.1-.1.1-.1.1-.1h.1v-.1h.2l.8.4h.1v1.2h-.1V9l-.1.2.1.2 1 .6h.3l.1-.1v-.1h.1v-.1h.1l.1-.1.1-.1v-.3h.1l.1-.1.1-.1h.1l.1-.1.1-.1h.1v-.1h.2l.8.4h.1v1h-.1v.6h-.1v.5c-.1 0 0 .2 0 .2l1 .7h.3V12h.1v-.1h.1v-.1h.1l.1-.1.1-.1h.1v-.3h.2v-.1h.1l.1-.1h.1V11h.1v-.1h.4l.7.5h.1v.6h-.1v.5h-.1v.4h-.3v.3h-.1v.4l1 .7h.4v-.1h.1V14h.2l.1-.1h.1v-.1h.1v-.1h.2v-.1h.1v-.3h.1l.1-.1h.1V13h.2l.8.6v.6h-.1v.5h-.1v.3h-.1v.2h-.1v.2l-.1.2v.2l1 .8h.4v-.1h.1l.1-.1h.1v-.2h.2v-.1h.1l.1-.1h.2l.1-.1h.1v-.1h.5l.7.6h.1v.4H98v.2h-.1v.3h-.1v.2h-.1v.2h-.1v.3h-.3v.2c-.1 0 0 .2 0 .2l.9.9h.4l.1-.1h.1V19H99.1l.1-.1h.2v-.1h.1l.1-.1h.1v-.1h.5l.6.6v.5h-.1v.2h-.1v.2h-.1v.2h-.2v.4h-.1l-.1.3v.2l.8 1h.3V22h.2l.1-.1h.2v-.1h.2v-.1h.2v-.1h.2v-.1h.2v-.1h.4l.6.7v.4h-.1v.2h-.1l-.1.2h-.1v.3h-.1l-.1.2h-.1v.2l-.2.2v.3l.8 1h.4V25H104.4l.1-.1h.2v-.1h.2l.1-.1h.5l.5.7v.4h-.1v.2h-.2v.2h-.1v.2h-.1l-.1.2h-.1v.2h-.1l-.1.2v.3l.7 1h.7v-.1h.4V28H107.8l.5.8v.4h-.2v.2h-.1l-.1.2h-.1v.2h-.2v.2h-.2v.2h-.1l-.1.2v.3l.6 1h1.1l.1-.1h.4v-.3h.4l.5.9v.2h-.1l-.1.2h-.1l-.1.2h-.1l-.1.2h-.1l-.1.2h-.1l-.1.2h-.1l-.1.3s-.1 0 0 .2l.5 1c0 .2 0 .2.2.2h.6V35h.6l.1-.1h.5l.4.9v.5h-.2l-.1.2h-.1l-.1.2h-.2v.2h-.2v.2h-.2v.2h-.2v.3l.6 1.3h1v-.1h.7l.4 1v.2h-.3v.2h-.2v.2h-.3v.2h-.2v.2h-.2l-.2.3s-.1 0 0 .2c0 .4.2.8.3 1l.2.3h1.8l.3 1v.2h-.2l-.1.2h-.2l-.1.2h-.2l-.1.2h-.2l-.1.2h-.1l-.2.2v.2l.2 1.2.2.2h1.9v.2l.2 1-.1.2h-.3v.2h-.3l-.1.2h-.3v.2h-.2l-.2.2-.1.2.2 1.2s0 .2.2.2h1.4l.1.2h.2v.2l.2.9v.2h-.4v.2h-.4v.2h-.4v.2h-.4l-.1.4.1 1.2.2.2h1v.2h.6v.2h.1l.1 1v.2h-.5v.2h-.7v.2h-.5v.2h-.2l-.1.3v1.2l.2.2h.9v.2h.7l.1.2h.2v1.3h-.7v.2h-.6l-.1.2h-.5l-.2.4v1.2l.1.2h.8v.2h.5v.2h.4v.3h.1v1h-.3v.2h-.8v.2h-.8l-.1.3v1.5h.4l.1.2h.4v.2h.6v.2h.2v.2l-.1 1h-.6v.2h-1.1l-.1.2h-.3l-.1.2-.2 1.2v.2h.3l.1.2h.3v.2h.4v.2h.4v.2h.1v.2c0 .3 0 .6-.2 1h-.9v.2h-.8l-.2.2-.3 1.2.1.2h.2v.2h.3l.1.2h.2l.1.2h.3v.2h.2v.2h.1c0 .5-.2.7-.3 1h-.4v.2h-1.5l-.2.2a53 53 0 0 1-.1 1.5h.1l.1.2h.2l.1.2h.2v.2h.3v.2h.1v.2l-.2.8h-1.9c-.1 0-.2 0-.2.3l-.5 1v.3h.2l.1.2h.2v.2h.2v.2h.2l.1.2h.2v.2h.2v.3l-.4.8h-.1v.2h-.9l-.1-.1h-1l-.5 1v.4h.2v.2h.2l.1.2h.1l.1.2h.2v.2h.2v.2h.1v.4l-.3.9h-1.3l-.1-.1h-.3l-.3-.1h-.2l-.6 1v.4h.2v.2h.1l.1.2h.1l.1.2h.1l.1.2h.1v.2h.2v.2h.1v.2l-.5.8h-1.2v-.1h-.3l-.1-.1h-.5l-.7 1v.3h.1l.1.2h.1v.2h.2v.2h.1l.1.2h.1v.2h.2v.5l-.5.8h-.6l-.1-.1h-.2l-.1-.1h-.2l-.1-.1h-.2l-.1-.1h-.4l-.8 1v.2h.1l.1.2h.1v.2h.1v.2h.2v.3h.2v.3h.1v.4l-.6.7h-.4v-.2h-.2l-.1-.1h-.2V96h-.5v-.1h-.2l-.2-.1h-.2l-.8 1c-.1 0-.1 0 0 .2v.2h.1l.1.2h.1v.3h.1l.1.2.1.2h.1v.5l-.6.7h-.7v-.1h-.1V99h-.4v-.1h-.2v-.1h-.4c0-.1-.1-.1-.2 0l-.9.8v.4h.1v.2h.1v.2h.1v.2h.1v.2h.1v.2h.1v.2h.1v.4l-.7.7h-.4v-.1h-.2v-.1h-.1l-.1-.1h-.1v-.1h-.2v-.1H96l-.1-.1h-.1l-.1-.1h-.1l-.1-.1h-.2l-1 1h.1v.3h.1v.3h.1v.2h.1v.2h.1v.3h.1v.4l-.7.6h-.4l-.1-.1h-.1v-.1h-.1l-.1-.1h-.1v-.1h-.1l-.1-.1H93v-.1h-.1l-.1-.1h-.1v-.1h-.2c0-.1-.1-.1-.2 0l-1 .6v.7h.1v.3h.1v.3h.1v.3h.1v.4l-.8.6h-.4v-.1h-.1v-.1h-.1l-.1-.1h-.1v-.1H90v-.1h-.1l-.1-.1h-.1v-.1h-.1v-.1h-.1l-.1-.1-.2-.2H89l-1.1.9v.5h.1v.4h.1v.4h.1v.5l-.8.5h-.3v-.1H87v-.1h-.1l-.1-.1-.1-.1-.1-.1h-.1v-.1h-.1v-.1h-.1v-.2h-.1v-.1h-.1l-.1-.2h-.3l-1 .6-.2.2v.2h.1v.5h.1v.5h.1v.5h-.1l-.8.4h-.4v-.1h-.1v-.1h-.1v-.2h-.1v-.1h-.1v-.1H83v-.1h-.1v-.1h-.1v-.1h-.1v-.1h-.1l-.1-.2h-.3l-1.2.7v.7h.1v1l-.9.4h-.4v-.1h-.1v-.1l-.1-.1-.1-.1v-.1h-.1v-.1h-.1v-.2h-.1v-.2h-.1v-.1H79l-.1-.2h-.3a3 3 0 0 0-1.1.4c-.1 0-.2 0-.2.2v.8h.1v1h-.1l-.9.4h-.2v-.1h-.1v-.1H76v-.2h-.1v-.1h-.1v-.1l-.1-.1v-.1h-.1v-.1h-.1v-.1l-.1-.1v-.1h-.1v-.1l-.1-.1-.3-.1-1.1.3-.2.2v1.6h-.3l-.9.4h-.1v-.2h-.1v-.1h-.1v-.2H72v-.2h-.1v-.1h-.1v-.2h-.1v-.1l-.1-.1v-.1h-.1v-.1l-.1-.1-.2-.1-1.2.2-.2.2v1h-.1v.7h-.2l-1 .3h-.2v-.3h-.1v-.2h-.1v-.2H68v-.2h-.1v-.2h-.1v-.2h-.1v-.1l-.2-.2-.2-.1-1.2.2H66v.4h-.1v.6h-.1v.6h-.1v.2h-.2l-.9.2h-.3v-.4h-.1v-.2h-.1v-.2l-.1-.1v-.1l-.1-.1v-.2h-.1v-.2l-.1-.1-.2-.2h-1.3l-.1.3v.2H62v.4h-.1v.4h-.1v.4h-.1v.2h-1.4v-.4h-.1v-.2l-.1-.1v-.2l-.1-.1v-.2h-.1v-.3l-.1-.1-.2-.2h-1.3l-.1.2h-.1v.6H58v.3h-.1v.3h-.1v.2h-.1v.2h-1.4v-.4h-.1v-.4l-.1-.1v-.3H56v-.3l-.1-.2-.2-.2h-1.4l-.1.2v.2h-.1v.2H54v.3h-.1v.2h-.1v.3h-.1v.2h-1.4v-.6l-.1-.1v-.4l-.1-.1v-.4l-.1-.2-.2-.2h-1.5v.3h-.1v.2h-.1v.2H50v.2h-.1v.2h-.1v.2h-.1v.2h-1.2v-.1h-.2v-1.1l-.1-.1v-.6l-.2-.2-1.2-.2h-.3v.2h-.1v.2h-.1v.2h-.1v.2h-.1l-.1.2-.1.2h-.1v.3h-.4l-.9-.1v-.1h-.1v-.4l-.1-.1v-1.3l-.2-.2-1.4-.2h-.1l-.1.2h-.1v.2h-.1v.2l-.1.2h-.1v.2H42v.2h-.2v.2h-.2c-.3 0-.6-.2-.8-.3h-.1v-.1h-.1v-1.8l-.1-.2c-.4 0-.8-.2-1.2-.4h-.2l-.1.2h-.1v.2h-.2v.2h-.1v.2h-.3v.4h-.2v.2h-.4c-.3 0-.5-.2-.8-.3h-.1V110l-1.4-.4h-.1v.2h-.1l-.1.2H35v.2h-.2v.2h-.2v.2h-.3v.2H34c-.3 0-.5-.2-.8-.4h-.1v-1h.1v-.6l.1-.2-.1-.3-1-.5h-.4l-.1.2h-.2v.2h-.2v.2h-.1v.2H31v.2h-.2v.2h-.2l-.8-.5h-.1v-.8l.1-.1v-.4h.1v-.6c.1 0 0-.1 0-.2l-1.3-.6h-.1l-.1.2h-.2v.2H28v.2h-.3v.2h-.2v.2H27l-.7-.4v-.7h.1v-.3l.1-.1v-.2l.1-.1v-.3l.1-.2v-.2l-1-.7h-.5l-.1.2h-.2v.2h-.3v.2h-.3l-.1.2h-.4l-.8-.4v-.6l.1-.1v-.2l.1-.1v-.2h.1v-.2l.1-.1v-.2l.1-.2v-.2l-1-.8H22v.2h-.2l-.1.2h-.3v.2h-.3v.2h-.4l-.7-.5v-.1h-.1v-.4h.1v-.2h.1v-.2l.1-.1v-.1l.1-.1v-.2h.1v-.2h.1v-.5l-.9-.8h-.4l-.1.2h-.3v.2h-.5v.2h-.6l-.6-.5V98h.1v-.2h.1v-.1l.1-.1v-.1h.1v-.2h.1v-.1h.1v-.1l.1-.2v-.2l-.8-1h-.6v.2h-.3l-.1.2h-.4v.2H15l-.6-.7v-.4h.1v-.1h.1V95h.1v-.1l.1-.1v-.1h.1v-.1l.1-.1v-.2l.1-.1V94l.2-.2v-.2l-.8-1h-.7l-.1.2h-.4v.2h-.8l-.5-.7V92h.1v-.1h.1v-.2h.1v-.1h.1v-.1h.1v-.2h.2v-.1l.1-.1.1-.2v-.2l-.6-1-.3-.1h-.6l-.1.2h-.6v.2h-.4l-.5-.8v-.4h.1v-.1h.1v-.1h.1v-.2h.2v-.1h.1v-.1h.1V88l.1-.1.1-.1v-.1h.1l.1-.2v-.2l-.6-1-.2-.2h-.6l-.1.2H8.3l-.5-.7v-.4H8v-.1h.1V85h.2v-.2h.1v-.1h.1l.1-.2h.1v-.1h.1v-.2H9V84s.1-.2 0-.2l-.5-1.1-.2-.1H6.8v.2h-.4v-.1L6 82v-.3h.3v-.2h.1v-.1h.1v-.1h.1l.1-.1V81h.1l.1-.1.1-.1h.1v-.1h.2v-.1l.2-.1v-.3l-.4-1-.2-.1H5l-.4-1V78h.2v-.1h.1l.1-.1.1-.1h.2v-.1l.1-.1.1-.1h.1v-.1h.1v-.1h.1V77H6v-.3l-.3-1.2-.2-.1H3.8v-.2h-.1l-.4-1 .1-.1h.1V74h.1l.1-.1h.1v-.1h.1l.1-.1h.3v-.2h.1l.1-.1h.1v-.2h.1l.2-.1v-.3l-.2-1.1-.2-.2H2.9v-.1h-.2v-.1M59 111a4.2 4.2 0 1 0-3-7.2l-.4.2H54c-.2 0-.3 0-.4-.2a.6.6 0 0 1-.2-.4v-10c0-.3.3-.6.6-.6h1c.2 0 .4 0 .5.3a4.2 4.2 0 1 0 0-4.6c-.1.2-.3.3-.5.3h-1c-.2 0-.3 0-.4-.2a.6.6 0 0 1-.2-.4V77.6c0-.2 0-.3.2-.4 0-.2.2-.2.4-.2h1c.2 0 .4 0 .5.3a4.2 4.2 0 1 0 0-4.6c-.1.2-.3.3-.5.3h-1.3a.6.6 0 0 1-.5-.3A12 12 0 0 0 43 67H17.8a8 8 0 0 0-7.5 10.9A52.2 52.2 0 0 0 59 111.2m18.9-3.6c20-7.8 33.3-27 33.3-48.6a4.2 4.2 0 0 0-7.8-2.1 4 4 0 0 0 .6 5l.2.5V64s0 .3-.2.4l-.4.2h-10a.6.6 0 0 1-.6-.6v-1c0-.2.1-.4.3-.5a4.2 4.2 0 1 0-4.6 0c.2 0 .3.3.3.5v1s0 .3-.2.4l-.4.2H77.6c-.2 0-.3 0-.4-.2a.6.6 0 0 1-.2-.4v-1c0-.2.1-.4.3-.5a4.2 4.2 0 1 0-4.6 0c.2 0 .3.3.3.5v1.3c0 .3-.1.4-.3.6A12 12 0 0 0 67 75v25.2a8 8 0 0 0 10.9 7.4M61.9 14l.5-.2H64c.2 0 .3 0 .4.2l.2.4v10c0 .3-.3.6-.6.6h-1a.6.6 0 0 1-.5-.3 4.2 4.2 0 1 0 0 4.6c.1-.2.3-.3.5-.3h1c.2 0 .3 0 .4.2l.2.4v10.6s0 .3-.2.4l-.4.2h-1a.6.6 0 0 1-.5-.3 4.2 4.2 0 1 0 0 4.6c.1-.2.3-.3.5-.3h1.3c.2 0 .4 0 .5.3A12 12 0 0 0 75 50.9h25.2a8 8 0 0 0 7.5-11c-7.9-20-27.2-33-48.7-33a4.2 4.2 0 1 0 3 7.2m5 45a8 8 0 1 0-16 0 8 8 0 0 0 16 0M6.8 59a4.2 4.2 0 1 0 7.2-3 .6.6 0 0 1-.2-.4V54c0-.2 0-.3.2-.4l.4-.2h10c.3 0 .6.3.6.6v1l-.3.4a4.2 4.2 0 0 0 2.3 7.8 4.2 4.2 0 0 0 2.3-8 .6.6 0 0 1-.3-.5v-1s0-.2.2-.3l.4-.2h10.8c.2 0 .3 0 .4.2l.2.4v1l-.3.4A4.2 4.2 0 0 0 43 63a4.2 4.2 0 0 0 2.3-7.8.6.6 0 0 1-.3-.5v-1.2c0-.2.1-.4.3-.5A12 12 0 0 0 51 42.9V17.8a8 8 0 0 0-10.9-7.5A52.2 52.2 0 0 0 6.8 59"/>
</svg>
