<svg xmlns="http://www.w3.org/2000/svg" viewBox="0 0 81 82">
  <path fill="none" stroke="#333" d="m1.5 36.4.1-.1h.1v-.1h.6l.1-.1h.4l.2-.3.2-1.5-.1-.3h-.2v-.1h-.2v-.1h-.4v-.1l-.1-.1H2v-.3l.1-1h1.1v-.1h.3l.2-.2.4-1.5-.1-.3h-.2V30h-.2l-.1-.1h-.2v-.1h-.1l-.1-.1H3v-.2l.2-1h1.3l.2-.2.4-1.7v-.3h-.3v-.1h-.1l-.1-.1-.1-.1h-.2v-.4c0-.3.2-.6.3-.8v-.1h.1v-.1h1.6l.6-1.7-.2-.1v-.1h-.1v-.1h-.3v-.2h-.1v-.1h-.1V22l.4-.8V21h1.6l.8-1.5-.2-.2v-.1h-.4V19h-.1v-.4l.4-.7h.1v-.1h.9v.2h.6l1-1.2v-.3l-.1-.1v-.1H11v-.1l-.1-.1V16h-.1v-.1l-.1-.1v-.5l.5-.7h.8v.2h.7l1-1v-.5h-.1V13h-.3v-.5l.6-.6h.1v-.1h.5v.2h.3v.2h.6l1.1-1v-.6h-.2v-.7l.7-.6h.5l.1.2h.2l.1.2h.5l1.2-.7.1-.3v-.4h-.1v-.4h-.1v-.4l.8-.5h.5v.3h.2l.1.2h.2l.1.3h.3l1.4-.7V5.6l.8-.5h.3v.2h.3v.2h.2v.2l.2.2h.3l1.4-.6.1-.2V4l.1-.1.8-.3h.4v.2h.1V4h.2v.3h.1l.1.2h.3l1.4-.3.2-.3V2.8h.1v-.1h.1l.9-.3h.2l.1.2h.1V3h.2v.4l.2.2h.2l1.5-.2.2-.2v-.5h.1V2l.1-.1h.1v-.1l1-.1h.2V2h.1v.4h.1v.2h.1l.1.3h1.8l.2-.2V2h.1v-.5h.1v-.2h.1v-.1h.1l1-.1h.1v.2h.1v.5h.1V2h.1v.4H42v-.3l.1-.1v-.3l.1-.1v-.2h.1v-.2h1.3v.3h.1V2h.1v.5l.3.2h1.8v-.2l.1-.1v-.2l.1-.1V2l.1-.1v-.1l.1-.1v-.1h1.2v.2h.1v.5h.1V3l.3.2 1.4.3.3-.1.1-.2V3h.1v-.1l.1-.1v-.1h.1v-.2h.1v-.1h1.2v.2h.1v1.3l.2.3 1.8.3v-.2h.1v-.1h.1V4l.1-.1v-.1h.1v-.1h.1v-.1h.1v-.1h.2l.9.3h.1v1.3l.1.2 1.4.6h.3l.1-.1v-.1h.1v-.1h.1v-.1h.1v-.3h.2v-.1h.1l.1-.1h.1l.8.4h.1v1l-.1.3.1.3 1.6.7.2-.1v-.1h.1v-.3h.1l.1-.1.1-.1h.2v-.1h.2l.8.5h.1V8h-.1v.5h-.1v.6l1.3.8h.4l.1-.1h.1v-.1h.1l.1-.1.1-.1h.1v-.2h.3l.8.5v.6h-.1v.3h-.2v.6l1.1 1h.5v-.1h.1l.1-.1h.1V12h.2v-.1h.2v-.1h.2l.7.7v.5h-.2l-.1.2-.1.2-.1.2v.3l1.4 1.2.1-.1h.2v-.1h.2l.1-.1h.2v-.1h.5l.6.7v.4h-.1v.2h-.1v.2H71l-.2.3v.3l1 1.2h.8v-.1h.3v-.1h.3l.5.8v.4h-.4v.2h-.1v.2h-.1l-.2.3v.3l.8 1.2.3.2h.2v-.1h.4v-.1h.6l.4.8v.3h-.1l-.1.2h-.1l-.1.2h-.1l-.2.3v.3l.9 1.5h1v-.1h.3l.3.9v.4h-.2v.2H77v.2h-.2l-.2.3v.2l.5 1.5h1.3v.2h.1l.3.9v.2h-.2v.2h-.3v.2h-.2l-.2.2-.1.3.4 1.5.2.2h1.1v.2l.3 1h-.1l-.1.2h-.3v.2H79l-.2.2a77.7 77.7 0 0 0 .3 2h.7v.2h.3v.2l.1.9v.2h-.5v.2h-.3l-.2.2-.2.3.1 1.5s0 .2.2.2h.7l.1.2h.3v1.4h-.5l-.1.2h-.4l-.2.3v1.8h.4l.1.2h.4l.1.2h.1v1h-.1v.2h-.5v.2h-.6l-.2.3-.1 1.8h.3l.1.2h.3v.2h.2v.3l-.1.9H79l-.1.2h-.6l-.2.2-.4 1.5.1.3h.3v.2h.3v.2h.2v.2h.1v.2c0 .3-.2.5-.3.8h-.1v.2h-1s-.2 0-.2.2l-.5 1.4v.3h.2l.1.2h.2v.2h.2v.2h.1v.2l-.3.9h-1.5l-.6 1.5v.3h.1v.2h.2l.1.2h.1v.2h.2v.4l-.4.8h-1l-.2-.1h-.3l-.8 1.4v.3h.1l.1.2h.1v.2h.2v.2h.1v.4l-.5.7h-1v-.1h-.3c0-.1-.2 0-.2 0l-1 1.2v.3l.1.2h.1v.2h.1l.1.2h.1v.5l-.6.7H70V67h-.2l-.1-.1h-.1l-.2-.1h-.3L68 68.2v.2h.1l.1.2.1.2.1.2v.3l-.6.6h-.5v-.1h-.2v-.1H67l-.1-.1h-.6l-1.1 1c-.1 0-.1 0 0 .2v.5h.1v.2h.1v.5l-.7.5h-.4v-.2h-.1v-.1h-.1L64 72h-.1l-.2-.1h-.3l-1.2.9c-.1 0-.2 0-.1.2v.5h.1v.4h.1v.4h-.1l-.7.5h-.4l-.1-.1h-.1v-.1h-.1v-.3h-.2v-.1h-.1l-.2-.2H60l-1.3.7-.1.3v.6h.1v.6l-.9.4h-.2l-.1-.1v-.2h-.2V76h-.1l-.2-.2h-.3l-1.4.5-.1.2v1.2h-.1l-.9.3H54v-.1h-.1v-.1h-.1v-.1h-.1v-.1l-.1-.1v-.1h-.1l-.2-.1-.3-.1-1.6.7v1h-.1l-.9.4h-.2v-.1h-.1V79H50v-.1h-.1v-.1l-.1-.1v-.1l-.2-.2c0-.1-.1-.2-.3-.1l-1.4.3c-.1 0-.2 0-.2.2v.3h-.1v.6h-.1v.2h-.2l-1 .2V80h-.1v-.2h-.1v-.2l-.1-.1v-.2l-.1-.1-.1-.3H44s-.2 0-.2.3v.2h-.1v.6h-.1v.3h-.3l-1 .2v-.2l-.1-.1V80h-.1v-.4H42v-.1l-.1-.3-.3-.1h-1.7v.3h-.1v.3h-.1v.5h-.1v.2h-1.3v-.1l-.1-.1v-.5l-.1-.1v-.2l-.1-.2c0-.2-.1-.2-.2-.2l-1.5-.2c-.1 0-.3 0-.3.2l-.1.2h-.1v.3h-.1v.2h-.1v.2h-1.3v-.6h-.1v-.6l-.3-.3-1.5-.3s-.2 0-.2.2h-.1l-.1.2-.1.2h-.1v.3h-.2v.2h-.3l-.9-.2v-.1h-.1v-1.1l-.3-.2-1.7-.4v.2h-.1l-.1.2H28v.2h-.2v.2h-.2l-.9-.3h-.1v-1.2l-.1-.2-1.4-.6h-.3l-.1.2h-.2v.2h-.2v.2h-.2v.2h-.2l-.8-.4H23v-1.5l-1.4-.7h-.4v.2H21v.2h-.2l-.1.2h-.4l-.8-.4h-.1v-.6l.1-.1V73l.1-.2v-.3l-1.3-.8h-.6v.2h-.2l-.1.2h-.5l-.7-.4v-.5l.1-.1V71h.1v-.7l-1.1-1h-.6v.2h-.4v.2h-.4l-.6-.4v-.6h.1v-.2h.1v-.2h.1v-.5l-1-1c0-.2-.2-.2-.3-.1h-.5v.2h-.6l-.6-.6v-.4l.1-.1v-.1h.1v-.1l.1-.1v-.2l.2-.2v-.3l-1-1.2h-1v.2h-.4l-.6-.8v-.3h.2v-.2h.1v-.1l.1-.1h.1l.2-.2v-.3L8 60.5c0-.1-.2-.2-.3-.1H6.5l-.4-.7v-.4h.2l.1-.1.1-.1V59h.1v-.1h.1l.2-.2v-.3L6.2 57l-.2-.2H4.8l-.4-.8v-.4h.1l.1-.1h.1v-.1h.1v-.1h.1v-.1H5l.1-.1.1-.1c.1-.1.2-.2.1-.3l-.8-1.6H3.3V53L3 52l.1-.1h.2v-.1l.1-.1h.1v-.1h.1v-.1h.1l.2-.1V51l-.3-1.5-.2-.2H2.3v-.1h-.2l-.1-1V48h.3l.1-.1h.1l.1-.1h.1l.1-.1.2-.1.1-.3-.4-1.7h-.4l-.1-.1h-.5v-.1h-.2v-.1l-.1-1V44h.2l.1-.1h.2v-.1h.4v-.1h.3l.2-.3-.1-1.6-.2-.2h-.4v-.1h-.4v-.1h-.3v-.1h-.1v-1.1h.1v-.1h.4V40h.3l.1-.1h.3l.2-.3v-1.5l-.1-.3h-.3v-.1H2l-.1-.1h-.2v-.1h-.2v-.1h-.1v-1.2m25.9 10.3a.6.6 0 0 1-.3-.5v-1.2c0-.2 0-.4.3-.5a4.2 4.2 0 1 0-4.6 0c.2 0 .3.3.3.5v1c0 .3-.3.6-.6.6H11.5l-.4-.2a.6.6 0 0 1-.2-.4v-1c0-.2 0-.4.3-.5a4.2 4.2 0 1 0-6.5-3.5c0 14.8 9 28 22.7 33.6a4 4 0 0 0 5.5-3.8v-14c0-4-2.2-8-5.7-10.1m47.3 7.8a4 4 0 0 0-3.7-5.5h-14a12 12 0 0 0-10.1 5.7c-.1.2-.3.3-.5.3h-1.3a.6.6 0 0 1-.5-.3 4.2 4.2 0 0 0-7.7 2.3 4.2 4.2 0 0 0 7.7 2.2l.5-.2h1.4l.2.6v10.8c0 .3-.3.6-.6.6h-1a.6.6 0 0 1-.5-.3 4.2 4.2 0 1 0-3.5 6.5c14.8 0 28-9 33.6-22.8m-15.3-17a.6.6 0 0 1-.3-.5v-1c0-.1 0-.3.2-.4l.4-.1h11.2l.2.6v1l-.3.4a4.2 4.2 0 1 0 6.5 3.6c0-14.8-9-28.1-22.7-33.6a4 4 0 0 0-5.5 3.7v13.9c0 4 2.1 8 5.7 10.2.2 0 .3.3.3.5v1.2c0 .2-.1.4-.3.5a4.2 4.2 0 0 0 2.3 7.8 4.2 4.2 0 0 0 2.3-7.8m-10.3 3.6a8 8 0 1 0-16 0 8 8 0 0 0 16 0M7.3 27.3a4 4 0 0 0 3.7 5.5h13.9c4.2 0 8-2.2 10.2-5.8l.5-.2h1.3c.2 0 .4 0 .5.2a4.2 4.2 0 1 0 0-4.5c-.1.2-.3.3-.5.3h-1l-.4-.2a.6.6 0 0 1-.2-.4V11.5c0-.2 0-.3.2-.5l.4-.1h1c.2 0 .4 0 .5.2a4.2 4.2 0 1 0 3.5-6.4c-14.8 0-28 9-33.6 22.7"/>
</svg>
