<svg xmlns="http://www.w3.org/2000/svg" viewBox="0 0 98 130">
  <path fill="none" stroke="#333" d="M95.8 116.3a8 8 0 0 1-6.5 12.7h-80a8 8 0 0 1-8-8V9a8 8 0 0 1 14.5-4.7l80 112m-46-57.7-9.3-13a4 4 0 1 0-6.6 4.8l9.3 13a4 4 0 0 0 6.6-4.8M13.4 121a4 4 0 1 0-8.2 0 4 4 0 0 0 8.2 0m80 0a4 4 0 1 0-8.2 0 4 4 0 0 0 8.2 0m-16 0a4 4 0 1 0-8.2 0 4 4 0 0 0 8.2 0m-16 0a4 4 0 1 0-8.2 0 4 4 0 0 0 8.2 0m-16 0a4 4 0 1 0-8.2 0 4 4 0 0 0 8.2 0m-16 0a4 4 0 1 0-8.2 0 4 4 0 0 0 8.2 0m-16-16a4 4 0 1 0-8.2 0 4 4 0 0 0 8.2 0m16 0a4 4 0 1 0-8.2 0 4 4 0 0 0 8.2 0m16 0a4 4 0 1 0-8.2 0 4 4 0 0 0 8.2 0m16 0a4 4 0 1 0-8.2 0 4 4 0 0 0 8.2 0m16 0a4 4 0 1 0-8.2 0 4 4 0 0 0 8.2 0m-28-16a8 8 0 1 0-16 0 8 8 0 0 0 16 0m-36 0a4.1 4.1 0 1 0-8.2 0 4.1 4.1 0 0 0 8.2 0m16 0a4 4 0 1 0-8.2 0 4 4 0 0 0 8.2 0m39-4.3-9.3-13a4 4 0 0 0-6.6 4.7l9.3 13a4 4 0 1 0 6.6-4.7m-55-11.8a4 4 0 1 0-8.2 0 4 4 0 0 0 8.2 0m16 0a4 4 0 1 0-8.2 0 4 4 0 0 0 8.2 0m16 0a4 4 0 1 0-8 0 4 4 0 0 0 8 0m-32-16a4 4 0 1 0-8.2 0 4 4 0 0 0 8.2 0m16 0a4 4 0 1 0-8.2 0 4 4 0 0 0 8.2 0m0-16a4 4 0 1 0-8.2 0 4 4 0 0 0 8.2 0m-16 0a4 4 0 1 0-8.2 0 4 4 0 0 0 8.2 0m0-16a4 4 0 1 0-8.2 0 4 4 0 0 0 8.2 0m0-16a4 4 0 1 0-8.2 0 4 4 0 0 0 8.2 0"/>
</svg>
