<?xml version="1.0" encoding="UTF-8"?>
<svg width="32px" height="32px" viewBox="0 0 32 32" version="1.1" xmlns="http://www.w3.org/2000/svg" xmlns:xlink="http://www.w3.org/1999/xlink">
    <title>加工暂停</title>
    <g id="页面-2" stroke="none" stroke-width="1" fill="none" fill-rule="evenodd">
        <g id="素材" transform="translate(-834.000000, -314.000000)">
            <g id="加工暂停" transform="translate(834.000000, 314.000000)">
                <rect id="矩形备份-4" x="0" y="0" width="32" height="32"></rect>
                <g id="timeout-outlined" transform="translate(3.000000, 3.000000)" fill-rule="nonzero">
                    <rect id="矩形" fill="#000000" opacity="0" x="0" y="0" width="26" height="26"></rect>
                    <path d="M13,1.625 C6.71835938,1.625 1.625,6.71835938 1.625,13 C1.625,19.2816406 6.71835938,24.375 13,24.375 C19.2816406,24.375 24.375,19.2816406 24.375,13 C24.375,6.71835938 19.2816406,1.625 13,1.625 Z M13,22.4453125 C7.78476563,22.4453125 3.5546875,18.2152344 3.5546875,13 C3.5546875,7.78476563 7.78476563,3.5546875 13,3.5546875 C18.2152344,3.5546875 22.4453125,7.78476563 22.4453125,13 C22.4453125,18.2152344 18.2152344,22.4453125 13,22.4453125 Z M10.765625,8.9375 L9.546875,8.9375 C9.43515625,8.9375 9.34375,9.02890625 9.34375,9.140625 L9.34375,16.859375 C9.34375,16.9710938 9.43515625,17.0625 9.546875,17.0625 L10.765625,17.0625 C10.8773437,17.0625 10.96875,16.9710938 10.96875,16.859375 L10.96875,9.140625 C10.96875,9.02890625 10.8773437,8.9375 10.765625,8.9375 Z M16.453125,8.9375 L15.234375,8.9375 C15.1226563,8.9375 15.03125,9.02890625 15.03125,9.140625 L15.03125,16.859375 C15.03125,16.9710938 15.1226563,17.0625 15.234375,17.0625 L16.453125,17.0625 C16.5648438,17.0625 16.65625,16.9710938 16.65625,16.859375 L16.65625,9.140625 C16.65625,9.02890625 16.5648438,8.9375 16.453125,8.9375 Z" id="形状" fill="#747A7A"></path>
                </g>
            </g>
        </g>
    </g>
</svg>