<?xml version="1.0" encoding="UTF-8"?>
<svg width="32px" height="32px" viewBox="0 0 32 32" version="1.1" xmlns="http://www.w3.org/2000/svg" xmlns:xlink="http://www.w3.org/1999/xlink">
    <title>编组 10</title>
    <defs>
        <rect id="path-1" x="0" y="0" width="32" height="32"></rect>
    </defs>
    <g id="页面-2" stroke="none" stroke-width="1" fill="none" fill-rule="evenodd">
        <g id="素材" transform="translate(-697.000000, -313.000000)">
            <g id="编组-10" transform="translate(697.000000, 313.000000)">
                <mask id="mask-2" fill="white">
                    <use xlink:href="#path-1"></use>
                </mask>
                <g id="矩形"></g>
                <g id="编组-5" mask="url(#mask-2)">
                    <g transform="translate(6.000000, 1.000000)">
                        <polygon id="三角形" stroke="none" fill="#28BE44" transform="translate(10.000000, 19.000000) scale(1, -1) translate(-10.000000, -19.000000) " points="10 17 14 21 6 21"></polygon>
                        <rect id="矩形备份-7" stroke="#28BE44" stroke-width="1.5" fill="#FFFFFF" x="0.75" y="0.75" width="16.5" height="16.5" rx="1"></rect>
                        <rect id="矩形备份-9" stroke="none" fill="#28BE44" x="12" y="0" width="1.5" height="18"></rect>
                        <rect id="矩形" stroke="none" fill="#28BE44" x="0" y="28.5" width="21" height="1.5" rx="0.75"></rect>
                        <g id="Group-21" stroke="none" stroke-width="1" fill="none" transform="translate(10.000000, 25.656854) rotate(-45.000000) translate(-10.000000, -25.656854) translate(6.000000, 21.656854)">
                            <path d="M6.02882433,6.76799114 L6.06131885,6.77429175 L7.58566835,7.11963152 C7.84563267,7.17852616 8.00455472,7.42043164 7.94063066,7.65994253 C7.87937012,7.8894738 7.63567863,8.03350867 7.3866734,7.99327778 L7.35417888,7.98697718 L5.82982938,7.6416374 C5.56986506,7.58274276 5.41094302,7.34083728 5.47486707,7.10132639 C5.53612762,6.87179512 5.7798191,6.72776025 6.02882433,6.76799114 Z M7.86124244,0.140703288 C8.03745515,0.320174933 8.04588842,0.606520143 7.88623236,0.796217171 L7.86228085,0.8226373 L3.5063015,5.29637768 L6.09265915,4.70943538 C6.34711916,4.65167894 6.59922758,4.81560845 6.65575907,5.07558218 C6.70993509,5.32472367 6.56483215,5.57165866 6.32868677,5.64263755 L6.29737779,5.65088353 L4.01097662,6.1696254 L4.48941753,6.30103152 C4.74114752,6.37015645 4.89036663,6.63468254 4.82270776,6.89186708 C4.75786801,7.1383356 4.51737734,7.28861787 4.2758924,7.23987416 L4.24440308,7.23237914 L1.89575751,6.58735571 L1.85635998,6.57332488 L1.79976133,6.54577426 L1.76920204,6.52664138 L1.74530243,6.5091996 L1.7173219,6.48564317 L1.6902684,6.45905053 L1.65231338,6.41322312 L1.62990768,6.37951437 L1.61398322,6.35126002 L1.59934417,6.32039413 L1.58241511,6.27528164 L0.692898454,3.59223476 C0.609269081,3.34000095 0.741613309,3.06626103 0.988497562,2.98081955 C1.22509497,2.89893813 1.48102474,3.0197054 1.57554668,3.25191155 L1.58694542,3.28282379 L1.96087144,4.4108681 L2.68958111,1.40893604 C2.75232042,1.15045298 3.00827848,0.992873378 3.26127944,1.05697214 C3.50373869,1.11840013 3.65549335,1.36112585 3.6124995,1.60874659 L3.60577863,1.64105821 L2.89901109,4.55269678 L7.1937714,0.141764203 C7.37780168,-0.0468396383 7.67663865,-0.0473146261 7.86124244,0.140703288 Z M0.912355162,0.910317802 L0.921727657,0.943113256 L1.23084652,2.17154688 C1.29802403,2.43850926 1.14976622,2.71306351 0.899703433,2.78478097 C0.66005993,2.8535102 0.413885405,2.71101162 0.334661568,2.46405422 L0.325289072,2.43125877 L0.0161702067,1.20282514 C-0.0510072995,0.935862761 0.0972505119,0.661308508 0.347313297,0.589591052 C0.586956799,0.520861823 0.833131324,0.663360401 0.912355162,0.910317802 Z" id="形状" fill="#28BE44" fill-rule="nonzero"></path>
                        </g>
                    </g>
                </g>
            </g>
        </g>
    </g>
</svg>