<?xml version="1.0" encoding="UTF-8"?>
<svg width="32px" height="32px" viewBox="0 0 32 32" version="1.1" xmlns="http://www.w3.org/2000/svg" xmlns:xlink="http://www.w3.org/1999/xlink">
    <title>编组 5</title>
    <g id="页面-2" stroke="none" stroke-width="1" fill="none" fill-rule="evenodd">
        <g id="素材" transform="translate(-789.000000, -313.000000)">
            <g id="编组-5" transform="translate(789.000000, 313.000000)">
                <rect id="矩形备份-4" x="0" y="0" width="32" height="32"></rect>
                <g id="close-circle-outlined备份" transform="translate(3.000000, 3.000000)" fill-rule="nonzero">
                    <rect id="矩形" fill="#000000" opacity="0" x="0" y="0" width="26" height="26"></rect>
                    <path d="M17.4027344,9.00859375 C17.4027344,8.896875 17.3113281,8.80546875 17.1996094,8.80546875 L15.5238281,8.81308594 L13,11.821875 L10.4787109,8.815625 L8.80039063,8.80800781 C8.68867188,8.80800781 8.59726563,8.896875 8.59726563,9.01113281 C8.59726563,9.059375 8.61503906,9.10507812 8.64550781,9.14316406 L11.9488281,13.0787109 L8.64550781,17.0117188 C8.61503906,17.0498047 8.59726563,17.0955078 8.59726563,17.14375 C8.59726563,17.2554687 8.68867188,17.346875 8.80039063,17.346875 L10.4787109,17.3392578 L13,14.3304687 L15.5212891,17.3367187 L17.1970703,17.3443359 C17.3087891,17.3443359 17.4001953,17.2554687 17.4001953,17.1412109 C17.4001953,17.0929687 17.3824219,17.0472656 17.3519531,17.0091797 L14.0537109,13.0761719 L17.3570312,9.140625 C17.3875,9.10507812 17.4027344,9.05683594 17.4027344,9.00859375 Z" id="路径" fill="#333333"></path>
                    <path d="M13,1.65039062 C6.71835938,1.65039062 1.625,6.74375 1.625,13.0253906 C1.625,19.3070313 6.71835938,24.4003906 13,24.4003906 C19.2816406,24.4003906 24.375,19.3070313 24.375,13.0253906 C24.375,6.74375 19.2816406,1.65039062 13,1.65039062 Z M13,22.4707031 C7.78476563,22.4707031 3.5546875,18.240625 3.5546875,13.0253906 C3.5546875,7.81015625 7.78476563,3.58007812 13,3.58007812 C18.2152344,3.58007812 22.4453125,7.81015625 22.4453125,13.0253906 C22.4453125,18.240625 18.2152344,22.4707031 13,22.4707031 Z" id="形状" fill="#333333"></path>
                </g>
            </g>
        </g>
    </g>
</svg>
