<?xml version="1.0" encoding="UTF-8"?>
<svg width="32px" height="32px" viewBox="0 0 32 32" version="1.1" xmlns="http://www.w3.org/2000/svg" xmlns:xlink="http://www.w3.org/1999/xlink">
    <title>编组 5</title>
    <g id="页面-2" stroke="none" stroke-width="1" fill="none" fill-rule="evenodd">
        <g id="素材" transform="translate(-742.000000, -313.000000)">
            <g id="编组-5" transform="translate(742.000000, 313.000000)">
                <rect id="矩形备份-4" x="0" y="0" width="32" height="32"></rect>
                <g id="check-circle-outlined" transform="translate(3.000000, 3.000000)" fill-rule="nonzero">
                    <rect id="矩形" fill="#000000" opacity="0" x="0" y="0" width="26" height="26"></rect>
                    <path d="M17.7480469,8.96289062 L16.5572266,8.96289062 C16.2982422,8.96289062 16.0519531,9.08730469 15.8996094,9.30058594 L11.9082031,14.8357422 L10.1003906,12.3271484 C9.94804687,12.1164062 9.70429687,11.9894531 9.44277344,11.9894531 L8.25195312,11.9894531 C8.08691406,11.9894531 7.99042969,12.1773437 8.08691406,12.3119141 L11.2505859,16.6994141 C11.5730469,17.1488281 12.2408203,17.1488281 12.5632813,16.6994141 L17.9105469,9.28535156 C18.0095703,9.15078125 17.9130859,8.96289062 17.7480469,8.96289062 Z" id="路径" fill="#333333"></path>
                    <path d="M13,1.625 C6.71835938,1.625 1.625,6.71835938 1.625,13 C1.625,19.2816406 6.71835938,24.375 13,24.375 C19.2816406,24.375 24.375,19.2816406 24.375,13 C24.375,6.71835938 19.2816406,1.625 13,1.625 Z M13,22.4453125 C7.78476563,22.4453125 3.5546875,18.2152344 3.5546875,13 C3.5546875,7.78476563 7.78476563,3.5546875 13,3.5546875 C18.2152344,3.5546875 22.4453125,7.78476563 22.4453125,13 C22.4453125,18.2152344 18.2152344,22.4453125 13,22.4453125 Z" id="形状" fill="#333333"></path>
                </g>
            </g>
        </g>
    </g>
</svg>
