<?xml version="1.0" encoding="UTF-8"?>
<svg width="29px" height="30px" viewBox="0 0 29 30" version="1.1" xmlns="http://www.w3.org/2000/svg" xmlns:xlink="http://www.w3.org/1999/xlink">
    <title>2、裁切</title>
    <defs>
        <path d="M15.625,11 L15.625,14 L23.1875,14.0001833 C23.6041791,14.0001833 23.9475996,14.3138366 23.9945337,14.7179185 L24,14.8126719 L24,22.375 L26.4578732,22.375 C26.509005,22.375 26.5631717,22.375 26.6203732,22.375 L27,22.375 L27,22.375 L27,24 L27,24 L24,24 L24,27 L24,27 L22.375,27 L22.375,24 L14.8125,24 C14.3958209,24 14.0524004,23.6863423 14.0054663,23.2822547 L14,23.1875 L14,15.625 L11,15.6251604 L11,15.6251604 L11,14.0001833 L11,14.0001833 L14,14 L14,11 L15.625,11 L15.625,11 Z M15.625,22.375 L22.375,22.375 L22.375,15.6251604 L15.625,15.625 L15.625,22.375 Z" id="path-1"></path>
        <filter x="-26.9%" y="-20.6%" width="155.7%" height="153.8%" filterUnits="objectBoundingBox" id="filter-2">
            <feMorphology radius="0.8" operator="dilate" in="SourceAlpha" result="shadowSpreadOuter1"></feMorphology>
            <feOffset dx="0" dy="1" in="shadowSpreadOuter1" result="shadowOffsetOuter1"></feOffset>
            <feGaussianBlur stdDeviation="1" in="shadowOffsetOuter1" result="shadowBlurOuter1"></feGaussianBlur>
            <feComposite in="shadowBlurOuter1" in2="SourceAlpha" operator="out" result="shadowBlurOuter1"></feComposite>
            <feColorMatrix values="0 0 0 0 0   0 0 0 0 0   0 0 0 0 0  0 0 0 0.3 0" type="matrix" in="shadowBlurOuter1"></feColorMatrix>
        </filter>
    </defs>
    <g id="2、裁切" stroke="none" stroke-width="1" fill="none" fill-rule="evenodd">
        <g id="编组-22">
            <g id="形状结合">
                <use fill="black" fill-opacity="1" filter="url(#filter-2)" xlink:href="#path-1"></use>
                <path stroke="#FFFFFF" stroke-width="0.8" d="M16.025,10.6 L16.025,13.6000097 L23.1875,13.6001833 C23.4967151,13.6001833 23.7788716,13.7159634 23.9930666,13.9064577 C24.18392,14.0761931 24.3206157,14.3053508 24.3745694,14.564798 L24.3945188,14.6969108 L24.3997145,21.975 L26.7460994,21.975 L27.5551195,24.4 L24.4,24.4 L24.4,27.4 L21.975,27.4 L21.975,24.4 L14.8125,24.4 C14.5032841,24.4 14.2211268,24.2842183 14.0069313,24.0937209 C13.8160792,23.9239842 13.6793841,23.694825 13.6254305,23.4353759 L13.6054812,23.3032621 L13.6002855,16.0250214 L10.6,16.0251818 L10.6,13.6002078 L13.6,13.6000244 L13.6,10.6 L16.025,10.6 Z M21.975,16.0251509 L16.025,16.0250095 L16.025,21.975 L21.975,21.975 L21.975,16.0251509 Z" fill="#333333" fill-rule="evenodd"></path>
            </g>
            <path d="M5.5,6.7763932 L6.1,7.9763932 L6.1,11.1 L4.9,11.1 L4.9,7.9763932 L5.5,6.7763932 Z M11.1,4.9 L11.1,6.1 L7.9763932,6.1 L6.7763932,5.5 L7.9763932,4.9 L11.1,4.9 Z M3.0236068,4.9 L4.2236068,5.5 L3.0236068,6.1 L-0.1,6.1 L-0.1,4.9 L3.0236068,4.9 Z M5.11789801,5.05060832 C5.69600408,4.87840034 5.82203833,4.9735102 5.92426407,5.07573593 C6.03284271,5.18431458 6.1,5.33431458 6.1,5.5 C6.1,5.66568542 6.03284271,5.81568542 5.92426407,5.92426407 C5.81568542,6.03284271 5.66568542,6.1 5.5,6.1 C5.33431458,6.1 5.18431458,6.03284271 5.07573593,5.92426407 C4.96715729,5.81568542 4.9,5.66568542 4.9,5.5 C5.08192566,5.06954621 5.08824999,5.06349109 5.09478934,5.05756408 C5.10239759,5.05524977 5.11010007,5.05293119 5.11789801,5.05060832 Z M6.1,-0.1 L6.1,3.0236068 L5.5,4.2236068 L4.9,3.0236068 L4.9,-0.1 L6.1,-0.1 Z" id="形状结合" stroke="#FFFFFF" stroke-width="0.2" fill="#333333"></path>
        </g>
    </g>
</svg>