<?xml version="1.0" encoding="UTF-8"?>
<svg width="18px" height="18px" viewBox="0 0 18 18" version="1.1" xmlns="http://www.w3.org/2000/svg" xmlns:xlink="http://www.w3.org/1999/xlink">
    <title>1、魔法棒</title>
    <defs>
        <filter x="-43.3%" y="-44.1%" width="186.7%" height="188.2%" filterUnits="objectBoundingBox" id="filter-1">
            <feOffset dx="0" dy="1" in="SourceAlpha" result="shadowOffsetOuter1"></feOffset>
            <feGaussianBlur stdDeviation="1" in="shadowOffsetOuter1" result="shadowBlurOuter1"></feGaussianBlur>
            <feColorMatrix values="0 0 0 0 0   0 0 0 0 0   0 0 0 0 0  0 0 0 0.3 0" type="matrix" in="shadowBlurOuter1" result="shadowMatrixOuter1"></feColorMatrix>
            <feMerge>
                <feMergeNode in="shadowMatrixOuter1"></feMergeNode>
                <feMergeNode in="SourceGraphic"></feMergeNode>
            </feMerge>
        </filter>
    </defs>
    <g id="1、魔法棒" stroke="none" stroke-width="1" fill="none" fill-rule="evenodd">
        <g id="编组-15" filter="url(#filter-1)" transform="translate(9.500000, 8.500000) scale(-1, 1) rotate(45.000000) translate(-9.500000, -8.500000) translate(2.000000, 0.000000)" fill="#333333" fill-rule="nonzero" stroke="#FFFFFF">
            <g id="编组-13" transform="translate(6.000000, 6.000000)" stroke-width="0.8">
                <path d="M1.5,-0.4 C1.99634077,-0.4 2.44946584,-0.200322116 2.78963477,0.130183992 C3.12839127,0.459317795 3.35444857,0.918950136 3.39385969,1.43526861 L3.39385969,1.43526861 L3.40025688,11.4 L-0.4,11.4 L-0.4,1.59677419 C-0.4,1.04837505 -0.189487654,0.552862935 0.147800599,0.193814149 C0.493858604,-0.174570179 0.972618131,-0.4 1.5,-0.4 Z" id="形状结合"></path>
            </g>
            <g id="编组-14" transform="translate(0.000000, 0.000000)" stroke-width="0.2">
                <path d="M7.35502159,-0.0987568782 L7.47902698,-0.0962026307 L8.19990139,2.787295 C8.20340678,3.01323925 8.11322731,3.21814354 7.96568542,3.36568542 C7.80382953,3.52754132 7.57294109,3.62036469 7.32097302,3.59620263 L7.32097302,3.59620263 L6.60009861,0.712705 C6.59659322,0.486760748 6.68677269,0.281856457 6.83431458,0.134314575 C6.99617047,-0.0275413232 7.22705891,-0.120364688 7.47902698,-0.0962026307 Z" id="直线-14"></path>
                <path d="M12.190536,2.10104375 L12.3156525,2.10440567 C12.5432974,2.12833211 12.7607375,2.24935049 12.9005287,2.46037214 L12.9005287,2.46037214 L11.1132911,4.83524063 C10.9399054,4.98015615 10.7239131,5.03902399 10.5164004,5.01721353 C10.2887555,4.99328709 10.0713154,4.87226871 9.93152424,4.66124706 L9.93152424,4.66124706 L11.7187618,2.28637857 C11.8921475,2.14146305 12.1081398,2.08259521 12.3156525,2.10440567 Z" id="直线-14"></path>
                <path d="M12.6176349,5.98167193 L12.7416403,5.98422618 L13.4625147,8.86772381 C13.4660201,9.09366806 13.3758407,9.29857235 13.2282988,9.44611423 C13.0664429,9.60797013 12.8355544,9.7007935 12.5835864,9.67663144 L12.5835864,9.67663144 L11.862712,6.79313381 C11.8592066,6.56718956 11.949386,6.36228527 12.0969279,6.21474338 C12.2587838,6.05288749 12.4896723,5.96006412 12.7416403,5.98422618 Z" id="直线-14" transform="translate(12.662613, 7.830429) rotate(103.000000) translate(-12.662613, -7.830429) "></path>
                <path d="M3.0540143,6.81768824 C3.27337907,6.76344629 3.49331765,6.80522103 3.67026774,6.91579173 C3.86438494,7.03708961 4.00676784,7.24117968 4.03990554,7.49212511 L4.03990554,7.49212511 L1.39247323,8.84316938 C1.17310845,8.89741133 0.953169877,8.85563658 0.776219782,8.74506589 C0.582102585,8.62376801 0.439719681,8.41967794 0.406581981,8.16873251 L0.406581981,8.16873251 Z" id="直线-14"></path>
                <path d="M2.60680193,2.10547174 L4.83548602,3.59987924 C5.00716837,3.73890486 5.10624629,3.93435696 5.12764723,4.13797324 C5.14904816,4.34158952 5.0927721,4.55336998 4.95374648,4.72505232 C4.82617653,4.88258809 4.65109322,4.97898116 4.46579528,5.01034222 C4.27823422,5.04208631 4.08022147,5.00712514 3.90043811,4.8944893 L3.90043811,4.8944893 L2.19656688,3.52173996 C2.02488453,3.38271434 1.92580661,3.18726224 1.90440567,2.98364596 C1.88300474,2.78002968 1.9392808,2.56824922 2.07830642,2.39656688 C2.21514687,2.22758299 2.4066572,2.12895116 2.60680193,2.10547174 L2.60680193,2.10547174 Z" id="直线-14"></path>
            </g>
        </g>
    </g>
</svg>