<?xml version="1.0" encoding="UTF-8"?>
<svg width="18px" height="18px" viewBox="0 0 18 18" version="1.1" xmlns="http://www.w3.org/2000/svg" xmlns:xlink="http://www.w3.org/1999/xlink">
    <title>3、钢笔-1</title>
    <defs>
        <filter x="-83.3%" y="-46.9%" width="266.7%" height="193.8%" filterUnits="objectBoundingBox" id="filter-1">
            <feOffset dx="0" dy="1" in="SourceAlpha" result="shadowOffsetOuter1"></feOffset>
            <feGaussianBlur stdDeviation="1" in="shadowOffsetOuter1" result="shadowBlurOuter1"></feGaussianBlur>
            <feColorMatrix values="0 0 0 0 0   0 0 0 0 0   0 0 0 0 0  0 0 0 0.3 0" type="matrix" in="shadowBlurOuter1" result="shadowMatrixOuter1"></feColorMatrix>
            <feMerge>
                <feMergeNode in="shadowMatrixOuter1"></feMergeNode>
                <feMergeNode in="SourceGraphic"></feMergeNode>
            </feMerge>
        </filter>
    </defs>
    <g id="3、钢笔-1" stroke="none" stroke-width="1" fill="none" fill-rule="evenodd">
        <g id="编组-50" filter="url(#filter-1)" transform="translate(7.500000, 7.000000) scale(-1, 1) rotate(45.000000) translate(-7.500000, -7.000000) translate(3.000000, -1.000000)">
            <path d="M4.27092794,0.146920659 C4.5163848,0.0204076517 4.81792595,0.116830696 4.94443896,0.362287556 L4.94443896,0.362287556 L8.79326897,7.8296757 C8.9247087,8.08469124 8.94028792,8.38387713 8.83604561,8.65116511 L8.83604561,8.65116511 L7.13960827,12.999255 L7.5,13 C7.74545989,13 7.94960837,13.1768752 7.99194433,13.4101244 L8,13.5 L8,15.5 C8,15.7761424 7.77614237,16 7.5,16 L7.5,16 L1.5,16 C1.22385763,16 1,15.7761424 1,15.5 L1,15.5 L1,13.5 C1,13.2238576 1.22385763,13 1.5,13 L1.5,13 L1.85960827,12.999255 L0.163954392,8.65116511 C0.0746038383,8.42206112 0.0732854322,8.16952194 0.157504763,7.94145061 L0.206731025,7.8296757 L4.05556104,0.362287556 C4.10320593,0.269848321 4.1784887,0.194565551 4.27092794,0.146920659 Z" id="形状结合" stroke="#FFFFFF" stroke-width="2" fill="#FFFFFF"></path>
            <path d="M4.27155757,0.0528692129 C4.52388811,-0.0705630293 4.83071959,0.0294985734 4.95688485,0.276363058 L4.95688485,0.276363058 L8.89214368,7.97638741 C9.02264727,8.23174058 9.03530685,8.52950409 8.92692952,8.79457817 L8.92692952,8.79457817 L7.206,13 L7.5,13 C7.74545989,13 7.94960837,13.1768752 7.99194433,13.4101244 L8,13.5 L8,15.5 C8,15.7761424 7.77614237,16 7.5,16 L7.5,16 L1.5,16 C1.22385763,16 1,15.7761424 1,15.5 L1,15.5 L1,13.5 C1,13.2238576 1.22385763,13 1.5,13 L1.5,13 L1.793,13 L0.0730704787,8.79457817 C-0.0198243784,8.56737181 -0.0237941543,8.31614874 0.0591504568,8.08820208 L0.107856319,7.97638741 L4.04311515,0.276363058 C4.09254328,0.179648236 4.1727013,0.101226624 4.27155757,0.0528692129 Z M5,2.595 L5.0011143,8.13442774 C5.29940038,8.30749049 5.5,8.63031897 5.5,9 C5.5,9.55228475 5.05228475,10 4.5,10 C3.94771525,10 3.5,9.55228475 3.5,9 C3.5,8.62991228 3.70104123,8.30678026 3.9998705,8.13385712 L4,2.595 L1.02162603,8.4233751 L2.89400457,13.0005051 L6.10701706,13.0005051 L7.97837397,8.4233751 L5,2.595 Z" id="形状结合" fill="#333333"></path>
        </g>
    </g>
</svg>