<svg xmlns="http://www.w3.org/2000/svg" width="47mm" height="50mm" viewBox="0 0 47 50">
  <path fill="none" stroke="#333" d="M18.5 9.8c0 .4-.3.6-.6.7-1.6.6-3 1.5-4.3 2.5a1 1 0 0 1-1 .2l-6.3-2.3a.6.6 0 0 0-.8.3l-3 5c0 .3 0 .7.2.9L8 21.5c.3.2.4.5.3.8a21 21 0 0 0 0 5c0 .3 0 .6-.3.8l-5.2 4.4c-.2.2-.3.6-.1.8l3 5.1c0 .3.4.4.7.3l6.4-2.3c.3 0 .6 0 .9.2 1.3 1 2.7 1.9 4.3 2.5.3 0 .5.3.6.7l1.2 6.6c0 .3.3.6.6.6h6c.2 0 .5-.3.5-.6l1.2-6.6c0-.4.3-.6.6-.7 1.6-.6 3-1.5 4.3-2.5.3-.2.6-.3 1-.2l6.3 2.3c.3 0 .6 0 .8-.3l3-5c0-.3 0-.7-.2-.9l-5.2-4.4a1 1 0 0 1-.3-.8 21 21 0 0 0 0-5c0-.3 0-.6.3-.8l5.2-4.4c.2-.2.3-.6.1-.8l-3-5.1a.6.6 0 0 0-.7-.3l-6.4 2.3a1 1 0 0 1-.9-.2c-1.3-1-2.7-1.9-4.3-2.5a1 1 0 0 1-.6-.7l-1.2-6.6c0-.3-.3-.6-.6-.6h-6c-.2 0-.5.3-.5.6l-1.2 6.6Zm-.6-7c.2-1.2 1.2-2 2.4-2h6c1 0 2.1.8 2.3 2L29.8 9c1.4.6 2.7 1.3 3.9 2.3l5.9-2.1c1.1-.4 2.4 0 3 1l3 5.2c.5 1 .3 2.3-.6 3l-4.8 4.1c.2 1.5.2 3 0 4.6l4.8 4c.9.8 1 2.1.5 3.1l-3 5.2c-.5 1-1.8 1.4-3 1l-5.8-2a17 17 0 0 1-4 2.2l-1 6.2c-.3 1.2-1.3 2-2.5 2h-6c-1 0-2.1-.8-2.3-2l-1.2-6.2a17 17 0 0 1-3.9-2.3L7 40.4c-1.1.4-2.4 0-3-1l-3-5.2c-.5-1-.3-2.3.6-3L6.3 27c-.2-1.5-.2-3 0-4.6l-4.8-4a2.5 2.5 0 0 1-.5-3.1l3-5.2c.5-1 1.8-1.4 2.9-1l6 2A17 17 0 0 1 16.6 9L18 2.8ZM23 32.6A7.8 7.8 0 1 1 23 17a7.8 7.8 0 0 1 0 15.6Zm0-1.8a6 6 0 1 0 0-12 6 6 0 0 0 0 12Z"/>
</svg>
