<svg xmlns="http://www.w3.org/2000/svg" width="66mm" height="60mm" viewBox="0 0 66 60">
  <path fill="none" stroke="#000" stroke-linecap="round" stroke-linejoin="round" d="M24.2 43h0v1.7c-.1.5 0 1-.2 1.6v2c0 .3.1.7.3 1a.5.5 0 0 0 .8.2l.2-.2.8-.8c.1-.2.3-.1.4 0l.2 1 .2 1.1c0 .6 0 1.3.2 1.9l.1 1 .4.7c.1.2.3.3.5.2l.6-.3h.5l.9 1.2.4.7 1 1.3.7 1 1 1.1h.3l.2-.2.2-.8.2-.7.1-1 .3-1.2V51.6l-.2-1s0 0 0 0c0-.4 0-.8-.2-1.1v-.8h.5c.4.2.7.4 1 .8.2.5.6.9.9 1.4l.8 1.1a6 6 0 0 0 1.3 1.4l.6.2.9.1 1.6.3 1.1.1h.1l1.3.2h.2l1 .3h.7l.8.2a.3.3 0 0 0 .3-.4 5 5 0 0 0-.3-.7l-1.3-2.4a3 3 0 0 1-.3-1.8v-.2c.2-.4.6-.6 1-.6l1.6.3h.4l1 .3h.2c.5.2 1 0 1.5 0l1.4-.2c.4-.1.6-.4.5-.8-.1-.4 0-.6.2-.8.3-.2.7-.4 1.1-.4l.8-.2 1.3-.2h.8l.3-.1-.1-.3-.2-.3c0-.3-.2-.5 0-.7l.7-.3 1.1-.2.6-.1.9-.3h.8l1-.4 1.3-.4c.6-.2 1.1-.6 1.5-1.1l-.5-.2-2-.1a3 3 0 0 1-.7-.1l-1.2-.5a31 31 0 0 1-2.9-1.5l-1-.9a.7.7 0 0 1 0-1l.4-.6c.2-.3 0-.5-.3-.5a15 15 0 0 1-2.2-.3h-2.3l-1.4.5h-.5v-.6c0-.2.3-.5.5-.7.2-.2.1-.3-.1-.4-.5-.3-1-.4-1.5-.5l-1.8.1s0 0 0 0l-1 .5c-.6.4-1.2.6-2 .7-.4 0-1 0-1.4-.2l-1-.6-.6-.6v-.2l1.4-1.1a6 6 0 0 1 2.2-.8l1.4-.1 1.5-.3c.6-.2 1.2-.6 1.6-1a159 159 0 0 1 2.4-2.1l.8-.6 1-.7a43.2 43.2 0 0 1 3.1-1.4l.9-.1-.6-.2a315.3 315.3 0 0 1-2.2-.7l-1-.6a.7.7 0 0 1-.3-1l.8-.9c.4-.5 1-1 1.3-1.5v-.2h-1.3a.5.5 0 0 1-.5-.5c0-.4 0-.8.2-1.2l1.2-2.2.5-1 .6-.7h-2c-.3 0-.6 0-.8-.2-.3-.3-.4-1-.2-1.5l.3-.6.6-.8 1-1.3c.2-.3.1-.5-.2-.7l-1-.5c-.2 0-.5-.1-.6-.4-.3-.6 0-1 .3-1.4l1-1.3c.5-.6.7-1.2.8-1.8V3.9l-1 .8c-.4.5-.8 1-1.4 1.4h-.6a1 1 0 0 0-.5-.2c-.4 0-.7 0-1 .2l-1.2 1-1.6 1.3-.8.8-1.1-1a4.2 4.2 0 0 1-1-1.5v-.2c0-.2.2-.3.3-.5V6h-.1a6.5 6.5 0 0 0-1.6 1c-.5.2-1 .6-1.4 1-.6.5-1 1-1.4 1.8A3 3 0 0 0 41 11v.4c-.2.5-.6 1-1.2 1.2h-.5c-.2-.2-.3-.5-.3-.8 0-.5 0-1-.2-1.4-.2-.5-.4-1-.8-1.3l-1-1-.4-.4-.9-1.5-.2.6-.3 1-.8 1.8c-.3.6-.5 1.2-1 1.7-.2 0-.2.1-.3.2l-1 1.2a3 3 0 0 0-.3.5l-.5 1-.3 1.5a7 7 0 0 0 .2 2l.2.7.3.9.3 1c0 .2 0 .4-.2.6-.2.4-.5.9-.9 1.3-.4.5-.9 1-1.4 1.3h-.3a3.3 3.3 0 0 1-1-1c-.4-.4-.6-1-.6-1.5v-1l.5-1.3c.2-.5.4-1 .3-1.5V16l-.2-.5c0-.4-.2-.7-.5-1h-.3c0 .2-.3.3-.4.5l-.6.3a.2.2 0 0 1-.3-.3l.1-.7.2-.7v-1.8l-.2-1v-.8l-.2-.5-.2-.7-.2-.3h-.4a5 5 0 0 0-.7.6c-.2.2-.4.2-.5.1-.5-.1-.9-.5-1.2-.9a12 12 0 0 1-.8-1.1l-.6-1a36.4 36.4 0 0 1-1.2-3l-.1-1c0-.2 0-.4-.2-.6 0-.2 0-.4-.2-.5-.7.6-1 1.3-1.1 2.2l-.2.7-.2 1v1.6L17.8 8c0 .3-.1.7-.3 1 0 .2-.4.3-.6.2l-.4-.2c-.3-.1-.5 0-.5.3V12l-.2 1c0 .3-.3.6-.7.6h-.5c-.1 0-.3 0-.3.2l-.1.4-.3 1.3c0 .3 0 .6.2 1v.8l.4 1 .4 1 .1.9v.5c-.2.2-.5.5-.7.5a4 4 0 0 1-2.2-.3l-1.2-.5-1.5-.7-.4.1c0 .2-.2.3 0 .5V21.2l.5 1.3.3 1.3.2.6v.6l.2.5.2.6.1.7c.1.3.3.6.3 1 .1.3.3.7.7 1l1.4.9 1.7.9c.5.2 1 .5 1.3 1 .2.1.3.4.2.6l-.5.2-.7-.1-1.6-.1h-2l-1.2.2-.7.1-.9.2-.8.2c-.3 0-.5.2-.8.3a4 4 0 0 0-1.4.5c-.2.2-.2.3 0 .5l.4.3 1.2.8 1 .6 1.9 1 1.2.8v.2c0 .2 0 .4-.2.5a.6.6 0 0 0 .4 1l1.3.2c1.3 0 2.7 0 4.1.2.2 0 .3.2.2.4l-.3.4-.6.8v.3c0 .3.3.5.6.5h2.4s0 0 0 0l1-.3 1-.1 1.4-.2a3 3 0 0 1 .7 0l-1 1L21 44l-1.4 1.2-1 1a124.5 124.5 0 0 1-1.8 1.3l-1.3 1-1.4.8-2 1.1-1.7.8-2 .9-1.7.4-1.6.5-1.5.2H1v.5l.2 1 .1 1.2c0 .2.1.4.4.3H3l1.6-.4.5-.1.7-.2c.3 0 .5-.2.8-.3l1.2-.3a23.1 23.1 0 0 0 4.5-2.3 41.4 41.4 0 0 0 3.7-2.3l2-1.6.6-.5 1.3-1s0-.2.2-.2l1.5-1.4 1.9-1.8.8-.8Z"/>
</svg>
